<svg xmlns="http://www.w3.org/2000/svg" xmlns:xlink="http://www.w3.org/1999/xlink" width="1030" height="637.431" viewBox="0 0 1030 637.431">
  <defs>
    <clipPath id="clip-path">
      <rect id="Rectángulo_401911" data-name="Rectángulo 401911" width="1030" height="637.431" transform="translate(0 -0.299)" fill="#fff" stroke="#707070" stroke-width="1"/>
    </clipPath>
    <clipPath id="clip-path-2">
      <path id="Trazado_949948" data-name="Trazado 949948" d="M243.694,1484.807l1081.547,268.917L1081.547,268.918,0,0Z" fill="#fff"/>
    </clipPath>
    <clipPath id="clip-path-3">
      <path id="Trazado_949953" data-name="Trazado 949953" d="M798.323,1353.144c-214.9-111.686-434.34-320.933-609.156-595.193-44.517-69.86-86.883-145.393-114.112-226.424s-37.5-168.754-16.383-225.51c27.261-73.275,97.177-79.793,170.187-86.049-26.515-22.324-44.7-71.581-43.514-107.732C187.885,34.965,248,33.609,300.826,49.049,476.869,100.521,660.775,272.721,826.6,466.3,913.71,568,999.109,678.559,1069.519,806.4c46.26,83.99,92.129,201.558,55.732,260.515-16.788,27.2-54.214,25.237-84.662-16.264,50.049,74.581,68.461,180.316,51.222,248.758s-64.493,102.291-118.67,105.64c-20.343,1.262-41.627-1.361-63.435-6.77-36.26-8.993-73.984-25.7-111.383-45.134" fill="#fff"/>
    </clipPath>
    <clipPath id="clip-path-4">
      <path id="Trazado_949955" data-name="Trazado 949955" d="M-133.472,1605.252,891.29,1411.691,1066.7-124.574,41.933,68.987Z" fill="#fff"/>
    </clipPath>
    <clipPath id="clip-path-5">
      <path id="Trazado_949960" data-name="Trazado 949960" d="M457.222,1182.786c-187-26.161-350.788-158.479-450.584-383.212C-18.769,742.323-40.368,677.8-44.981,600.3s9.95-170.143,47.649-242.707C51.336,263.909,124.4,224.881,200.54,184.738c-20.635-12.705-25.107-59.074-13.581-99.718C211.588-1.85,273.2-30.7,322.593-37.591c164.6-22.964,302.773,84.42,416.424,223.745,59.706,73.2,115.139,157,150.375,266.793,23.152,72.132,36.326,181.689-17.561,263.643-24.858,37.809-62.412,52.65-81.583,20.461,29.694,59.971,18.282,168.889-18.8,252.653s-94.863,142.8-150.994,171.155a235.044,235.044,0,0,1-62.673,21.339c-34.362,6.514-68.016,5.141-100.559.588" fill="#fff"/>
    </clipPath>
  </defs>
  <g id="Grupo_1101238" data-name="Grupo 1101238" transform="translate(-285 -10366.284)">
    <g id="Enmascarar_grupo_1098794" data-name="Enmascarar grupo 1098794" transform="translate(285 10366.584)" clip-path="url(#clip-path)">
      <g id="Grupo_1101234" data-name="Grupo 1101234" transform="translate(-479.547 -640.058)">
        <path id="Trazado_949946" data-name="Trazado 949946" d="M14.826,1011.529H1015.174c8.188,0,14.826-16.972,14.826-37.907V37.907C1030,16.972,1023.362,0,1015.174,0H14.826C6.638,0,0,16.972,0,37.907V973.622C0,994.558,6.638,1011.529,14.826,1011.529Z" transform="translate(479.547 639.993)" fill="#f6f6f6"/>
        <g id="Grupo_1101227" data-name="Grupo 1101227" transform="translate(1706.585 2122.469) rotate(-158)" opacity="0.49" style="isolation: isolate">
          <g id="Grupo_1101224" data-name="Grupo 1101224" transform="translate(0 0)">
            <g id="Grupo_1101223" data-name="Grupo 1101223" clip-path="url(#clip-path-2)">
              <path id="Trazado_949947" data-name="Trazado 949947" d="M1040.588,1050.651c50.049,74.581,68.451,180.313,51.222,248.758s-64.5,102.288-118.669,105.64-114.923-20.767-174.815-51.889c-214.9-111.7-434.352-320.951-609.158-595.208-44.514-69.845-86.893-145.4-114.112-226.424s-37.5-168.739-16.381-225.5c27.252-73.277,97.175-79.808,170.185-86.064-26.525-22.326-44.7-71.566-43.513-107.732,2.539-77.27,62.649-78.629,115.47-63.189,176.053,51.475,359.962,223.69,525.77,417.252C913.7,568,999.1,678.557,1069.509,806.4c46.272,84.008,92.139,201.56,55.745,260.532-16.791,27.186-54.216,25.222-84.665-16.279" transform="translate(85.589 141.786)" fill="#fff"/>
            </g>
          </g>
          <g id="Grupo_1101226" data-name="Grupo 1101226" transform="translate(85.589 141.787)">
            <g id="Grupo_1101225" data-name="Grupo 1101225" transform="translate(0 0)" clip-path="url(#clip-path-3)">
              <path id="Trazado_949949" data-name="Trazado 949949" d="M.573,4.84s516.1-24.488,553.183,764.146" transform="translate(28.463 521.393)" fill="#fff"/>
              <path id="Trazado_949950" data-name="Trazado 949950" d="M1.3,11S445.66-112.239,846.582,1195.891" transform="translate(-24.038 199.273)" fill="#fff"/>
              <path id="Trazado_949951" data-name="Trazado 949951" d="M.011.09S305.4,26.889,591.778,681.559C878.148,1336.211,919.9,1636.5,919.9,1636.5" transform="translate(99.572 -87.055)" fill="#fff"/>
              <path id="Trazado_949952" data-name="Trazado 949952" d="M546.544,1009.133S440.968,459.555,0,0" transform="translate(582.858 177.097)" fill="#fff"/>
            </g>
          </g>
        </g>
        <ellipse id="Elipse_11627" data-name="Elipse 11627" cx="259.577" cy="465.405" rx="259.577" ry="465.405" transform="translate(494.498 1016.81)" fill="#e8e8e8" opacity="0.37" style="mix-blend-mode: multiply;isolation: isolate"/>
        <ellipse id="Elipse_11628" data-name="Elipse 11628" cx="259.749" cy="466.46" rx="259.749" ry="466.46" transform="translate(234.603 370.101)" fill="#fff" opacity="0.65"/>
        <ellipse id="Elipse_11629" data-name="Elipse 11629" cx="259.749" cy="466.46" rx="259.749" ry="466.46" transform="translate(1175.749 966.438)" fill="#fff" opacity="0.65"/>
        <g id="Grupo_1101232" data-name="Grupo 1101232" transform="matrix(-0.966, 0.259, -0.259, -0.966, 1284.652, 1970.188)" opacity="0.3" style="isolation: isolate">
          <g id="Grupo_1101229" data-name="Grupo 1101229" transform="translate(0 0)">
            <g id="Grupo_1101228" data-name="Grupo 1101228" clip-path="url(#clip-path-4)">
              <path id="Trazado_949954" data-name="Trazado 949954" d="M790.249,737.051c29.695,59.971,18.273,168.89-18.8,252.652-37.085,83.779-94.873,142.8-150.994,171.155S509.337,1190.087,457.22,1182.8c-186.995-26.176-350.8-158.493-450.582-383.228C-18.771,742.339-40.377,677.8-44.981,600.3S-35.033,430.17,2.666,357.606C51.325,263.925,124.4,224.881,200.541,184.737c-20.645-12.7-25.108-59.059-13.581-99.718C211.589-1.851,273.194-30.695,322.584-37.59,487.2-60.556,625.365,46.844,739.008,186.156c59.706,73.2,115.14,157,150.376,266.793,23.16,72.146,36.335,181.687-17.554,263.657-24.856,37.794-62.411,52.635-81.581,20.446" transform="translate(58.434 142.537)" fill="#fff"/>
            </g>
          </g>
          <g id="Grupo_1101231" data-name="Grupo 1101231" transform="translate(58.435 142.536)">
            <g id="Grupo_1101230" data-name="Grupo 1101230" transform="translate(0 0)" clip-path="url(#clip-path-5)">
              <path id="Trazado_949956" data-name="Trazado 949956" d="M-1.752,21.069s532.6-261.88,345.38,596.087" transform="translate(-88.587 594.285)" fill="#fff"/>
              <path id="Trazado_949957" data-name="Trazado 949957" d="M-2.229,26.811S485.477-311.989,520.6,956.784" transform="translate(-50.698 261.6)" fill="#fff"/>
              <path id="Trazado_949958" data-name="Trazado 949958" d="M-.236,2.835S303.133-106.323,408.026,489.66s61.735,910.095,61.735,910.095" transform="translate(156.679 -99.783)" fill="#fff"/>
              <path id="Trazado_949959" data-name="Trazado 949959" d="M268.728,870.87S317.991,309.239,0,0" transform="translate(573.292 -23.811)" fill="#fff"/>
            </g>
          </g>
        </g>
        <g id="Grupo_1101233" data-name="Grupo 1101233" transform="translate(278.871 49.124)">
          <path id="Trazado_949961" data-name="Trazado 949961" d="M818.369,160.778s42.247,589.9-730.206,300.3" transform="translate(840.739 0) rotate(43)" fill="none" stroke="#e8e8e8" stroke-linecap="round" stroke-linejoin="round" stroke-width="1"/>
          <path id="Trazado_949962" data-name="Trazado 949962" d="M198.652,365.045S-86.818,104.24,61.523,12.087" transform="translate(1219.714 887.496) rotate(43)" fill="none" stroke="#e8e8e8" stroke-linecap="round" stroke-linejoin="round" stroke-width="1"/>
          <path id="Trazado_949963" data-name="Trazado 949963" d="M837.889,520.473c-83.535-217.371-156.224-259.1-293.325-309S391.8,22.585,206.248,64.738,44.565,233.072,44.565,233.072" transform="translate(200.462 1115.852) rotate(43)" fill="none" stroke="#e8e8e8" stroke-linecap="round" stroke-linejoin="round" stroke-width="1"/>
          <path id="Trazado_949964" data-name="Trazado 949964" d="M272.281,264.789s96.762-97.041-9.524-193.555-240.608,44.6-240.608,44.6" transform="translate(240.433 1391.091) rotate(43)" fill="none" stroke="#e8e8e8" stroke-linecap="round" stroke-linejoin="round" stroke-width="1"/>
          <path id="Trazado_949965" data-name="Trazado 949965" d="M333.875,65.594C388.238,228.416,249.661,327.96,32.082,167.785" transform="translate(842.031 320.114) rotate(43)" fill="none" stroke="#e8e8e8" stroke-linecap="round" stroke-linejoin="round" stroke-width="1"/>
          <path id="Trazado_949966" data-name="Trazado 949966" d="M656.285,880.56c-54.189-29.238-109.247-79.29-135.232-131.415s-15.2-101.98,18.5-109.159c-51.559.457-103.6.865-160.786-10.913A458.534,458.534,0,0,1,199.55,548.882C141,505.525,88.729,441.975,74.174,386.187c-16.892-64.754,17.634-104.743,55.44-134.529,110.345-86.933,259.45-134.72,436.024-132.8,56.094.614,121.511,8.805,185.128,53.9,60.8,43.1,105.458,111.741,120.445,169.129s4.5,104.854-14.544,144.088-46.42,71.828-68.917,106.749c31.173,8.089,62.726,16.314,95.242,31.5s66.612,38.287,91.788,67.92c30.049,35.37,43.35,75.7,41.258,106.41S998.21,851.5,978.545,868.99c-40.586,36.09-99.078,54.435-168.2,52.748a338.29,338.29,0,0,1-85.833-13.181,345.539,345.539,0,0,1-68.229-28" transform="translate(799.247 246.561) rotate(43)" fill="none"/>
        </g>
      </g>
    </g>
    <g id="Grupo_1101237" data-name="Grupo 1101237" transform="translate(-26.801 -21.97)">
      <rect id="Rectángulo_4415" data-name="Rectángulo 4415" width="302.285" height="236.16" transform="translate(571 10520)" fill="#d8e9fb"/>
      <rect id="Rectángulo_4416" data-name="Rectángulo 4416" width="302.285" height="236.16" transform="translate(571 10756)" fill="#def7ec"/>
      <rect id="Rectángulo_4417" data-name="Rectángulo 4417" width="302.285" height="236.16" transform="translate(873 10520)" fill="#def7ec"/>
      <path id="Trazado_28144" data-name="Trazado 28144" d="M802.346,2144.94V1685.979l6.183,6.651,1.922-1.79-10.732-11.54-10.729,11.54,1.922,1.79,6.186-6.657v458.973l-6.186-6.657-1.922,1.79,10.729,11.541,10.732-11.541-1.922-1.79Z" transform="translate(-273.327 8840.417)" fill="#ff8e6b"/>
      <path id="Trazado_28145" data-name="Trazado 28145" d="M816.679,1671.186H1406.84l-6.651,6.183,1.79,1.922,11.54-10.732-11.54-10.729-1.79,1.922,6.657,6.187H816.673l6.657-6.187-1.79-1.922L810,1668.559l11.54,10.732,1.79-1.922Z" transform="translate(-239.207 8805.55)" fill="#ffd75e"/>
      <text id="Bajo" transform="translate(1138.625 10425.05)" fill="#00223d" font-size="16" font-family="SegoeUI-Bold, Segoe UI" font-weight="700"><tspan x="0" y="17">Bajo</tspan></text>
      <g id="Grupo_1101556" data-name="Grupo 1101556">
        <path id="Trazado_1007594" data-name="Trazado 1007594" d="M0,0H302.285V236.16H0Z" transform="translate(873 10756)" fill="#d8e9fb"/>
        <path id="Trazado_1007597" data-name="Trazado 1007597" d="M53.7,14.658V19H50.858V6.4h4.447q4.764,0,4.764,4.017A3.854,3.854,0,0,1,58.7,13.485a5.414,5.414,0,0,1-3.652,1.173Zm0-6.082V12.5h1.116q2.268,0,2.268-1.986,0-1.942-2.268-1.942ZM67.514,12.5a2.409,2.409,0,0,0-1.169-.272,1.684,1.684,0,0,0-1.415.664,2.9,2.9,0,0,0-.51,1.806V19H61.642V10H64.42v1.67h.035a2.4,2.4,0,0,1,2.373-1.828,1.788,1.788,0,0,1,.686.105Zm9.308,2.786H70.95q.141,1.96,2.47,1.96a4.822,4.822,0,0,0,2.61-.7v2a6.858,6.858,0,0,1-3.243.668A4.565,4.565,0,0,1,69.4,18.011a4.566,4.566,0,0,1-1.2-3.371,4.816,4.816,0,0,1,1.3-3.551,4.334,4.334,0,0,1,3.2-1.31,3.933,3.933,0,0,1,3.045,1.169,4.5,4.5,0,0,1,1.077,3.173Zm-2.575-1.705q0-1.934-1.564-1.934a1.494,1.494,0,0,0-1.156.554,2.513,2.513,0,0,0-.593,1.38ZM92.765,19H90V13.867q0-1.96-1.441-1.96a1.324,1.324,0,0,0-1.116.589,2.42,2.42,0,0,0-.431,1.468V19H84.23V13.814q0-1.907-1.415-1.907a1.356,1.356,0,0,0-1.138.563A2.475,2.475,0,0,0,81.251,14v5H78.474V10h2.777v1.406h.035A3.41,3.41,0,0,1,84.2,9.78a2.592,2.592,0,0,1,2.61,1.679A3.329,3.329,0,0,1,89.829,9.78q2.936,0,2.936,3.621Zm3.6-10.424a1.622,1.622,0,0,1-1.151-.417,1.345,1.345,0,0,1-.448-1.024,1.3,1.3,0,0,1,.448-1.02,1.88,1.88,0,0,1,2.307,0,1.3,1.3,0,0,1,.444,1.02,1.34,1.34,0,0,1-.444,1.037A1.65,1.65,0,0,1,96.368,8.576ZM97.739,19H94.962V10h2.777Zm10.89,0H105.86V17.629h-.044a3.141,3.141,0,0,1-2.751,1.591q-3.129,0-3.129-3.788V10H102.7v5.186q0,1.907,1.512,1.907a1.5,1.5,0,0,0,1.2-.523,2.109,2.109,0,0,0,.448-1.419V10h2.769Zm16.629,0h-2.769V13.867q0-1.96-1.441-1.96a1.324,1.324,0,0,0-1.116.589,2.42,2.42,0,0,0-.431,1.468V19h-2.777V13.814q0-1.907-1.415-1.907a1.356,1.356,0,0,0-1.138.563A2.475,2.475,0,0,0,113.744,14v5h-2.777V10h2.777v1.406h.035a3.41,3.41,0,0,1,2.909-1.626,2.592,2.592,0,0,1,2.61,1.679,3.329,3.329,0,0,1,3.023-1.679q2.936,0,2.936,3.621Z" transform="translate(634 10630)" fill="#00223d"/>
        <path id="Trazado_1007589" data-name="Trazado 1007589" d="M11.133,17H8.383l-.8-2.492H3.6L2.813,17H.078L4.156,5.8H7.148ZM7.008,12.57,5.8,8.8A4.907,4.907,0,0,1,5.617,7.8H5.555a4.273,4.273,0,0,1-.2.977l-1.219,3.8ZM14.758,17H12.289V5.156h2.469Zm6.914-.094a3.649,3.649,0,0,1-1.648.289q-2.609,0-2.609-2.711V10.82h-1.3V9h1.3V7.273l2.461-.7V9h1.8v1.82h-1.8v3.234q0,1.25.992,1.25a1.673,1.673,0,0,0,.8-.227Zm5.141.289a4.3,4.3,0,0,1-3.145-1.121,4.064,4.064,0,0,1-1.145-3.043,4.065,4.065,0,0,1,1.188-3.105A4.487,4.487,0,0,1,26.922,8.8a4.249,4.249,0,0,1,3.125,1.121,3.985,3.985,0,0,1,1.133,2.965,4.23,4.23,0,0,1-1.168,3.148A4.348,4.348,0,0,1,26.813,17.2Zm.063-6.5a1.647,1.647,0,0,0-1.359.6,2.653,2.653,0,0,0-.484,1.7q0,2.3,1.859,2.3,1.773,0,1.773-2.367Q28.664,10.7,26.875,10.7Z" transform="translate(535.842 10425.05)" fill="#00223d"/>
        <path id="Trazado_1007590" data-name="Trazado 1007590" d="M11.133,17H8.383l-.8-2.492H3.6L2.813,17H.078L4.156,5.8H7.148ZM7.008,12.57,5.8,8.8A4.907,4.907,0,0,1,5.617,7.8H5.555a4.273,4.273,0,0,1-.2.977l-1.219,3.8ZM14.758,17H12.289V5.156h2.469Zm6.914-.094a3.649,3.649,0,0,1-1.648.289q-2.609,0-2.609-2.711V10.82h-1.3V9h1.3V7.273l2.461-.7V9h1.8v1.82h-1.8v3.234q0,1.25.992,1.25a1.673,1.673,0,0,0,.8-.227ZM29.719,17H27.383V15.852h-.031A2.607,2.607,0,0,1,24.969,17.2a2.492,2.492,0,0,1-1.832-.66,2.366,2.366,0,0,1-.668-1.762q0-2.328,2.758-2.687L27.4,11.8q0-1.312-1.422-1.312a4.853,4.853,0,0,0-2.719.852V9.477a6.116,6.116,0,0,1,1.41-.469A7.413,7.413,0,0,1,26.3,8.8q3.422,0,3.422,3.414ZM27.4,13.75v-.539l-1.453.188q-1.2.156-1.2,1.086a.9.9,0,0,0,.293.691,1.126,1.126,0,0,0,.793.27,1.462,1.462,0,0,0,1.133-.48A1.735,1.735,0,0,0,27.4,13.75Z" transform="translate(418.272 10495.932)" fill="#00223d"/>
        <path id="Trazado_1007592" data-name="Trazado 1007592" d="M1.281,17V5.8H5.359a5.093,5.093,0,0,1,2.883.688A2.211,2.211,0,0,1,9.25,8.422a2.293,2.293,0,0,1-.613,1.586,3.222,3.222,0,0,1-1.566.945v.031a3.1,3.1,0,0,1,1.91.883A2.469,2.469,0,0,1,9.7,13.656a2.99,2.99,0,0,1-1.1,2.441,4.61,4.61,0,0,1-3.008.9ZM3.8,7.656v2.656H4.914a1.849,1.849,0,0,0,1.23-.379,1.291,1.291,0,0,0,.449-1.043q0-1.234-1.844-1.234Zm0,4.531v2.953H5.172a2.1,2.1,0,0,0,1.371-.406,1.357,1.357,0,0,0,.5-1.109,1.266,1.266,0,0,0-.488-1.055,2.16,2.16,0,0,0-1.363-.383ZM17.953,17H15.617V15.852h-.031A2.607,2.607,0,0,1,13.2,17.2a2.492,2.492,0,0,1-1.832-.66,2.366,2.366,0,0,1-.668-1.762q0-2.328,2.758-2.687l2.172-.289q0-1.312-1.422-1.312a4.853,4.853,0,0,0-2.719.852V9.477a6.116,6.116,0,0,1,1.41-.469,7.413,7.413,0,0,1,1.629-.2q3.422,0,3.422,3.414Zm-2.32-3.25v-.539L14.18,13.4q-1.2.156-1.2,1.086a.9.9,0,0,0,.293.691,1.126,1.126,0,0,0,.793.27,1.462,1.462,0,0,0,1.133-.48A1.735,1.735,0,0,0,15.633,13.75Zm5.523-6.016a1.442,1.442,0,0,1-1.023-.371,1.2,1.2,0,0,1-.4-.91,1.153,1.153,0,0,1,.4-.906,1.671,1.671,0,0,1,2.051,0,1.158,1.158,0,0,1,.395.906,1.191,1.191,0,0,1-.395.922A1.466,1.466,0,0,1,21.156,7.734Zm1.219,9.125a4.349,4.349,0,0,1-.867,2.836,3.041,3.041,0,0,1-2.5,1.063,3.457,3.457,0,0,1-1.18-.234V18.586a1.923,1.923,0,0,0,.914.289q1.164,0,1.164-1.828V9h2.469ZM31.109,17H28.773V15.852h-.031A2.607,2.607,0,0,1,26.359,17.2a2.492,2.492,0,0,1-1.832-.66,2.366,2.366,0,0,1-.668-1.762q0-2.328,2.758-2.687l2.172-.289q0-1.312-1.422-1.312a4.853,4.853,0,0,0-2.719.852V9.477a6.116,6.116,0,0,1,1.41-.469,7.413,7.413,0,0,1,1.629-.2q3.422,0,3.422,3.414Zm-2.32-3.25v-.539l-1.453.188q-1.2.156-1.2,1.086a.9.9,0,0,0,.293.691,1.126,1.126,0,0,0,.793.27,1.462,1.462,0,0,0,1.133-.48A1.735,1.735,0,0,0,28.789,13.75Z" transform="translate(416.801 10959.694)" fill="#00223d"/>
        <path id="Trazado_1007591" data-name="Trazado 1007591" d="M10.238,16.6a7.388,7.388,0,0,1-3.2.594A5.4,5.4,0,0,1,2.98,15.68,5.54,5.54,0,0,1,1.5,11.641a5.919,5.919,0,0,1,1.66-4.359A5.807,5.807,0,0,1,7.473,5.609a8.058,8.058,0,0,1,2.766.414v2.43a4.9,4.9,0,0,0-2.563-.672,3.4,3.4,0,0,0-2.547.992,3.682,3.682,0,0,0-.969,2.688,3.611,3.611,0,0,0,.914,2.59,3.229,3.229,0,0,0,2.461.965,5.249,5.249,0,0,0,2.7-.719Zm8.367.4H16.269V15.852h-.031A2.607,2.607,0,0,1,13.855,17.2a2.492,2.492,0,0,1-1.832-.66,2.366,2.366,0,0,1-.668-1.762q0-2.328,2.758-2.687l2.172-.289q0-1.312-1.422-1.312a4.853,4.853,0,0,0-2.719.852V9.477a6.116,6.116,0,0,1,1.41-.469,7.413,7.413,0,0,1,1.629-.2q3.422,0,3.422,3.414Zm-2.32-3.25v-.539l-1.453.188q-1.2.156-1.2,1.086a.9.9,0,0,0,.293.691,1.126,1.126,0,0,0,.793.27,1.462,1.462,0,0,0,1.133-.48A1.735,1.735,0,0,0,16.285,13.75ZM23.027,17H20.559V5.156h2.469Zm3.328-9.266a1.442,1.442,0,0,1-1.023-.371,1.2,1.2,0,0,1-.4-.91,1.153,1.153,0,0,1,.4-.906,1.671,1.671,0,0,1,2.051,0,1.158,1.158,0,0,1,.395.906,1.191,1.191,0,0,1-.395.922A1.466,1.466,0,0,1,26.355,7.734ZM27.574,17H25.105V9h2.469Zm9.906,0H35.012V15.9H34.98A2.768,2.768,0,0,1,32.5,17.2a3.033,3.033,0,0,1-2.414-1.059,4.382,4.382,0,0,1-.914-2.957A4.77,4.77,0,0,1,30.184,10a3.287,3.287,0,0,1,2.641-1.2A2.246,2.246,0,0,1,34.98,9.914h.031V5.156H37.48Zm-2.422-3.891v-.6a1.893,1.893,0,0,0-.453-1.3,1.6,1.6,0,0,0-2.461.129,2.993,2.993,0,0,0-.461,1.77,2.59,2.59,0,0,0,.445,1.625,1.581,1.581,0,0,0,2.457-.031A2.507,2.507,0,0,0,35.059,13.109ZM46.215,17H43.879V15.852h-.031A2.607,2.607,0,0,1,41.465,17.2a2.492,2.492,0,0,1-1.832-.66,2.366,2.366,0,0,1-.668-1.762q0-2.328,2.758-2.687l2.172-.289q0-1.312-1.422-1.312a4.853,4.853,0,0,0-2.719.852V9.477a6.116,6.116,0,0,1,1.41-.469,7.413,7.413,0,0,1,1.629-.2q3.422,0,3.422,3.414Zm-2.32-3.25v-.539l-1.453.188q-1.2.156-1.2,1.086a.9.9,0,0,0,.293.691,1.126,1.126,0,0,0,.793.27,1.462,1.462,0,0,0,1.133-.48A1.735,1.735,0,0,0,43.894,13.75ZM56,17H53.527V15.9H53.5a2.768,2.768,0,0,1-2.477,1.3,3.033,3.033,0,0,1-2.414-1.059,4.382,4.382,0,0,1-.914-2.957A4.77,4.77,0,0,1,48.7,10,3.287,3.287,0,0,1,51.34,8.8,2.246,2.246,0,0,1,53.5,9.914h.031V5.156H56Zm-2.422-3.891v-.6a1.893,1.893,0,0,0-.453-1.3,1.6,1.6,0,0,0-2.461.129,2.993,2.993,0,0,0-.461,1.77,2.59,2.59,0,0,0,.445,1.625A1.581,1.581,0,0,0,53.1,14.7,2.507,2.507,0,0,0,53.574,13.109Z" transform="translate(431.141 10729.39)" fill="#00223d"/>
        <path id="Trazado_1007598" data-name="Trazado 1007598" d="M3.8,13.141V17H1.281V5.8H5.234q4.234,0,4.234,3.57A3.426,3.426,0,0,1,8.254,12.1a4.813,4.813,0,0,1-3.246,1.043Zm0-5.406v3.492H4.8q2.016,0,2.016-1.766,0-1.727-2.016-1.727Zm12.281,3.492a2.142,2.142,0,0,0-1.039-.242,1.5,1.5,0,0,0-1.258.59,2.573,2.573,0,0,0-.453,1.605V17H10.867V9h2.469v1.484h.031a2.136,2.136,0,0,1,2.109-1.625,1.59,1.59,0,0,1,.609.094ZM24.359,13.7H19.141q.125,1.742,2.2,1.742a4.286,4.286,0,0,0,2.32-.625V16.6a6.1,6.1,0,0,1-2.883.594,4.058,4.058,0,0,1-3.008-1.074,4.058,4.058,0,0,1-1.07-3,4.281,4.281,0,0,1,1.156-3.156A3.852,3.852,0,0,1,20.7,8.8,3.5,3.5,0,0,1,23.4,9.844a4,4,0,0,1,.957,2.82ZM22.07,12.188q0-1.719-1.391-1.719a1.328,1.328,0,0,0-1.027.492,2.234,2.234,0,0,0-.527,1.227Zm9.82,4.523a4.881,4.881,0,0,1-2.414.484,4.083,4.083,0,0,1-2.984-1.117A3.859,3.859,0,0,1,25.352,13.2,4.251,4.251,0,0,1,26.574,9.98,4.518,4.518,0,0,1,29.844,8.8a4.2,4.2,0,0,1,2.047.375v2.094a2.814,2.814,0,0,0-1.727-.578,2.275,2.275,0,0,0-1.684.621,2.317,2.317,0,0,0-.621,1.715,2.28,2.28,0,0,0,.594,1.668,2.182,2.182,0,0,0,1.633.605,3.258,3.258,0,0,0,1.8-.578Zm2.867-8.977a1.442,1.442,0,0,1-1.023-.371,1.2,1.2,0,0,1-.4-.91,1.153,1.153,0,0,1,.4-.906,1.671,1.671,0,0,1,2.051,0,1.158,1.158,0,0,1,.395.906,1.191,1.191,0,0,1-.395.922A1.466,1.466,0,0,1,34.758,7.734ZM35.977,17H33.508V9h2.469Zm5.891.2a4.3,4.3,0,0,1-3.145-1.121,4.064,4.064,0,0,1-1.145-3.043,4.065,4.065,0,0,1,1.188-3.105A4.487,4.487,0,0,1,41.977,8.8,4.249,4.249,0,0,1,45.1,9.926a3.985,3.985,0,0,1,1.133,2.965,4.23,4.23,0,0,1-1.168,3.148A4.348,4.348,0,0,1,41.867,17.2Zm.063-6.5a1.647,1.647,0,0,0-1.359.6,2.653,2.653,0,0,0-.484,1.7q0,2.3,1.859,2.3,1.773,0,1.773-2.367Q43.719,10.7,41.93,10.7Z" transform="translate(806.953 10426)" fill="#00223d"/>
        <path id="Trazado_1007593" data-name="Trazado 1007593" d="M70.362,19H67.5L62.3,11.081a11.451,11.451,0,0,1-.633-1.046h-.035q.07.668.07,2.039V19H59.024V6.4h3.059l5,7.673q.343.519.633,1.028h.035a13.476,13.476,0,0,1-.07-1.731V6.4h2.681Zm6.9.22a4.838,4.838,0,0,1-3.538-1.261,4.573,4.573,0,0,1-1.288-3.423,4.573,4.573,0,0,1,1.336-3.494A5.048,5.048,0,0,1,77.385,9.78,4.78,4.78,0,0,1,80.9,11.042a4.483,4.483,0,0,1,1.274,3.335,4.759,4.759,0,0,1-1.314,3.542A4.892,4.892,0,0,1,77.262,19.22Zm.07-7.312a1.852,1.852,0,0,0-1.529.677,2.984,2.984,0,0,0-.545,1.916q0,2.593,2.092,2.593,2,0,2-2.663Q79.345,11.907,77.332,11.907Zm18.431,6.768a5.492,5.492,0,0,1-2.716.545,4.593,4.593,0,0,1-3.357-1.257,4.341,4.341,0,0,1-1.283-3.243A4.782,4.782,0,0,1,89.782,11.1,5.083,5.083,0,0,1,93.46,9.78a4.72,4.72,0,0,1,2.3.422v2.355a3.166,3.166,0,0,0-1.942-.65,2.559,2.559,0,0,0-1.894.7,2.607,2.607,0,0,0-.7,1.929,2.565,2.565,0,0,0,.668,1.876,2.455,2.455,0,0,0,1.837.681,3.666,3.666,0,0,0,2.03-.65Zm6.108.545a4.838,4.838,0,0,1-3.538-1.261,4.573,4.573,0,0,1-1.288-3.423,4.573,4.573,0,0,1,1.336-3.494,5.048,5.048,0,0,1,3.612-1.261,4.78,4.78,0,0,1,3.516,1.261,4.483,4.483,0,0,1,1.274,3.335,4.759,4.759,0,0,1-1.314,3.542A4.892,4.892,0,0,1,101.871,19.22Zm.07-7.312a1.852,1.852,0,0,0-1.529.677,2.984,2.984,0,0,0-.545,1.916q0,2.593,2.092,2.593,2,0,2-2.663Q103.954,11.907,101.941,11.907ZM122.877,19h-2.769V13.867q0-1.96-1.441-1.96a1.324,1.324,0,0,0-1.116.589,2.42,2.42,0,0,0-.431,1.468V19h-2.777V13.814q0-1.907-1.415-1.907a1.356,1.356,0,0,0-1.138.563A2.475,2.475,0,0,0,111.363,14v5h-2.777V10h2.777v1.406h.035a3.41,3.41,0,0,1,2.909-1.626,2.592,2.592,0,0,1,2.61,1.679,3.329,3.329,0,0,1,3.023-1.679q2.936,0,2.936,3.621Zm5.01-1.046h-.035V23.14h-2.777V10h2.777v1.354h.035a3.534,3.534,0,0,1,5.594-.374,5.108,5.108,0,0,1,.954,3.265,5.537,5.537,0,0,1-1.112,3.612,3.625,3.625,0,0,1-2.958,1.362A2.8,2.8,0,0,1,127.887,17.954Zm-.079-3.691v.721A2.291,2.291,0,0,0,128.3,16.5a1.6,1.6,0,0,0,1.292.589,1.7,1.7,0,0,0,1.472-.734,3.544,3.544,0,0,0,.523-2.079q0-2.373-1.846-2.373a1.733,1.733,0,0,0-1.393.646A2.576,2.576,0,0,0,127.807,14.263Zm16.515,1.028h-5.871q.141,1.96,2.47,1.96a4.822,4.822,0,0,0,2.61-.7v2a6.858,6.858,0,0,1-3.243.668,4.565,4.565,0,0,1-3.384-1.208,4.566,4.566,0,0,1-1.2-3.371A4.816,4.816,0,0,1,137,11.09a4.334,4.334,0,0,1,3.2-1.31,3.933,3.933,0,0,1,3.045,1.169,4.5,4.5,0,0,1,1.077,3.173Zm-2.575-1.705q0-1.934-1.564-1.934a1.494,1.494,0,0,0-1.156.554,2.513,2.513,0,0,0-.593,1.38Zm9.668,5.309a4.105,4.105,0,0,1-1.854.325q-2.936,0-2.936-3.05V12.048h-1.459V10h1.459V8.058l2.769-.791V10h2.021v2.048h-2.021v3.639q0,1.406,1.116,1.406a1.882,1.882,0,0,0,.905-.255Zm2.971-10.318a1.622,1.622,0,0,1-1.151-.417,1.345,1.345,0,0,1-.448-1.024,1.3,1.3,0,0,1,.448-1.02,1.88,1.88,0,0,1,2.307,0,1.3,1.3,0,0,1,.444,1.02,1.34,1.34,0,0,1-.444,1.037A1.65,1.65,0,0,1,154.386,8.576ZM155.757,19h-2.777V10h2.777Zm7.778-.105a4.105,4.105,0,0,1-1.854.325q-2.936,0-2.936-3.05V12.048h-1.459V10h1.459V8.058l2.769-.791V10h2.021v2.048h-2.021v3.639q0,1.406,1.116,1.406a1.882,1.882,0,0,0,.905-.255Zm2.971-10.318a1.622,1.622,0,0,1-1.151-.417,1.345,1.345,0,0,1-.448-1.024,1.3,1.3,0,0,1,.448-1.02,1.88,1.88,0,0,1,2.307,0,1.3,1.3,0,0,1,.444,1.02,1.34,1.34,0,0,1-.444,1.037A1.65,1.65,0,0,1,166.506,8.576ZM167.877,19H165.1V10h2.777Zm10.907-9-3.349,9h-3.164l-3.19-9h2.971l1.564,5.546a8.1,8.1,0,0,1,.308,1.6h.035a9.078,9.078,0,0,1,.325-1.547l1.6-5.6Zm8.4,9h-2.628V17.708h-.035a2.933,2.933,0,0,1-2.681,1.512,2.8,2.8,0,0,1-2.061-.743,2.661,2.661,0,0,1-.751-1.982q0-2.619,3.1-3.023l2.443-.325q0-1.477-1.6-1.477a5.46,5.46,0,0,0-3.059.958V10.536a6.881,6.881,0,0,1,1.586-.527,8.339,8.339,0,0,1,1.833-.229q3.85,0,3.85,3.841Zm-2.61-3.656v-.606l-1.635.211q-1.354.176-1.354,1.222a1.01,1.01,0,0,0,.33.778,1.266,1.266,0,0,0,.892.3,1.644,1.644,0,0,0,1.274-.541A1.952,1.952,0,0,0,184.576,15.344Z" transform="translate(606.801 10855)" fill="#00223d"/>
        <path id="Trazado_1007596" data-name="Trazado 1007596" d="M25.261,19H22.168l-.9-2.8H16.789L15.9,19H12.825L17.413,6.4h3.366Zm-4.641-4.983L19.267,9.78a5.521,5.521,0,0,1-.211-1.134h-.07a4.807,4.807,0,0,1-.22,1.1L17.4,14.017ZM35.369,19H32.591V17.761h-.035A3.114,3.114,0,0,1,29.77,19.22a3.412,3.412,0,0,1-2.716-1.191A4.93,4.93,0,0,1,26.026,14.7a5.366,5.366,0,0,1,1.134-3.577A3.7,3.7,0,0,1,30.131,9.78a2.527,2.527,0,0,1,2.426,1.248h.035V5.676h2.777Zm-2.725-4.377v-.677a2.13,2.13,0,0,0-.51-1.459,1.8,1.8,0,0,0-2.769.145,3.367,3.367,0,0,0-.519,1.991,2.914,2.914,0,0,0,.5,1.828,1.779,1.779,0,0,0,2.764-.035A2.821,2.821,0,0,0,32.644,14.623Zm13.148.668H39.922q.141,1.96,2.47,1.96a4.822,4.822,0,0,0,2.61-.7v2a6.858,6.858,0,0,1-3.243.668,4.565,4.565,0,0,1-3.384-1.208,4.566,4.566,0,0,1-1.2-3.371,4.816,4.816,0,0,1,1.3-3.551,4.334,4.334,0,0,1,3.2-1.31,3.933,3.933,0,0,1,3.045,1.169,4.5,4.5,0,0,1,1.077,3.173Zm-2.575-1.705q0-1.934-1.564-1.934a1.494,1.494,0,0,0-1.156.554,2.513,2.513,0,0,0-.593,1.38Zm11.048,5.089a5.492,5.492,0,0,1-2.716.545,4.593,4.593,0,0,1-3.357-1.257,4.341,4.341,0,0,1-1.283-3.243A4.782,4.782,0,0,1,48.284,11.1,5.083,5.083,0,0,1,51.963,9.78a4.72,4.72,0,0,1,2.3.422v2.355a3.166,3.166,0,0,0-1.942-.65,2.559,2.559,0,0,0-1.894.7,2.607,2.607,0,0,0-.7,1.929,2.565,2.565,0,0,0,.668,1.876,2.455,2.455,0,0,0,1.837.681,3.666,3.666,0,0,0,2.03-.65ZM64.636,19H61.868V17.629h-.044a3.141,3.141,0,0,1-2.751,1.591q-3.129,0-3.129-3.788V10h2.769v5.186q0,1.907,1.512,1.907a1.5,1.5,0,0,0,1.2-.523,2.109,2.109,0,0,0,.448-1.419V10h2.769Zm9.826,0H71.835V17.708H71.8a2.933,2.933,0,0,1-2.681,1.512,2.8,2.8,0,0,1-2.061-.743,2.661,2.661,0,0,1-.751-1.982q0-2.619,3.1-3.023l2.443-.325q0-1.477-1.6-1.477a5.46,5.46,0,0,0-3.059.958V10.536a6.881,6.881,0,0,1,1.586-.527,8.339,8.339,0,0,1,1.833-.229q3.85,0,3.85,3.841Zm-2.61-3.656v-.606l-1.635.211q-1.354.176-1.354,1.222a1.01,1.01,0,0,0,.33.778,1.266,1.266,0,0,0,.892.3,1.644,1.644,0,0,0,1.274-.541A1.952,1.952,0,0,0,71.852,15.344ZM85.466,19H82.689V17.761h-.035a3.114,3.114,0,0,1-2.786,1.459,3.412,3.412,0,0,1-2.716-1.191A4.93,4.93,0,0,1,76.124,14.7a5.366,5.366,0,0,1,1.134-3.577A3.7,3.7,0,0,1,80.228,9.78a2.527,2.527,0,0,1,2.426,1.248h.035V5.676h2.777Zm-2.725-4.377v-.677a2.13,2.13,0,0,0-.51-1.459,1.8,1.8,0,0,0-2.769.145,3.367,3.367,0,0,0-.519,1.991,2.914,2.914,0,0,0,.5,1.828,1.779,1.779,0,0,0,2.764-.035A2.821,2.821,0,0,0,82.742,14.623ZM95.293,19H92.665V17.708H92.63a2.933,2.933,0,0,1-2.681,1.512,2.8,2.8,0,0,1-2.061-.743,2.661,2.661,0,0,1-.751-1.982q0-2.619,3.1-3.023l2.443-.325q0-1.477-1.6-1.477a5.46,5.46,0,0,0-3.059.958V10.536a6.881,6.881,0,0,1,1.586-.527,8.339,8.339,0,0,1,1.833-.229q3.85,0,3.85,3.841Zm-2.61-3.656v-.606l-1.635.211q-1.354.176-1.354,1.222a1.01,1.01,0,0,0,.33.778,1.266,1.266,0,0,0,.892.3,1.644,1.644,0,0,0,1.274-.541A1.952,1.952,0,0,0,92.682,15.344ZM28.5,44.658V49H25.657V36.4H30.1q4.764,0,4.764,4.017A3.854,3.854,0,0,1,33.5,43.485a5.414,5.414,0,0,1-3.652,1.173Zm0-6.082V42.5h1.116q2.268,0,2.268-1.986,0-1.942-2.268-1.942ZM42.312,42.5a2.409,2.409,0,0,0-1.169-.272,1.684,1.684,0,0,0-1.415.664,2.9,2.9,0,0,0-.51,1.806V49H36.441V40h2.777v1.67h.035a2.4,2.4,0,0,1,2.373-1.828,1.788,1.788,0,0,1,.686.105Zm9.308,2.786H45.749q.141,1.96,2.47,1.96a4.822,4.822,0,0,0,2.61-.7v2a6.858,6.858,0,0,1-3.243.668A4.189,4.189,0,0,1,43,44.641a4.816,4.816,0,0,1,1.3-3.551,4.334,4.334,0,0,1,3.2-1.31,3.933,3.933,0,0,1,3.045,1.169,4.5,4.5,0,0,1,1.077,3.173Zm-2.575-1.705q0-1.934-1.564-1.934a1.494,1.494,0,0,0-1.156.554,2.513,2.513,0,0,0-.593,1.38Zm11.048,5.089a5.492,5.492,0,0,1-2.716.545,4.593,4.593,0,0,1-3.357-1.257,4.341,4.341,0,0,1-1.283-3.243A4.782,4.782,0,0,1,54.111,41.1,5.083,5.083,0,0,1,57.79,39.78a4.72,4.72,0,0,1,2.3.422v2.355a3.166,3.166,0,0,0-1.942-.65,2.559,2.559,0,0,0-1.894.7,2.607,2.607,0,0,0-.7,1.929,2.565,2.565,0,0,0,.668,1.876,2.455,2.455,0,0,0,1.837.681,3.666,3.666,0,0,0,2.03-.65Zm3.226-10.1a1.622,1.622,0,0,1-1.151-.417,1.345,1.345,0,0,1-.448-1.024,1.3,1.3,0,0,1,.448-1.02,1.88,1.88,0,0,1,2.307,0,1.3,1.3,0,0,1,.444,1.02,1.34,1.34,0,0,1-.444,1.037A1.65,1.65,0,0,1,63.318,38.576ZM64.689,49H61.912V40h2.777Zm6.627.22a4.838,4.838,0,0,1-3.538-1.261,4.573,4.573,0,0,1-1.288-3.423,4.573,4.573,0,0,1,1.336-3.494,5.048,5.048,0,0,1,3.612-1.261,4.78,4.78,0,0,1,3.516,1.261,4.483,4.483,0,0,1,1.274,3.335,4.759,4.759,0,0,1-1.314,3.542A4.892,4.892,0,0,1,71.316,49.22Zm.07-7.312a1.852,1.852,0,0,0-1.529.677,2.984,2.984,0,0,0-.545,1.916q0,2.593,2.092,2.593,2,0,2-2.663Q73.4,41.907,71.386,41.907ZM85.053,36.4l-6.144,14.7H76.431l6.117-14.7ZM33.444,78.552a8.311,8.311,0,0,1-3.6.668,6.074,6.074,0,0,1-4.562-1.705,6.233,6.233,0,0,1-1.661-4.544,6.659,6.659,0,0,1,1.868-4.9,6.533,6.533,0,0,1,4.847-1.881,9.065,9.065,0,0,1,3.111.466v2.733a5.513,5.513,0,0,0-2.883-.756A3.824,3.824,0,0,0,27.7,69.745a4.142,4.142,0,0,0-1.09,3.023,4.062,4.062,0,0,0,1.028,2.914A3.633,3.633,0,0,0,30.4,76.768a5.905,5.905,0,0,0,3.041-.809ZM42.857,79H40.229V77.708h-.035a2.933,2.933,0,0,1-2.681,1.512,2.8,2.8,0,0,1-2.061-.743A2.661,2.661,0,0,1,34.7,76.5q0-2.619,3.1-3.023l2.443-.325q0-1.477-1.6-1.477a5.46,5.46,0,0,0-3.059.958V70.536a6.881,6.881,0,0,1,1.586-.527,8.339,8.339,0,0,1,1.833-.229q3.85,0,3.85,3.841Zm-2.61-3.656v-.606l-1.635.211q-1.354.176-1.354,1.222a1.01,1.01,0,0,0,.33.778,1.266,1.266,0,0,0,.892.3,1.644,1.644,0,0,0,1.274-.541A1.952,1.952,0,0,0,40.247,75.344ZM47.832,79H45.054V65.676h2.777Zm3.744-10.424a1.622,1.622,0,0,1-1.151-.417,1.345,1.345,0,0,1-.448-1.024,1.3,1.3,0,0,1,.448-1.02,1.88,1.88,0,0,1,2.307,0,1.3,1.3,0,0,1,.444,1.02,1.34,1.34,0,0,1-.444,1.037A1.65,1.65,0,0,1,51.576,68.576ZM52.947,79H50.17V70h2.777Zm11.145,0H61.314V77.761h-.035a3.114,3.114,0,0,1-2.786,1.459,3.412,3.412,0,0,1-2.716-1.191A4.93,4.93,0,0,1,54.749,74.7a5.366,5.366,0,0,1,1.134-3.577,3.7,3.7,0,0,1,2.971-1.345,2.527,2.527,0,0,1,2.426,1.248h.035V65.676h2.777Zm-2.725-4.377v-.677a2.13,2.13,0,0,0-.51-1.459,1.8,1.8,0,0,0-2.769.145,3.367,3.367,0,0,0-.519,1.991,2.914,2.914,0,0,0,.5,1.828,1.779,1.779,0,0,0,2.764-.035A2.821,2.821,0,0,0,61.367,74.623ZM73.918,79H71.29V77.708h-.035a2.933,2.933,0,0,1-2.681,1.512,2.8,2.8,0,0,1-2.061-.743,2.661,2.661,0,0,1-.751-1.982q0-2.619,3.1-3.023l2.443-.325q0-1.477-1.6-1.477a5.46,5.46,0,0,0-3.059.958V70.536a6.881,6.881,0,0,1,1.586-.527,8.339,8.339,0,0,1,1.833-.229q3.85,0,3.85,3.841Zm-2.61-3.656v-.606l-1.635.211q-1.354.176-1.354,1.222a1.01,1.01,0,0,0,.33.778,1.266,1.266,0,0,0,.892.3,1.644,1.644,0,0,0,1.274-.541A1.952,1.952,0,0,0,71.307,75.344ZM84.922,79H82.144V77.761h-.035a3.114,3.114,0,0,1-2.786,1.459,3.412,3.412,0,0,1-2.716-1.191A4.93,4.93,0,0,1,75.579,74.7a5.366,5.366,0,0,1,1.134-3.577,3.7,3.7,0,0,1,2.971-1.345,2.527,2.527,0,0,1,2.426,1.248h.035V65.676h2.777ZM82.2,74.623v-.677a2.13,2.13,0,0,0-.51-1.459,1.8,1.8,0,0,0-2.769.145,3.367,3.367,0,0,0-.519,1.991,2.914,2.914,0,0,0,.5,1.828,1.779,1.779,0,0,0,2.764-.035A2.821,2.821,0,0,0,82.2,74.623Z" transform="translate(970 10622)" fill="#00223d"/>
        <path id="Trazado_1007595" data-name="Trazado 1007595" d="M18.01,19H10.452V6.4H17.72V8.708h-4.43v2.8h4.122v2.3H13.291V16.7h4.72Zm8.569-.325a5.492,5.492,0,0,1-2.716.545,4.593,4.593,0,0,1-3.357-1.257,4.341,4.341,0,0,1-1.283-3.243A4.782,4.782,0,0,1,20.6,11.1,5.083,5.083,0,0,1,24.277,9.78a4.72,4.72,0,0,1,2.3.422v2.355a3.166,3.166,0,0,0-1.942-.65,2.559,2.559,0,0,0-1.894.7,2.607,2.607,0,0,0-.7,1.929,2.565,2.565,0,0,0,.668,1.876,2.455,2.455,0,0,0,1.837.681,3.666,3.666,0,0,0,2.03-.65Zm6.108.545a4.838,4.838,0,0,1-3.538-1.261,4.573,4.573,0,0,1-1.288-3.423A4.573,4.573,0,0,1,29.2,11.042,5.048,5.048,0,0,1,32.811,9.78a4.78,4.78,0,0,1,3.516,1.261A4.483,4.483,0,0,1,37.6,14.377a4.759,4.759,0,0,1-1.314,3.542A4.892,4.892,0,0,1,32.688,19.22Zm.07-7.312a1.852,1.852,0,0,0-1.529.677,2.984,2.984,0,0,0-.545,1.916q0,2.593,2.092,2.593,2,0,2-2.663Q34.771,11.907,32.759,11.907ZM48.1,19H45.327V14q0-2.092-1.494-2.092a1.483,1.483,0,0,0-1.187.554,2.109,2.109,0,0,0-.466,1.406V19H39.4V10H42.18v1.424h.035A3.183,3.183,0,0,1,45.107,9.78q2.988,0,2.988,3.709Zm6.486.22a4.838,4.838,0,0,1-3.538-1.261,4.573,4.573,0,0,1-1.288-3.423,4.573,4.573,0,0,1,1.336-3.494A5.048,5.048,0,0,1,54.7,9.78a4.78,4.78,0,0,1,3.516,1.261,4.483,4.483,0,0,1,1.274,3.335,4.759,4.759,0,0,1-1.314,3.542A4.892,4.892,0,0,1,54.582,19.22Zm.07-7.312a1.852,1.852,0,0,0-1.529.677,2.984,2.984,0,0,0-.545,1.916q0,2.593,2.092,2.593,2,0,2-2.663Q56.665,11.907,54.652,11.907Zm2.979-6.17L54.881,8.576h-2l2.285-2.839ZM75.579,19H72.81V13.867q0-1.96-1.441-1.96a1.324,1.324,0,0,0-1.116.589,2.42,2.42,0,0,0-.431,1.468V19H67.045V13.814q0-1.907-1.415-1.907a1.356,1.356,0,0,0-1.138.563A2.475,2.475,0,0,0,64.065,14v5H61.288V10h2.777v1.406H64.1A3.41,3.41,0,0,1,67.01,9.78a2.592,2.592,0,0,1,2.61,1.679A3.329,3.329,0,0,1,72.643,9.78q2.936,0,2.936,3.621Zm3.6-10.424a1.622,1.622,0,0,1-1.151-.417,1.345,1.345,0,0,1-.448-1.024,1.3,1.3,0,0,1,.448-1.02,1.88,1.88,0,0,1,2.307,0,1.3,1.3,0,0,1,.444,1.02,1.34,1.34,0,0,1-.444,1.037A1.65,1.65,0,0,1,79.182,8.576ZM80.553,19H77.776V10h2.777Zm9.158-.325A5.492,5.492,0,0,1,87,19.22a4.593,4.593,0,0,1-3.357-1.257,4.341,4.341,0,0,1-1.283-3.243A4.782,4.782,0,0,1,83.731,11.1,5.083,5.083,0,0,1,87.409,9.78a4.72,4.72,0,0,1,2.3.422v2.355a3.166,3.166,0,0,0-1.942-.65,2.559,2.559,0,0,0-1.894.7,2.607,2.607,0,0,0-.7,1.929,2.565,2.565,0,0,0,.668,1.876,2.455,2.455,0,0,0,1.837.681,3.666,3.666,0,0,0,2.03-.65ZM99.019,19H96.391V17.708h-.035a2.933,2.933,0,0,1-2.681,1.512,2.8,2.8,0,0,1-2.061-.743,2.661,2.661,0,0,1-.751-1.982q0-2.619,3.1-3.023l2.443-.325q0-1.477-1.6-1.477a5.46,5.46,0,0,0-3.059.958V10.536a6.881,6.881,0,0,1,1.586-.527A8.339,8.339,0,0,1,95.17,9.78q3.85,0,3.85,3.841Zm-2.61-3.656v-.606l-1.635.211q-1.354.176-1.354,1.222a1.01,1.01,0,0,0,.33.778,1.266,1.266,0,0,0,.892.3,1.644,1.644,0,0,0,1.274-.541A1.952,1.952,0,0,0,96.409,15.344Z" transform="translate(970 10855)" fill="#00223d"/>
      </g>
    </g>
  </g>
</svg>
