<svg xmlns="http://www.w3.org/2000/svg" xmlns:xlink="http://www.w3.org/1999/xlink" width="333" height="344.762" viewBox="0 0 333 344.762">
  <defs>
    <clipPath id="clip-path">
      <rect id="Rectángulo_402018" data-name="Rectángulo 402018" width="333" height="344.762" rx="5" transform="translate(-10814 -2622.667)" fill="#fff" stroke="#707070" stroke-width="1" opacity="0.5"/>
    </clipPath>
    <clipPath id="clip-path-2">
      <path id="Trazado_1007498" data-name="Trazado 1007498" d="M107.659,107.028l473.024-80.37L507.852,606.152,34.828,686.523Z" fill="#fff"/>
    </clipPath>
    <clipPath id="clip-path-3">
      <path id="Trazado_1007503" data-name="Trazado 1007503" d="M330.132,35.132c-92.607,38.931-184.916,116.21-255.9,220.173-18.077,26.482-35.066,55.251-45.214,86.546s-12.624,65.63-1.918,88.5c13.82,29.529,44.965,33.755,77.475,37.951-11.224,8.171-18.119,27.156-16.734,41.434,2.956,30.518,29.637,32.477,52.684,27.643,76.812-16.117,154.247-79.635,223.16-152.01,36.2-38.024,71.437-79.578,99.616-128.3,18.514-32.01,36.06-77.265,18.53-101.367-8.086-11.12-24.628-11.232-37.141,4.4,20.417-28.212,26.072-69.453,16.809-96.84s-31.01-41.849-55.1-44.453a101.923,101.923,0,0,0-27.957,1.165c-15.859,2.686-32.184,8.376-48.3,15.151" fill="#fff"/>
    </clipPath>
    <clipPath id="clip-path-4">
      <path id="Trazado_1007505" data-name="Trazado 1007505" d="M0,0,415.854,52.75l47.8,542.439L47.8,542.439Z" fill="#fff"/>
    </clipPath>
    <clipPath id="clip-path-5">
      <path id="Trazado_1007510" data-name="Trazado 1007510" d="M207.019-5.293C130.179,6.9,61.172,56.4,16.886,137.7,5.61,158.415-4.221,181.648-7.313,209.223s1.421,60.223,15.7,85.387c18.436,32.487,47.693,45.2,78.191,58.262-8.632,4.829-11.181,21.354-7.1,35.6,8.716,30.444,33.452,39.722,53.533,41.4,66.924,5.589,125.07-34.667,173.691-85.876,25.543-26.9,49.5-57.5,65.615-97.014,10.585-25.957,17.674-65.04-3.077-93.284-9.573-13.031-24.692-17.713-33.028-5.992,13.07-21.743,10.1-60.217-3.755-89.365S295.9,9.139,273.4-.05a99.789,99.789,0,0,0-25.285-6.6c-13.944-1.777-27.721-.767-41.094,1.356" fill="#fff"/>
    </clipPath>
  </defs>
  <g id="Grupo_1101560" data-name="Grupo 1101560" transform="translate(11847.799 1150)">
    <g id="Grupo_1101542" data-name="Grupo 1101542" transform="translate(-714.223 130)">
      <g id="Enmascarar_grupo_1098808" data-name="Enmascarar grupo 1098808" transform="translate(-319.577 1342.667)" clip-path="url(#clip-path)">
        <path id="Trazado_1007496" data-name="Trazado 1007496" d="M6.117,0H418.884C422.262,0,425,5.944,425,13.276v327.71c0,7.332-2.739,13.276-6.117,13.276H6.117C2.739,354.262,0,348.318,0,340.986V13.276C0,5.944,2.739,0,6.117,0Z" transform="translate(-10853.001 -2632.426)" fill="#f6f6f6"/>
        <g id="Grupo_1101514" data-name="Grupo 1101514" transform="matrix(-0.927, 0.375, -0.375, -0.927, -10095.585, -2198.336)" opacity="0.49" style="isolation: isolate">
          <g id="Grupo_1101511" data-name="Grupo 1101511" transform="translate(0 0)">
            <g id="Grupo_1101510" data-name="Grupo 1101510" transform="translate(0 0)" clip-path="url(#clip-path-2)">
              <path id="Trazado_1007497" data-name="Trazado 1007497" d="M444.683,160.108c20.417-28.212,26.068-69.452,16.809-96.84s-31.015-41.848-55.1-44.453-50.448,5.463-76.257,16.311C237.524,74.063,145.21,151.343,74.226,255.3c-18.076,26.476-35.07,55.252-45.214,86.546s-12.623,65.624-1.917,88.5c13.816,29.53,44.964,33.761,77.474,37.957-11.228,8.172-18.118,27.15-16.734,41.434,2.956,30.518,29.632,32.478,52.68,27.644,76.816-16.118,154.252-79.642,223.16-152.01,36.2-38.024,71.437-79.578,99.616-128.3,18.52-32.017,36.064-77.266,18.535-101.374-8.087-11.114-24.629-11.226-37.142,4.411" transform="translate(61.066 83.077)" fill="#fff"/>
            </g>
          </g>
          <g id="Grupo_1101513" data-name="Grupo 1101513" transform="translate(61.065 83.076)">
            <g id="Grupo_1101512" data-name="Grupo 1101512" transform="translate(0 0)" clip-path="url(#clip-path-3)">
              <path id="Trazado_1007499" data-name="Trazado 1007499" d="M15.18,299.218S244.523,321.1,242.27,11.122" transform="translate(-6.44 43.63)" fill="#fff"/>
              <path id="Trazado_1007500" data-name="Trazado 1007500" d="M23.54,464.01S223.422,523.119,370.132,16.992" transform="translate(-30.26 2.151)" fill="#fff"/>
              <path id="Trazado_1007501" data-name="Trazado 1007501" d="M32.552,641.662S167.28,638.335,278.7,387.069,401.513,18.432,401.513,18.432" transform="translate(21.989 -55.437)" fill="#fff"/>
              <path id="Trazado_1007502" data-name="Trazado 1007502" d="M238.42,10.945S204.647,225.072,20.077,395.766" transform="translate(242.418 97.826)" fill="#fff"/>
            </g>
          </g>
        </g>
        <ellipse id="Elipse_11640" data-name="Elipse 11640" cx="258.41" cy="393.506" rx="258.41" ry="393.506" transform="translate(-10798.615 -2880.845)" fill="#e8e8e8" opacity="0.37" style="mix-blend-mode: multiply;isolation: isolate"/>
        <ellipse id="Elipse_11641" data-name="Elipse 11641" cx="258.581" cy="394.398" rx="258.581" ry="394.398" transform="translate(-10945.162 -2529.502)" fill="#fff" opacity="0.65"/>
        <ellipse id="Elipse_11642" data-name="Elipse 11642" cx="258.581" cy="394.398" rx="258.581" ry="394.398" transform="translate(-10598.896 -2865.216)" fill="#fff" opacity="0.65"/>
        <g id="Grupo_1101519" data-name="Grupo 1101519" transform="translate(-10541.546 -2047.359) rotate(-165)" opacity="0.3" style="isolation: isolate">
          <g id="Grupo_1101516" data-name="Grupo 1101516" transform="translate(0 0)">
            <g id="Grupo_1101515" data-name="Grupo 1101515" clip-path="url(#clip-path-4)">
              <path id="Trazado_1007504" data-name="Trazado 1007504" d="M336.209,147.707c13.07-21.743,10.1-60.218-3.755-89.365S295.9,9.141,273.4-.047,228.435-8.691,207.019-5.3c-76.84,12.2-145.85,61.7-190.133,143C5.61,158.413-4.225,181.65-7.313,209.226s1.42,60.218,15.7,85.382c18.432,32.487,47.694,45.206,78.191,58.268-8.636,4.829-11.181,21.348-7.1,35.6,8.716,30.444,33.448,39.722,53.529,41.4C199.933,435.462,258.079,395.2,306.7,344c25.543-26.9,49.5-57.5,65.615-97.014,10.588-25.962,17.678-65.04-3.074-93.289-9.572-13.025-24.691-17.708-33.028-5.987" transform="translate(53.954 94.531)" fill="#fff"/>
            </g>
          </g>
          <g id="Grupo_1101518" data-name="Grupo 1101518" transform="translate(53.954 94.534)">
            <g id="Grupo_1101517" data-name="Grupo 1101517" transform="translate(0 0)" clip-path="url(#clip-path-5)">
              <path id="Trazado_1007506" data-name="Trazado 1007506" d="M-7.834,212.235S205.79,296.884,142.609-4.667" transform="translate(-17.784 -7.65)" fill="#fff"/>
              <path id="Trazado_1007507" data-name="Trazado 1007507" d="M-12.22,331.08S181.857,443.723,215.947-7.067" transform="translate(-3.191 -11.055)" fill="#fff"/>
              <path id="Trazado_1007508" data-name="Trazado 1007508" d="M-18.331,496.63s122.3,34.018,174.446-179.107S195.5-6.4,195.5-6.4" transform="translate(82.505 -43.112)" fill="#fff"/>
              <path id="Trazado_1007509" data-name="Trazado 1007509" d="M111.96-3.664s11.4,198.537-123.386,313.221" transform="translate(247.122 111.524)" fill="#fff"/>
            </g>
          </g>
        </g>
        <g id="Grupo_1101520" data-name="Grupo 1101520" transform="translate(-11126.275 -3024.112)">
          <path id="Trazado_1007511" data-name="Trazado 1007511" d="M703.255,398.593S698.232-138.169,4.806,69.1" transform="translate(650.463 1365.253) rotate(-43)" fill="none" stroke="#e8e8e8" stroke-linecap="round" stroke-linejoin="round" stroke-width="1"/>
          <path id="Trazado_1007512" data-name="Trazado 1007512" d="M163.258,11.246S-81.5,228.6,62.718,324.041" transform="translate(1096.955 760.916) rotate(-43)" fill="none" stroke="#e8e8e8" stroke-linecap="round" stroke-linejoin="round" stroke-width="1"/>
          <path id="Trazado_1007513" data-name="Trazado 1007513" d="M731.353,50.377C670.284,243.082,606.114,275.839,482.927,311.25s-127.292,161.459-302.215,109S18.442,254.077,18.442,254.077" transform="translate(0 461.938) rotate(-43)" fill="none" stroke="#e8e8e8" stroke-linecap="round" stroke-linejoin="round" stroke-width="1"/>
          <path id="Trazado_1007514" data-name="Trazado 1007514" d="M229.695,15.822s96.837,96.059,5.664,176.444S9.281,133.441,9.281,133.441" transform="translate(192.039 396.62) rotate(-43)" fill="none" stroke="#e8e8e8" stroke-linecap="round" stroke-linejoin="round" stroke-width="1"/>
          <path id="Trazado_1007515" data-name="Trazado 1007515" d="M292.039,188.175C330.184,43.214,194.451-58.264,5.012,72.063" transform="translate(807.878 1306.272) rotate(-43)" fill="none" stroke="#e8e8e8" stroke-linecap="round" stroke-linejoin="round" stroke-width="1"/>
          <path id="Trazado_1007516" data-name="Trazado 1007516" d="M539.112,72.935c-47.977,22.707-95.2,64.4-115.358,110.164s-6.442,92.2,25.3,101.3c-47.765-4.275-95.972-8.542-148.029-2.04S192.063,307.04,141.108,342.343,46.514,431.9,37.215,481.874c-10.793,58,24.161,97.189,61.387,127.279,108.655,87.823,250.262,142.717,413.58,154.165,51.882,3.635,111.828,1.032,167.348-35.486,53.063-34.9,89.268-94.384,98.848-145.789s-3.683-95.634-24.243-132.969-48.347-69.215-71.786-102.861c28.253-5.071,56.847-10.239,85.813-21.7s58.8-30.059,79.891-55.3c25.172-30.125,34.468-66.044,30.233-94.308s-20.466-49.786-39.979-67.269C798.036,71.566,742.515,50.4,678.653,46.772a299.135,299.135,0,0,0-78.473,5.643,273.912,273.912,0,0,0-61.068,20.52" transform="translate(344.61 931.382) rotate(-43)" fill="none"/>
        </g>
      </g>
      <path id="Trazado_28144" data-name="Trazado 28144" d="M795.978,1922.911V1682.794l3.235,3.48,1.005-.936L794.6,1679.3l-5.613,6.037,1.005.936,3.237-3.483v240.123L790,1919.432l-1.005.936,5.613,6.038,5.615-6.038-1.005-.936Z" transform="translate(-11873.551 -2894.638)" fill="#ff8e6b"/>
      <path id="Trazado_28145" data-name="Trazado 28145" d="M812.565,1663.455h226.67l-2.555,2.6.688.809,4.432-4.519-4.432-4.518-.687.809,2.557,2.605H812.563l2.557-2.605-.688-.809L810,1662.348l4.432,4.519.688-.809Z" transform="translate(-11864.801 -2867.201)" fill="#ffd75e"/>
      <g id="Grupo_1101527" data-name="Grupo 1101527" transform="translate(-11071.801 -1188.303)">
        <g id="Grupo_1101523" data-name="Grupo 1101523">
          <rect id="Rectángulo_4415" data-name="Rectángulo 4415" width="118.464" height="105.831" transform="translate(17)" fill="#d8e9fb"/>
          <path id="Trazado_1007622" data-name="Trazado 1007622" d="M5.359,14.658V19H2.52V6.4H6.967q4.764,0,4.764,4.017a3.854,3.854,0,0,1-1.367,3.072,5.414,5.414,0,0,1-3.652,1.173Zm0-6.082V12.5H6.475q2.268,0,2.268-1.986,0-1.942-2.268-1.942ZM19.175,12.5a2.409,2.409,0,0,0-1.169-.272,1.684,1.684,0,0,0-1.415.664,2.9,2.9,0,0,0-.51,1.806V19H13.3V10h2.777v1.67h.035A2.4,2.4,0,0,1,18.49,9.842a1.788,1.788,0,0,1,.686.105Zm9.308,2.786H22.612q.141,1.96,2.47,1.96a4.822,4.822,0,0,0,2.61-.7v2a6.858,6.858,0,0,1-3.243.668,4.565,4.565,0,0,1-3.384-1.208,4.566,4.566,0,0,1-1.2-3.371,4.816,4.816,0,0,1,1.3-3.551,4.334,4.334,0,0,1,3.2-1.31,3.933,3.933,0,0,1,3.045,1.169,4.5,4.5,0,0,1,1.077,3.173Zm-2.575-1.705q0-1.934-1.564-1.934a1.494,1.494,0,0,0-1.156.554,2.513,2.513,0,0,0-.593,1.38ZM44.426,19H41.657V13.867q0-1.96-1.441-1.96A1.324,1.324,0,0,0,39.1,12.5a2.42,2.42,0,0,0-.431,1.468V19H35.892V13.814q0-1.907-1.415-1.907a1.356,1.356,0,0,0-1.138.563A2.475,2.475,0,0,0,32.912,14v5H30.135V10h2.777v1.406h.035A3.41,3.41,0,0,1,35.857,9.78a2.592,2.592,0,0,1,2.61,1.679A3.329,3.329,0,0,1,41.491,9.78q2.936,0,2.936,3.621Zm3.6-10.424a1.622,1.622,0,0,1-1.151-.417,1.345,1.345,0,0,1-.448-1.024,1.3,1.3,0,0,1,.448-1.02,1.88,1.88,0,0,1,2.307,0,1.3,1.3,0,0,1,.444,1.02,1.34,1.34,0,0,1-.444,1.037A1.65,1.65,0,0,1,48.03,8.576ZM49.4,19H46.623V10H49.4Zm10.89,0H57.522V17.629h-.044a3.141,3.141,0,0,1-2.751,1.591q-3.129,0-3.129-3.788V10h2.769v5.186q0,1.907,1.512,1.907a1.5,1.5,0,0,0,1.2-.523,2.109,2.109,0,0,0,.448-1.419V10H60.29Zm16.629,0H74.151V13.867q0-1.96-1.441-1.96a1.324,1.324,0,0,0-1.116.589,2.42,2.42,0,0,0-.431,1.468V19H68.385V13.814q0-1.907-1.415-1.907a1.356,1.356,0,0,0-1.138.563A2.475,2.475,0,0,0,65.406,14v5H62.628V10h2.777v1.406h.035A3.41,3.41,0,0,1,68.35,9.78a2.592,2.592,0,0,1,2.61,1.679A3.329,3.329,0,0,1,73.984,9.78q2.936,0,2.936,3.621Z" transform="translate(36.732 46.295)" fill="#00223d"/>
        </g>
      </g>
      <path id="Trazado_1007615" data-name="Trazado 1007615" d="M10.141,17H8.688L7.5,13.859H2.75L1.633,17H.172l4.3-11.2H5.828ZM7.07,12.68,5.313,7.906a4.571,4.571,0,0,1-.172-.75H5.109a4.185,4.185,0,0,1-.18.75L3.188,12.68ZM12.9,17H11.617V5.156H12.9Zm6.3-.078a2.47,2.47,0,0,1-1.2.25q-2.1,0-2.1-2.344V10.094H14.531V9h1.375V7.047l1.281-.414V9H19.2v1.094H17.188V14.6a1.869,1.869,0,0,0,.273,1.148,1.091,1.091,0,0,0,.906.344,1.347,1.347,0,0,0,.836-.266Zm5.055.266a3.711,3.711,0,0,1-2.832-1.121,4.153,4.153,0,0,1-1.059-2.973,4.326,4.326,0,0,1,1.1-3.148,3.96,3.96,0,0,1,2.977-1.133,3.588,3.588,0,0,1,2.793,1.1,4.368,4.368,0,0,1,1,3.055,4.3,4.3,0,0,1-1.082,3.066A3.791,3.791,0,0,1,24.258,17.188Zm.094-7.3a2.437,2.437,0,0,0-1.953.84,3.449,3.449,0,0,0-.719,2.316,3.262,3.262,0,0,0,.727,2.242,2.469,2.469,0,0,0,1.945.82,2.342,2.342,0,0,0,1.91-.8,3.492,3.492,0,0,0,.668-2.289,3.552,3.552,0,0,0-.668-2.312A2.332,2.332,0,0,0,24.352,9.891Z" transform="translate(-11059.973 -1233.328)" fill="#00223d"/>
      <path id="Trazado_1007616" data-name="Trazado 1007616" d="M10.141,17H8.688L7.5,13.859H2.75L1.633,17H.172l4.3-11.2H5.828ZM7.07,12.68,5.313,7.906a4.571,4.571,0,0,1-.172-.75H5.109a4.185,4.185,0,0,1-.18.75L3.188,12.68ZM12.9,17H11.617V5.156H12.9Zm6.3-.078a2.47,2.47,0,0,1-1.2.25q-2.1,0-2.1-2.344V10.094H14.531V9h1.375V7.047l1.281-.414V9H19.2v1.094H17.188V14.6a1.869,1.869,0,0,0,.273,1.148,1.091,1.091,0,0,0,.906.344,1.347,1.347,0,0,0,.836-.266ZM26.641,17H25.359V15.75h-.031a2.682,2.682,0,0,1-2.461,1.438A2.63,2.63,0,0,1,21,16.555a2.192,2.192,0,0,1-.676-1.68q0-2.242,2.641-2.609l2.4-.336q0-2.039-1.648-2.039a3.938,3.938,0,0,0-2.609.984V9.563a4.958,4.958,0,0,1,2.719-.75q2.82,0,2.82,2.984Zm-1.281-4.047-1.93.266a3.133,3.133,0,0,0-1.344.441,1.273,1.273,0,0,0-.453,1.121,1.221,1.221,0,0,0,.418.957,1.615,1.615,0,0,0,1.113.371,2.056,2.056,0,0,0,1.574-.668,2.387,2.387,0,0,0,.621-1.691Z" transform="translate(-11119.512 -1215.338)" fill="#00223d"/>
      <path id="Trazado_1007619" data-name="Trazado 1007619" d="M1.469,17V5.8H4.656a3.484,3.484,0,0,1,2.3.711,2.3,2.3,0,0,1,.852,1.852A2.724,2.724,0,0,1,7.3,10.016a2.78,2.78,0,0,1-1.422,1v.031a2.85,2.85,0,0,1,1.813.855,2.631,2.631,0,0,1,.68,1.879,2.929,2.929,0,0,1-1.031,2.328,3.838,3.838,0,0,1-2.6.891ZM2.781,6.984V10.6H4.125a2.552,2.552,0,0,0,1.7-.52,1.809,1.809,0,0,0,.617-1.465q0-1.633-2.148-1.633Zm0,4.8v4.031H4.563a2.669,2.669,0,0,0,1.793-.547,1.873,1.873,0,0,0,.637-1.5q0-1.984-2.7-1.984ZM16.2,17H14.914V15.75h-.031a2.682,2.682,0,0,1-2.461,1.438,2.63,2.63,0,0,1-1.871-.633,2.192,2.192,0,0,1-.676-1.68q0-2.242,2.641-2.609l2.4-.336q0-2.039-1.648-2.039a3.938,3.938,0,0,0-2.609.984V9.563a4.958,4.958,0,0,1,2.719-.75q2.82,0,2.82,2.984Zm-1.281-4.047-1.93.266a3.133,3.133,0,0,0-1.344.441,1.273,1.273,0,0,0-.453,1.121,1.221,1.221,0,0,0,.418.957,1.615,1.615,0,0,0,1.113.371,2.056,2.056,0,0,0,1.574-.668,2.387,2.387,0,0,0,.621-1.691Zm4.977,3.711A5.014,5.014,0,0,1,19.1,19.7a2.658,2.658,0,0,1-2.27,1.066,2.409,2.409,0,0,1-1.062-.25v-1.2a2.12,2.12,0,0,0,1.094.352q1.75,0,1.75-2.8V9h1.281Zm-.625-9.7a.812.812,0,0,1-.586-.234.791.791,0,0,1-.242-.594.821.821,0,0,1,.828-.836.827.827,0,0,1,.6.238.835.835,0,0,1,0,1.184A.82.82,0,0,1,19.266,6.969Zm6.563,10.219A3.711,3.711,0,0,1,23,16.066a4.153,4.153,0,0,1-1.059-2.973,4.326,4.326,0,0,1,1.1-3.148,3.96,3.96,0,0,1,2.977-1.133,3.588,3.588,0,0,1,2.793,1.1,4.368,4.368,0,0,1,1,3.055,4.3,4.3,0,0,1-1.082,3.066A3.791,3.791,0,0,1,25.828,17.188Zm.094-7.3a2.437,2.437,0,0,0-1.953.84,3.449,3.449,0,0,0-.719,2.316,3.262,3.262,0,0,0,.727,2.242,2.469,2.469,0,0,0,1.945.82,2.342,2.342,0,0,0,1.91-.8,3.492,3.492,0,0,0,.668-2.289,3.552,3.552,0,0,0-.668-2.312A2.332,2.332,0,0,0,25.922,9.891Z" transform="translate(-10845.859 -1235.328)" fill="#00223d"/>
      <path id="Trazado_1007620" data-name="Trazado 1007620" d="M1.469,17V5.8H4.656a3.484,3.484,0,0,1,2.3.711,2.3,2.3,0,0,1,.852,1.852A2.724,2.724,0,0,1,7.3,10.016a2.78,2.78,0,0,1-1.422,1v.031a2.85,2.85,0,0,1,1.813.855,2.631,2.631,0,0,1,.68,1.879,2.929,2.929,0,0,1-1.031,2.328,3.838,3.838,0,0,1-2.6.891ZM2.781,6.984V10.6H4.125a2.552,2.552,0,0,0,1.7-.52,1.809,1.809,0,0,0,.617-1.465q0-1.633-2.148-1.633Zm0,4.8v4.031H4.563a2.669,2.669,0,0,0,1.793-.547,1.873,1.873,0,0,0,.637-1.5q0-1.984-2.7-1.984ZM16.2,17H14.914V15.75h-.031a2.682,2.682,0,0,1-2.461,1.438,2.63,2.63,0,0,1-1.871-.633,2.192,2.192,0,0,1-.676-1.68q0-2.242,2.641-2.609l2.4-.336q0-2.039-1.648-2.039a3.938,3.938,0,0,0-2.609.984V9.563a4.958,4.958,0,0,1,2.719-.75q2.82,0,2.82,2.984Zm-1.281-4.047-1.93.266a3.133,3.133,0,0,0-1.344.441,1.273,1.273,0,0,0-.453,1.121,1.221,1.221,0,0,0,.418.957,1.615,1.615,0,0,0,1.113.371,2.056,2.056,0,0,0,1.574-.668,2.387,2.387,0,0,0,.621-1.691Zm4.977,3.711A5.014,5.014,0,0,1,19.1,19.7a2.658,2.658,0,0,1-2.27,1.066,2.409,2.409,0,0,1-1.062-.25v-1.2a2.12,2.12,0,0,0,1.094.352q1.75,0,1.75-2.8V9h1.281Zm-.625-9.7a.812.812,0,0,1-.586-.234.791.791,0,0,1-.242-.594.821.821,0,0,1,.828-.836.827.827,0,0,1,.6.238.835.835,0,0,1,0,1.184A.82.82,0,0,1,19.266,6.969ZM28.211,17H26.93V15.75H26.9a2.682,2.682,0,0,1-2.461,1.438,2.63,2.63,0,0,1-1.871-.633,2.192,2.192,0,0,1-.676-1.68q0-2.242,2.641-2.609l2.4-.336q0-2.039-1.648-2.039a3.938,3.938,0,0,0-2.609.984V9.563a4.958,4.958,0,0,1,2.719-.75q2.82,0,2.82,2.984ZM26.93,12.953,25,13.219a3.133,3.133,0,0,0-1.344.441,1.273,1.273,0,0,0-.453,1.121,1.221,1.221,0,0,0,.418.957,1.615,1.615,0,0,0,1.113.371,2.056,2.056,0,0,0,1.574-.668,2.387,2.387,0,0,0,.621-1.691Z" transform="translate(-11114.896 -1001.228)" fill="#00223d"/>
      <path id="Trazado_1007617" data-name="Trazado 1007617" d="M10.238,16.6a7.388,7.388,0,0,1-3.2.594A5.4,5.4,0,0,1,2.98,15.68,5.54,5.54,0,0,1,1.5,11.641a5.919,5.919,0,0,1,1.66-4.359A5.807,5.807,0,0,1,7.473,5.609a8.058,8.058,0,0,1,2.766.414v2.43a4.9,4.9,0,0,0-2.563-.672,3.4,3.4,0,0,0-2.547.992,3.682,3.682,0,0,0-.969,2.688,3.611,3.611,0,0,0,.914,2.59,3.229,3.229,0,0,0,2.461.965,5.249,5.249,0,0,0,2.7-.719Zm8.367.4H16.269V15.852h-.031A2.607,2.607,0,0,1,13.855,17.2a2.492,2.492,0,0,1-1.832-.66,2.366,2.366,0,0,1-.668-1.762q0-2.328,2.758-2.687l2.172-.289q0-1.312-1.422-1.312a4.853,4.853,0,0,0-2.719.852V9.477a6.116,6.116,0,0,1,1.41-.469,7.413,7.413,0,0,1,1.629-.2q3.422,0,3.422,3.414Zm-2.32-3.25v-.539l-1.453.188q-1.2.156-1.2,1.086a.9.9,0,0,0,.293.691,1.126,1.126,0,0,0,.793.27,1.462,1.462,0,0,0,1.133-.48A1.735,1.735,0,0,0,16.285,13.75ZM23.027,17H20.559V5.156h2.469Zm3.328-9.266a1.442,1.442,0,0,1-1.023-.371,1.2,1.2,0,0,1-.4-.91,1.153,1.153,0,0,1,.4-.906,1.671,1.671,0,0,1,2.051,0,1.158,1.158,0,0,1,.395.906,1.191,1.191,0,0,1-.395.922A1.466,1.466,0,0,1,26.355,7.734ZM27.574,17H25.105V9h2.469Zm9.906,0H35.012V15.9H34.98A2.768,2.768,0,0,1,32.5,17.2a3.033,3.033,0,0,1-2.414-1.059,4.382,4.382,0,0,1-.914-2.957A4.77,4.77,0,0,1,30.184,10a3.287,3.287,0,0,1,2.641-1.2A2.246,2.246,0,0,1,34.98,9.914h.031V5.156H37.48Zm-2.422-3.891v-.6a1.893,1.893,0,0,0-.453-1.3,1.6,1.6,0,0,0-2.461.129,2.993,2.993,0,0,0-.461,1.77,2.59,2.59,0,0,0,.445,1.625,1.581,1.581,0,0,0,2.457-.031A2.507,2.507,0,0,0,35.059,13.109ZM46.215,17H43.879V15.852h-.031A2.607,2.607,0,0,1,41.465,17.2a2.492,2.492,0,0,1-1.832-.66,2.366,2.366,0,0,1-.668-1.762q0-2.328,2.758-2.687l2.172-.289q0-1.312-1.422-1.312a4.853,4.853,0,0,0-2.719.852V9.477a6.116,6.116,0,0,1,1.41-.469,7.413,7.413,0,0,1,1.629-.2q3.422,0,3.422,3.414Zm-2.32-3.25v-.539l-1.453.188q-1.2.156-1.2,1.086a.9.9,0,0,0,.293.691,1.126,1.126,0,0,0,.793.27,1.462,1.462,0,0,0,1.133-.48A1.735,1.735,0,0,0,43.894,13.75ZM56,17H53.527V15.9H53.5a2.768,2.768,0,0,1-2.477,1.3,3.033,3.033,0,0,1-2.414-1.059,4.382,4.382,0,0,1-.914-2.957A4.77,4.77,0,0,1,48.7,10,3.287,3.287,0,0,1,51.34,8.8,2.246,2.246,0,0,1,53.5,9.914h.031V5.156H56Zm-2.422-3.891v-.6a1.893,1.893,0,0,0-.453-1.3,1.6,1.6,0,0,0-2.461.129,2.993,2.993,0,0,0-.461,1.77,2.59,2.59,0,0,0,.445,1.625A1.581,1.581,0,0,0,53.1,14.7,2.507,2.507,0,0,0,53.574,13.109Z" transform="translate(-11111.047 -1067.152) rotate(-90)" fill="#00223d"/>
      <path id="Trazado_1007618" data-name="Trazado 1007618" d="M3.8,13.141V17H1.281V5.8H5.234q4.234,0,4.234,3.57A3.426,3.426,0,0,1,8.254,12.1a4.813,4.813,0,0,1-3.246,1.043Zm0-5.406v3.492H4.8q2.016,0,2.016-1.766,0-1.727-2.016-1.727Zm12.281,3.492a2.142,2.142,0,0,0-1.039-.242,1.5,1.5,0,0,0-1.258.59,2.573,2.573,0,0,0-.453,1.605V17H10.867V9h2.469v1.484h.031a2.136,2.136,0,0,1,2.109-1.625,1.59,1.59,0,0,1,.609.094ZM24.359,13.7H19.141q.125,1.742,2.2,1.742a4.286,4.286,0,0,0,2.32-.625V16.6a6.1,6.1,0,0,1-2.883.594,4.058,4.058,0,0,1-3.008-1.074,4.058,4.058,0,0,1-1.07-3,4.281,4.281,0,0,1,1.156-3.156A3.852,3.852,0,0,1,20.7,8.8,3.5,3.5,0,0,1,23.4,9.844a4,4,0,0,1,.957,2.82ZM22.07,12.188q0-1.719-1.391-1.719a1.328,1.328,0,0,0-1.027.492,2.234,2.234,0,0,0-.527,1.227Zm9.82,4.523a4.881,4.881,0,0,1-2.414.484,4.083,4.083,0,0,1-2.984-1.117A3.859,3.859,0,0,1,25.352,13.2,4.251,4.251,0,0,1,26.574,9.98,4.518,4.518,0,0,1,29.844,8.8a4.2,4.2,0,0,1,2.047.375v2.094a2.814,2.814,0,0,0-1.727-.578,2.275,2.275,0,0,0-1.684.621,2.317,2.317,0,0,0-.621,1.715,2.28,2.28,0,0,0,.594,1.668,2.182,2.182,0,0,0,1.633.605,3.258,3.258,0,0,0,1.8-.578Zm2.867-8.977a1.442,1.442,0,0,1-1.023-.371,1.2,1.2,0,0,1-.4-.91,1.153,1.153,0,0,1,.4-.906,1.671,1.671,0,0,1,2.051,0,1.158,1.158,0,0,1,.395.906,1.191,1.191,0,0,1-.395.922A1.466,1.466,0,0,1,34.758,7.734ZM35.977,17H33.508V9h2.469Zm5.891.2a4.3,4.3,0,0,1-3.145-1.121,4.064,4.064,0,0,1-1.145-3.043,4.065,4.065,0,0,1,1.188-3.105A4.487,4.487,0,0,1,41.977,8.8,4.249,4.249,0,0,1,45.1,9.926a3.985,3.985,0,0,1,1.133,2.965,4.23,4.23,0,0,1-1.168,3.148A4.348,4.348,0,0,1,41.867,17.2Zm.063-6.5a1.647,1.647,0,0,0-1.359.6,2.653,2.653,0,0,0-.484,1.7q0,2.3,1.859,2.3,1.773,0,1.773-2.367Q43.719,10.7,41.93,10.7Z" transform="translate(-10962.367 -1254.293)" fill="#00223d"/>
      <g id="Grupo_1101526" data-name="Grupo 1101526" transform="translate(-11054.801 -1082.543)">
        <rect id="Rectángulo_4416" data-name="Rectángulo 4416" width="118.464" height="105.831" transform="translate(0 0)" fill="#def7ec"/>
        <path id="Trazado_1007621" data-name="Trazado 1007621" d="M51.377,19H48.512l-5.194-7.919a11.451,11.451,0,0,1-.633-1.046h-.035q.07.668.07,2.039V19H40.039V6.4H43.1l5,7.673q.343.519.633,1.028h.035a13.476,13.476,0,0,1-.07-1.731V6.4h2.681Zm6.9.22a4.838,4.838,0,0,1-3.538-1.261,4.573,4.573,0,0,1-1.288-3.423,4.573,4.573,0,0,1,1.336-3.494A5.048,5.048,0,0,1,58.4,9.78a4.78,4.78,0,0,1,3.516,1.261,4.483,4.483,0,0,1,1.274,3.335,4.759,4.759,0,0,1-1.314,3.542A4.892,4.892,0,0,1,58.276,19.22Zm.07-7.312a1.852,1.852,0,0,0-1.529.677,2.984,2.984,0,0,0-.545,1.916q0,2.593,2.092,2.593,2,0,2-2.663Q60.359,11.907,58.347,11.907ZM8.979,48.675a5.492,5.492,0,0,1-2.716.545,4.593,4.593,0,0,1-3.357-1.257A4.341,4.341,0,0,1,1.622,44.72,4.782,4.782,0,0,1,3,41.1,5.083,5.083,0,0,1,6.676,39.78a4.72,4.72,0,0,1,2.3.422v2.355a3.166,3.166,0,0,0-1.942-.65,2.559,2.559,0,0,0-1.894.7,2.607,2.607,0,0,0-.7,1.929,2.565,2.565,0,0,0,.668,1.876,2.455,2.455,0,0,0,1.837.681,3.666,3.666,0,0,0,2.03-.65Zm6.108.545a4.838,4.838,0,0,1-3.538-1.261,4.573,4.573,0,0,1-1.288-3.423A4.573,4.573,0,0,1,11.6,41.042,5.048,5.048,0,0,1,15.21,39.78a4.78,4.78,0,0,1,3.516,1.261A4.483,4.483,0,0,1,20,44.377a4.759,4.759,0,0,1-1.314,3.542A4.892,4.892,0,0,1,15.087,49.22Zm.07-7.312a1.852,1.852,0,0,0-1.529.677,2.984,2.984,0,0,0-.545,1.916q0,2.593,2.092,2.593,2,0,2-2.663Q17.17,41.907,15.157,41.907ZM36.093,49H33.324V43.867q0-1.96-1.441-1.96a1.324,1.324,0,0,0-1.116.589,2.42,2.42,0,0,0-.431,1.468V49H27.559V43.814q0-1.907-1.415-1.907a1.356,1.356,0,0,0-1.138.563A2.475,2.475,0,0,0,24.579,44v5H21.8V40h2.777v1.406h.035a3.41,3.41,0,0,1,2.909-1.626,2.592,2.592,0,0,1,2.61,1.679,3.329,3.329,0,0,1,3.023-1.679q2.936,0,2.936,3.621Zm5.01-1.046h-.035V53.14H38.29V40h2.777v1.354H41.1A3.534,3.534,0,0,1,46.7,40.98a5.108,5.108,0,0,1,.954,3.265,5.537,5.537,0,0,1-1.112,3.612,3.625,3.625,0,0,1-2.958,1.362A2.8,2.8,0,0,1,41.1,47.954Zm-.079-3.691v.721a2.291,2.291,0,0,0,.492,1.521,1.6,1.6,0,0,0,1.292.589,1.7,1.7,0,0,0,1.472-.734A3.543,3.543,0,0,0,44.8,44.28q0-2.373-1.846-2.373a1.733,1.733,0,0,0-1.393.646A2.576,2.576,0,0,0,41.023,44.263Zm16.515,1.028H51.667q.141,1.96,2.47,1.96a4.822,4.822,0,0,0,2.61-.7v2a6.858,6.858,0,0,1-3.243.668,4.189,4.189,0,0,1-4.588-4.579,4.816,4.816,0,0,1,1.3-3.551,4.334,4.334,0,0,1,3.2-1.31,3.933,3.933,0,0,1,3.045,1.169,4.5,4.5,0,0,1,1.077,3.173Zm-2.575-1.705q0-1.934-1.564-1.934a1.494,1.494,0,0,0-1.156.554,2.513,2.513,0,0,0-.593,1.38Zm9.668,5.309a4.105,4.105,0,0,1-1.854.325q-2.936,0-2.936-3.05V42.048H58.382V40h1.459V38.058l2.769-.791V40h2.021v2.048H62.609v3.639q0,1.406,1.116,1.406a1.882,1.882,0,0,0,.905-.255ZM67.6,38.576a1.622,1.622,0,0,1-1.151-.417A1.345,1.345,0,0,1,66,37.135a1.3,1.3,0,0,1,.448-1.02,1.88,1.88,0,0,1,2.307,0,1.3,1.3,0,0,1,.444,1.02,1.34,1.34,0,0,1-.444,1.037A1.65,1.65,0,0,1,67.6,38.576ZM68.973,49H66.2V40h2.777Zm7.778-.105a4.105,4.105,0,0,1-1.854.325q-2.936,0-2.936-3.05V42.048H70.5V40h1.459V38.058l2.769-.791V40h2.021v2.048H74.729v3.639q0,1.406,1.116,1.406a1.882,1.882,0,0,0,.905-.255Zm2.971-10.318a1.622,1.622,0,0,1-1.151-.417,1.345,1.345,0,0,1-.448-1.024,1.3,1.3,0,0,1,.448-1.02,1.88,1.88,0,0,1,2.307,0,1.3,1.3,0,0,1,.444,1.02,1.34,1.34,0,0,1-.444,1.037A1.65,1.65,0,0,1,79.722,38.576ZM81.093,49H78.315V40h2.777ZM92,40l-3.349,9H85.487L82.3,40h2.971l1.564,5.546a8.1,8.1,0,0,1,.308,1.6h.035A9.078,9.078,0,0,1,87.5,45.6L89.1,40Zm8.4,9H97.774V47.708h-.035a2.933,2.933,0,0,1-2.681,1.512A2.8,2.8,0,0,1,93,48.477a2.661,2.661,0,0,1-.751-1.982q0-2.619,3.1-3.023l2.443-.325q0-1.477-1.6-1.477a5.46,5.46,0,0,0-3.059.958V40.536a6.881,6.881,0,0,1,1.586-.527,8.339,8.339,0,0,1,1.833-.229q3.85,0,3.85,3.841Zm-2.61-3.656v-.606l-1.635.211Q94.8,45.124,94.8,46.17a1.01,1.01,0,0,0,.33.778,1.266,1.266,0,0,0,.892.3A1.644,1.644,0,0,0,97.3,46.71,1.952,1.952,0,0,0,97.792,45.344Z" transform="translate(8.232 20.365)" fill="#00223d"/>
      </g>
      <g id="Grupo_1101528" data-name="Grupo 1101528" transform="translate(-10936.464 -1188.303)">
        <g id="Grupo_1101524" data-name="Grupo 1101524">
          <rect id="Rectángulo_4417" data-name="Rectángulo 4417" width="115.464" height="105.831" fill="#def7ec"/>
          <path id="Trazado_1007623" data-name="Trazado 1007623" d="M16.732,19H13.638l-.9-2.8H8.26L7.372,19H4.3L8.884,6.4H12.25Zm-4.641-4.983L10.738,9.78a5.521,5.521,0,0,1-.211-1.134h-.07a4.807,4.807,0,0,1-.22,1.1L8.866,14.017ZM26.84,19H24.062V17.761h-.035a3.114,3.114,0,0,1-2.786,1.459,3.412,3.412,0,0,1-2.716-1.191A4.93,4.93,0,0,1,17.5,14.7a5.366,5.366,0,0,1,1.134-3.577A3.7,3.7,0,0,1,21.6,9.78a2.527,2.527,0,0,1,2.426,1.248h.035V5.676H26.84Zm-2.725-4.377v-.677a2.13,2.13,0,0,0-.51-1.459,1.8,1.8,0,0,0-2.769.145,3.367,3.367,0,0,0-.519,1.991,2.914,2.914,0,0,0,.5,1.828,1.779,1.779,0,0,0,2.764-.035A2.821,2.821,0,0,0,24.115,14.623Zm13.148.668H31.392q.141,1.96,2.47,1.96a4.822,4.822,0,0,0,2.61-.7v2a6.858,6.858,0,0,1-3.243.668,4.565,4.565,0,0,1-3.384-1.208,4.566,4.566,0,0,1-1.2-3.371,4.816,4.816,0,0,1,1.3-3.551,4.334,4.334,0,0,1,3.2-1.31,3.933,3.933,0,0,1,3.045,1.169,4.5,4.5,0,0,1,1.077,3.173Zm-2.575-1.705q0-1.934-1.564-1.934a1.494,1.494,0,0,0-1.156.554,2.513,2.513,0,0,0-.593,1.38Zm11.048,5.089a5.492,5.492,0,0,1-2.716.545,4.593,4.593,0,0,1-3.357-1.257A4.341,4.341,0,0,1,38.38,14.72,4.782,4.782,0,0,1,39.755,11.1,5.083,5.083,0,0,1,43.433,9.78a4.72,4.72,0,0,1,2.3.422v2.355a3.166,3.166,0,0,0-1.942-.65,2.559,2.559,0,0,0-1.894.7,2.607,2.607,0,0,0-.7,1.929,2.565,2.565,0,0,0,.668,1.876,2.455,2.455,0,0,0,1.837.681,3.666,3.666,0,0,0,2.03-.65ZM56.107,19H53.339V17.629h-.044a3.141,3.141,0,0,1-2.751,1.591q-3.129,0-3.129-3.788V10h2.769v5.186q0,1.907,1.512,1.907a1.5,1.5,0,0,0,1.2-.523,2.109,2.109,0,0,0,.448-1.419V10h2.769Zm9.826,0H63.305V17.708H63.27A2.933,2.933,0,0,1,60.59,19.22a2.8,2.8,0,0,1-2.061-.743,2.661,2.661,0,0,1-.751-1.982q0-2.619,3.1-3.023l2.443-.325q0-1.477-1.6-1.477a5.46,5.46,0,0,0-3.059.958V10.536a6.881,6.881,0,0,1,1.586-.527,8.339,8.339,0,0,1,1.833-.229q3.85,0,3.85,3.841Zm-2.61-3.656v-.606l-1.635.211q-1.354.176-1.354,1.222a1.01,1.01,0,0,0,.33.778,1.266,1.266,0,0,0,.892.3,1.644,1.644,0,0,0,1.274-.541A1.952,1.952,0,0,0,63.323,15.344ZM76.937,19H74.16V17.761h-.035a3.114,3.114,0,0,1-2.786,1.459,3.412,3.412,0,0,1-2.716-1.191A4.93,4.93,0,0,1,67.594,14.7a5.366,5.366,0,0,1,1.134-3.577A3.7,3.7,0,0,1,71.7,9.78a2.527,2.527,0,0,1,2.426,1.248h.035V5.676h2.777Zm-2.725-4.377v-.677a2.13,2.13,0,0,0-.51-1.459,1.8,1.8,0,0,0-2.769.145,3.367,3.367,0,0,0-.519,1.991,2.914,2.914,0,0,0,.5,1.828,1.779,1.779,0,0,0,2.764-.035A2.821,2.821,0,0,0,74.213,14.623ZM86.763,19H84.136V17.708H84.1A2.933,2.933,0,0,1,81.42,19.22a2.8,2.8,0,0,1-2.061-.743,2.661,2.661,0,0,1-.751-1.982q0-2.619,3.1-3.023l2.443-.325q0-1.477-1.6-1.477a5.46,5.46,0,0,0-3.059.958V10.536a6.881,6.881,0,0,1,1.586-.527,8.339,8.339,0,0,1,1.833-.229q3.85,0,3.85,3.841Zm-2.61-3.656v-.606l-1.635.211q-1.354.176-1.354,1.222a1.01,1.01,0,0,0,.33.778,1.266,1.266,0,0,0,.892.3,1.644,1.644,0,0,0,1.274-.541A1.952,1.952,0,0,0,84.153,15.344ZM19.967,44.658V49H17.128V36.4h4.447q4.764,0,4.764,4.017a3.854,3.854,0,0,1-1.367,3.072,5.414,5.414,0,0,1-3.652,1.173Zm0-6.082V42.5h1.116q2.268,0,2.268-1.986,0-1.942-2.268-1.942ZM33.783,42.5a2.409,2.409,0,0,0-1.169-.272A1.684,1.684,0,0,0,31.2,42.9a2.9,2.9,0,0,0-.51,1.806V49H27.912V40h2.777v1.67h.035A2.4,2.4,0,0,1,33.1,39.842a1.788,1.788,0,0,1,.686.105Zm9.308,2.786H37.219q.141,1.96,2.47,1.96a4.822,4.822,0,0,0,2.61-.7v2a6.858,6.858,0,0,1-3.243.668,4.189,4.189,0,0,1-4.588-4.579,4.816,4.816,0,0,1,1.3-3.551,4.334,4.334,0,0,1,3.2-1.31,3.933,3.933,0,0,1,3.045,1.169,4.5,4.5,0,0,1,1.077,3.173Zm-2.575-1.705q0-1.934-1.564-1.934a1.494,1.494,0,0,0-1.156.554,2.513,2.513,0,0,0-.593,1.38Zm11.048,5.089a5.492,5.492,0,0,1-2.716.545,4.593,4.593,0,0,1-3.357-1.257,4.341,4.341,0,0,1-1.283-3.243A4.782,4.782,0,0,1,45.582,41.1a5.083,5.083,0,0,1,3.678-1.323,4.72,4.72,0,0,1,2.3.422v2.355a3.166,3.166,0,0,0-1.942-.65,2.559,2.559,0,0,0-1.894.7,2.607,2.607,0,0,0-.7,1.929,2.565,2.565,0,0,0,.668,1.876,2.455,2.455,0,0,0,1.837.681,3.666,3.666,0,0,0,2.03-.65Zm3.226-10.1a1.622,1.622,0,0,1-1.151-.417,1.345,1.345,0,0,1-.448-1.024,1.3,1.3,0,0,1,.448-1.02,1.88,1.88,0,0,1,2.307,0,1.3,1.3,0,0,1,.444,1.02,1.34,1.34,0,0,1-.444,1.037A1.65,1.65,0,0,1,54.789,38.576ZM56.16,49H53.383V40H56.16Zm6.627.22a4.838,4.838,0,0,1-3.538-1.261,4.573,4.573,0,0,1-1.288-3.423A4.573,4.573,0,0,1,59.3,41.042,5.048,5.048,0,0,1,62.91,39.78a4.78,4.78,0,0,1,3.516,1.261A4.483,4.483,0,0,1,67.7,44.377a4.759,4.759,0,0,1-1.314,3.542A4.892,4.892,0,0,1,62.787,49.22Zm.07-7.312a1.852,1.852,0,0,0-1.529.677,2.984,2.984,0,0,0-.545,1.916q0,2.593,2.092,2.593,2,0,2-2.663Q64.87,41.907,62.857,41.907ZM76.524,36.4l-6.144,14.7H67.9l6.117-14.7ZM24.915,78.552a8.311,8.311,0,0,1-3.6.668,6.074,6.074,0,0,1-4.562-1.705,6.233,6.233,0,0,1-1.661-4.544,6.659,6.659,0,0,1,1.868-4.9A6.533,6.533,0,0,1,21.8,66.186a9.065,9.065,0,0,1,3.111.466v2.733a5.513,5.513,0,0,0-2.883-.756,3.824,3.824,0,0,0-2.865,1.116,4.142,4.142,0,0,0-1.09,3.023,4.062,4.062,0,0,0,1.028,2.914,3.633,3.633,0,0,0,2.769,1.085,5.905,5.905,0,0,0,3.041-.809ZM34.328,79H31.7V77.708h-.035a2.933,2.933,0,0,1-2.681,1.512,2.8,2.8,0,0,1-2.061-.743,2.661,2.661,0,0,1-.751-1.982q0-2.619,3.1-3.023l2.443-.325q0-1.477-1.6-1.477a5.46,5.46,0,0,0-3.059.958V70.536a6.881,6.881,0,0,1,1.586-.527,8.339,8.339,0,0,1,1.833-.229q3.85,0,3.85,3.841Zm-2.61-3.656v-.606l-1.635.211q-1.354.176-1.354,1.222a1.01,1.01,0,0,0,.33.778,1.266,1.266,0,0,0,.892.3,1.644,1.644,0,0,0,1.274-.541A1.952,1.952,0,0,0,31.718,75.344ZM39.3,79H36.525V65.676H39.3Zm3.744-10.424a1.622,1.622,0,0,1-1.151-.417,1.345,1.345,0,0,1-.448-1.024,1.3,1.3,0,0,1,.448-1.02,1.88,1.88,0,0,1,2.307,0,1.3,1.3,0,0,1,.444,1.02,1.34,1.34,0,0,1-.444,1.037A1.65,1.65,0,0,1,43.047,68.576ZM44.418,79H41.64V70h2.777Zm11.145,0H52.785V77.761H52.75a3.114,3.114,0,0,1-2.786,1.459,3.412,3.412,0,0,1-2.716-1.191A4.93,4.93,0,0,1,46.219,74.7a5.366,5.366,0,0,1,1.134-3.577,3.7,3.7,0,0,1,2.971-1.345,2.527,2.527,0,0,1,2.426,1.248h.035V65.676h2.777Zm-2.725-4.377v-.677a2.13,2.13,0,0,0-.51-1.459,1.8,1.8,0,0,0-2.769.145,3.367,3.367,0,0,0-.519,1.991,2.914,2.914,0,0,0,.5,1.828,1.779,1.779,0,0,0,2.764-.035A2.821,2.821,0,0,0,52.838,74.623ZM65.388,79H62.761V77.708h-.035a2.933,2.933,0,0,1-2.681,1.512,2.8,2.8,0,0,1-2.061-.743,2.661,2.661,0,0,1-.751-1.982q0-2.619,3.1-3.023l2.443-.325q0-1.477-1.6-1.477a5.46,5.46,0,0,0-3.059.958V70.536a6.881,6.881,0,0,1,1.586-.527,8.339,8.339,0,0,1,1.833-.229q3.85,0,3.85,3.841Zm-2.61-3.656v-.606l-1.635.211q-1.354.176-1.354,1.222a1.01,1.01,0,0,0,.33.778,1.266,1.266,0,0,0,.892.3,1.644,1.644,0,0,0,1.274-.541A1.952,1.952,0,0,0,62.778,75.344ZM76.392,79H73.615V77.761H73.58a3.114,3.114,0,0,1-2.786,1.459,3.412,3.412,0,0,1-2.716-1.191A4.93,4.93,0,0,1,67.05,74.7a5.366,5.366,0,0,1,1.134-3.577,3.7,3.7,0,0,1,2.971-1.345,2.527,2.527,0,0,1,2.426,1.248h.035V65.676h2.777Zm-2.725-4.377v-.677a2.13,2.13,0,0,0-.51-1.459,1.8,1.8,0,0,0-2.769.145,3.367,3.367,0,0,0-.519,1.991,2.914,2.914,0,0,0,.5,1.828,1.779,1.779,0,0,0,2.764-.035A2.821,2.821,0,0,0,73.668,74.623Z" transform="translate(14.469 15.091)" fill="#00223d"/>
        </g>
      </g>
      <g id="Grupo_1101529" data-name="Grupo 1101529" transform="translate(-10936.464 -1082.543)">
        <g id="Grupo_1101525" data-name="Grupo 1101525" transform="translate(0 0)">
          <rect id="Rectángulo_4418" data-name="Rectángulo 4418" width="115.464" height="105.831" fill="#d8e9fb"/>
          <path id="Trazado_1007624" data-name="Trazado 1007624" d="M15.1,19H7.539V6.4h7.269V8.708h-4.43v2.8H14.5v2.3H10.378V16.7H15.1Zm8.569-.325a5.492,5.492,0,0,1-2.716.545,4.593,4.593,0,0,1-3.357-1.257,4.341,4.341,0,0,1-1.283-3.243A4.782,4.782,0,0,1,17.686,11.1,5.083,5.083,0,0,1,21.364,9.78a4.72,4.72,0,0,1,2.3.422v2.355a3.166,3.166,0,0,0-1.942-.65,2.559,2.559,0,0,0-1.894.7,2.607,2.607,0,0,0-.7,1.929,2.565,2.565,0,0,0,.668,1.876,2.455,2.455,0,0,0,1.837.681,3.666,3.666,0,0,0,2.03-.65Zm6.108.545a4.838,4.838,0,0,1-3.538-1.261,4.573,4.573,0,0,1-1.288-3.423,4.573,4.573,0,0,1,1.336-3.494A5.048,5.048,0,0,1,29.9,9.78a4.78,4.78,0,0,1,3.516,1.261,4.483,4.483,0,0,1,1.274,3.335,4.759,4.759,0,0,1-1.314,3.542A4.892,4.892,0,0,1,29.775,19.22Zm.07-7.312a1.852,1.852,0,0,0-1.529.677,2.984,2.984,0,0,0-.545,1.916q0,2.593,2.092,2.593,2,0,2-2.663Q31.858,11.907,29.846,11.907ZM45.183,19H42.414V14q0-2.092-1.494-2.092a1.483,1.483,0,0,0-1.187.554,2.109,2.109,0,0,0-.466,1.406V19H36.49V10h2.777v1.424H39.3A3.183,3.183,0,0,1,42.194,9.78q2.988,0,2.988,3.709Zm6.486.22a4.838,4.838,0,0,1-3.538-1.261,4.573,4.573,0,0,1-1.288-3.423,4.573,4.573,0,0,1,1.336-3.494A5.048,5.048,0,0,1,51.792,9.78a4.78,4.78,0,0,1,3.516,1.261,4.483,4.483,0,0,1,1.274,3.335,4.759,4.759,0,0,1-1.314,3.542A4.892,4.892,0,0,1,51.669,19.22Zm.07-7.312a1.852,1.852,0,0,0-1.529.677,2.984,2.984,0,0,0-.545,1.916q0,2.593,2.092,2.593,2,0,2-2.663Q53.752,11.907,51.739,11.907Zm2.979-6.17L51.968,8.576h-2l2.285-2.839ZM72.666,19H69.9V13.867q0-1.96-1.441-1.96a1.324,1.324,0,0,0-1.116.589,2.42,2.42,0,0,0-.431,1.468V19H64.132V13.814q0-1.907-1.415-1.907a1.356,1.356,0,0,0-1.138.563A2.475,2.475,0,0,0,61.152,14v5H58.375V10h2.777v1.406h.035A3.41,3.41,0,0,1,64.1,9.78a2.592,2.592,0,0,1,2.61,1.679A3.329,3.329,0,0,1,69.73,9.78q2.936,0,2.936,3.621Zm3.6-10.424a1.622,1.622,0,0,1-1.151-.417,1.345,1.345,0,0,1-.448-1.024,1.3,1.3,0,0,1,.448-1.02,1.88,1.88,0,0,1,2.307,0,1.3,1.3,0,0,1,.444,1.02,1.34,1.34,0,0,1-.444,1.037A1.65,1.65,0,0,1,76.27,8.576ZM77.641,19H74.863V10h2.777Zm9.158-.325a5.492,5.492,0,0,1-2.716.545,4.593,4.593,0,0,1-3.357-1.257,4.341,4.341,0,0,1-1.283-3.243A4.782,4.782,0,0,1,80.818,11.1,5.083,5.083,0,0,1,84.5,9.78a4.72,4.72,0,0,1,2.3.422v2.355a3.166,3.166,0,0,0-1.942-.65,2.559,2.559,0,0,0-1.894.7,2.607,2.607,0,0,0-.7,1.929,2.565,2.565,0,0,0,.668,1.876,2.455,2.455,0,0,0,1.837.681,3.666,3.666,0,0,0,2.03-.65ZM96.106,19H93.479V17.708h-.035a2.933,2.933,0,0,1-2.681,1.512,2.8,2.8,0,0,1-2.061-.743A2.661,2.661,0,0,1,87.95,16.5q0-2.619,3.1-3.023l2.443-.325q0-1.477-1.6-1.477a5.46,5.46,0,0,0-3.059.958V10.536a6.881,6.881,0,0,1,1.586-.527,8.339,8.339,0,0,1,1.833-.229q3.85,0,3.85,3.841ZM93.5,15.344v-.606l-1.635.211q-1.354.176-1.354,1.222a1.01,1.01,0,0,0,.33.778,1.266,1.266,0,0,0,.892.3A1.644,1.644,0,0,0,93,16.71,1.952,1.952,0,0,0,93.5,15.344Z" transform="translate(6.232 40.916)" fill="#00223d"/>
        </g>
      </g>
    </g>
  </g>
</svg>
