<svg xmlns="http://www.w3.org/2000/svg" xmlns:xlink="http://www.w3.org/1999/xlink" width="1030" height="430.049" viewBox="0 0 1030 430.049">
  <defs>
    <clipPath id="clip-path">
      <rect id="Rectángulo_401791" data-name="Rectángulo 401791" width="1030" height="430.048" transform="translate(0 -0.299)" fill="#fff" stroke="#707070" stroke-width="1"/>
    </clipPath>
    <clipPath id="clip-path-2">
      <path id="Trazado_873858" data-name="Trazado 873858" d="M64.785,1041.99l1001.782,71.49L1001.782,71.49,0,0Z" fill="#fff"/>
    </clipPath>
    <clipPath id="clip-path-3">
      <path id="Trazado_873019" data-name="Trazado 873019" d="M597.858,875.762C405.391,819.6,219.613,693.67,83.77,515.871,49.179,470.58,17.282,420.96.454,365.669S-16.267,248.351,10.3,205.082c34.3-55.862,101.757-68.457,172.141-81.214-22.782-13.084-34.574-46.509-29.353-72.684C164.244-4.762,221.772-12.532,270.437-7.379,432.627,9.8,588.678,113.061,725.053,233.761c71.645,63.413,140.653,133.4,193.4,217.527C953.112,506.561,983.6,586.063,942.2,632.643c-19.1,21.491-54.59,24.3-78.959-2.148,39.336,48.066,44.96,122.148,20.773,173.4s-73.107,80.969-125.189,89.5a256.761,256.761,0,0,1-59.774,2.292c-33.588-2.381-67.7-10.149-101.2-19.925" fill="#fff"/>
    </clipPath>
    <clipPath id="clip-path-4">
      <path id="Trazado_873859" data-name="Trazado 873859" d="M31.951,1134.462l986.686-51.457,46.63-1055.67L78.582,78.792Z" fill="#fff"/>
    </clipPath>
    <clipPath id="clip-path-5">
      <path id="Trazado_873019-2" data-name="Trazado 873019" d="M554.086,869.558C369.037,836.128,198.053,730.653,82.153,566.02c-29.51-41.939-55.886-88.631-66.7-142.985s-4.106-117.687,26.87-165.159c39.988-61.287,108.285-82.525,179.5-104.29-21.219-10.527-29.364-43.184-21.4-70.553,17.027-58.5,74.953-73.576,122.706-74.361,159.149-2.605,303.041,83.421,425.547,189.7,64.358,55.836,125.4,118.709,168.8,198.04,28.514,52.12,50.312,129.492,4.265,182.186-21.241,24.311-56.77,31.592-78.141,7.615,33.925,44.182,31.62,119.11,2.158,174.431s-81.181,91.739-133.782,106.921a263.844,263.844,0,0,1-59.571,9.764c-33.084,1.742-66.116-1.952-98.32-7.77" fill="#fff"/>
    </clipPath>
  </defs>
  <g id="Grupo_1101235" data-name="Grupo 1101235" transform="translate(-285 -9370)">
    <g id="Enmascarar_grupo_1098763" data-name="Enmascarar grupo 1098763" transform="translate(285 9370.3)" clip-path="url(#clip-path)">
      <g id="Grupo_1100845" data-name="Grupo 1100845" transform="translate(-517.484 -431.919)">
        <path id="Trazado_870126" data-name="Trazado 870126" d="M14.826,682.438H1015.174c8.188,0,14.826-11.45,14.826-25.575V25.575C1030,11.45,1023.362,0,1015.174,0H14.826C6.638,0,0,11.45,0,25.575V656.863C0,670.987,6.638,682.438,14.826,682.438Z" transform="translate(517.484 431.777)" fill="#f6f6f6"/>
        <g id="Grupo_1099032" data-name="Grupo 1099032" transform="translate(1744.522 1431.943) rotate(-158)" opacity="0.49" style="isolation: isolate">
          <g id="Grupo_1099028" data-name="Grupo 1099028" transform="translate(0 0)">
            <g id="Grupo_1099027" data-name="Grupo 1099027" clip-path="url(#clip-path-2)">
              <path id="Trazado_873014" data-name="Trazado 873014" d="M863.244,630.5c39.336,48.066,44.951,122.147,20.773,173.4S810.9,884.861,758.828,893.4s-107.33-1.973-160.97-17.622C405.391,819.6,219.6,693.67,83.769,515.872c-34.59-45.28-66.5-94.912-83.316-150.2S-16.267,248.362,10.3,205.093c34.288-55.862,101.757-68.468,172.141-81.224-22.791-13.085-34.573-46.5-29.353-72.684C164.243-4.761,221.762-12.532,270.427-7.379,432.626,9.8,588.678,113.072,725.043,233.762c71.645,63.413,140.653,133.4,193.4,217.527C953.111,506.572,983.6,586.064,942.2,632.655c-19.1,21.48-54.591,24.294-78.96-2.159" transform="translate(76.772 101.175)" fill="#fff"/>
            </g>
          </g>
          <g id="Grupo_1099030" data-name="Grupo 1099030" transform="translate(76.772 101.176)">
            <g id="Grupo_1099029" data-name="Grupo 1099029" transform="translate(0 0)" clip-path="url(#clip-path-3)">
              <path id="Trazado_873015" data-name="Trazado 873015" d="M-.066,1.713S495.242-74.245,441.513,489.629" transform="translate(-42.8 365.342)" fill="#fff"/>
              <path id="Trazado_873016" data-name="Trazado 873016" d="M-.219,5.652s438-138.986,672.8,757.974" transform="translate(-56.352 139.667)" fill="#fff"/>
              <path id="Trazado_873017" data-name="Trazado 873017" d="M0,0S288.415-15.2,487.744,424s205.228,650.782,205.228,650.782" transform="translate(93.751 -82.613)" fill="#fff"/>
              <path id="Trazado_873018" data-name="Trazado 873018" d="M407.559,665.133S368.905,281.195,0,0" transform="translate(525.123 52.986)" fill="#fff"/>
            </g>
          </g>
        </g>
        <ellipse id="Elipse_11441" data-name="Elipse 11441" cx="259.577" cy="313.99" rx="259.577" ry="313.99" transform="translate(532.436 686)" fill="#e8e8e8" opacity="0.37" style="mix-blend-mode: multiply;isolation: isolate"/>
        <ellipse id="Elipse_11485" data-name="Elipse 11485" cx="259.749" cy="314.701" rx="259.749" ry="314.701" transform="translate(272.541 249.692)" fill="#fff" opacity="0.65"/>
        <ellipse id="Elipse_11493" data-name="Elipse 11493" cx="259.749" cy="314.701" rx="259.749" ry="314.701" transform="translate(1213.686 652.016)" fill="#fff" opacity="0.65"/>
        <g id="Grupo_1099196" data-name="Grupo 1099196" transform="matrix(-0.966, 0.259, -0.259, -0.966, 1360.527, 1347.34)" opacity="0.3" style="isolation: isolate">
          <g id="Grupo_1099028-2" data-name="Grupo 1099028" transform="translate(0 0)">
            <g id="Grupo_1099027-2" data-name="Grupo 1099027" clip-path="url(#clip-path-4)">
              <path id="Trazado_873014-2" data-name="Trazado 873014" d="M843.6,586.211c33.925,44.182,31.611,119.11,2.158,174.431s-81.19,91.739-133.782,106.921-106.318,11.318-157.891,2.005C369.037,836.128,198.044,730.653,82.154,566.02c-29.511-41.928-55.9-88.631-66.7-142.985s-4.106-117.677,26.87-165.148c39.979-61.286,108.285-82.535,179.5-104.3-21.228-10.527-29.365-43.174-21.4-70.553,17.027-58.5,74.943-73.576,122.7-74.361C482.28,6.067,626.172,92.1,748.67,198.37c64.359,55.836,125.4,118.708,168.8,198.04,28.523,52.13,50.321,129.492,4.273,182.2-21.24,24.3-56.769,31.581-78.14,7.6" transform="translate(90.079 122.744)" fill="#fff"/>
            </g>
          </g>
          <g id="Grupo_1099030-2" data-name="Grupo 1099030" transform="translate(90.079 122.743)">
            <g id="Grupo_1099029-2" data-name="Grupo 1099029" transform="translate(0 0)" clip-path="url(#clip-path-5)">
              <path id="Trazado_873015-2" data-name="Trazado 873015" d="M.5,17.749S500.194-121.319,386.836,460.987" transform="translate(-28.193 412.084)" fill="#fff"/>
              <path id="Trazado_873016-2" data-name="Trazado 873016" d="M.6,21.306S450.121-174.984,587.674,711.513" transform="translate(-18.289 183.868)" fill="#fff"/>
              <path id="Trazado_873017-2" data-name="Trazado 873017" d="M.079,2.811S287.958-48.538,439.04,375.068s134.412,638.859,134.412,638.859" transform="translate(155.696 -48.991)" fill="#fff"/>
              <path id="Trazado_873018-2" data-name="Trazado 873018" d="M333.7,628.377S336.213,241.234,0,0" transform="translate(569.488 38.661)" fill="#fff"/>
            </g>
          </g>
        </g>
        <g id="Grupo_1099197" data-name="Grupo 1099197" transform="translate(288.098 70.71)">
          <path id="Trazado_873021" data-name="Trazado 873021" d="M650.6-34.727S590.725,445.664-17.845,331.812" transform="translate(858.816 0) rotate(43)" fill="none" stroke="#e8e8e8" stroke-linecap="round" stroke-linejoin="round" stroke-width="1"/>
          <path id="Trazado_873022" data-name="Trazado 873022" d="M104.9,266.84S-95.049,97.744,45.8-2.445" transform="translate(1250.014 566.015) rotate(43)" fill="none" stroke="#e8e8e8" stroke-linecap="round" stroke-linejoin="round" stroke-width="1"/>
          <path id="Trazado_873023" data-name="Trazado 873023" d="M617.375,281.229C581.755,115.24,526.837,92.567,418.579,73.6S319.58-57.628,155.27,7.3-9.262,172.577-9.262,172.577" transform="translate(227.282 730.861) rotate(43)" fill="none" stroke="#e8e8e8" stroke-linecap="round" stroke-linejoin="round" stroke-width="1"/>
          <path id="Trazado_873024" data-name="Trazado 873024" d="M183.612,166.082S281.479,70.226,206.938,7.754-4.5,83.641-4.5,83.641" transform="translate(266.674 910.188) rotate(43)" fill="none" stroke="#e8e8e8" stroke-linecap="round" stroke-linejoin="round" stroke-width="1"/>
          <path id="Trazado_873025" data-name="Trazado 873025" d="M266.3-14.214C286.014,111.453,152.253,216.161-6.409,119.167" transform="translate(865.734 193.166) rotate(43)" fill="none" stroke="#e8e8e8" stroke-linecap="round" stroke-linejoin="round" stroke-width="1"/>
          <path id="Trazado_873026" data-name="Trazado 873026" d="M399.556,594.044c-41.244-15.357-79.849-47.764-93.443-86.6s3.649-81.767,33.418-93.166c-43.831,8.744-88.063,17.526-134.684,17.077S108.409,420.511,65.758,394.2s-76.7-70.32-80-114.038c-3.828-50.744,31.963-89.378,68.881-120.115C162.391,70.336,296.687,6.669,446.23-20.395,493.736-28.99,547.924-32.84,594.6-5.913,639.2,19.82,665.965,69.27,669.371,114.239s-13.2,85.878-35.725,121.374-51.051,66.861-75.811,99.357c25.144,1.623,50.587,3.3,75.719,10.561s50.319,20.815,66.877,41.206a92.676,92.676,0,0,1,17.747,81.2c-6.754,25.705-23.722,46.618-43.249,64.259-40.3,36.4-92.919,61.04-151.306,70.863-22.676,3.814-46.621,5.34-70.705,3.041a209.509,209.509,0,0,1-53.361-12.053" transform="translate(820.314 158.273) rotate(43)" fill="none"/>
        </g>
      </g>
    </g>
    <g id="Grupo_17625" data-name="Grupo 17625" transform="translate(119.969 7767.653)">
      <rect id="Rectángulo_4411" data-name="Rectángulo 4411" width="262.335" height="122.551" transform="translate(532.895 1675.468) rotate(90)" fill="#ffede7"/>
      <rect id="Rectángulo_4412" data-name="Rectángulo 4412" width="262.335" height="122.551" transform="translate(655.446 1675.468) rotate(90)" fill="#eff5d6"/>
      <rect id="Rectángulo_4413" data-name="Rectángulo 4413" width="262.335" height="122.551" transform="translate(777.998 1675.468) rotate(90)" fill="#fff8da"/>
      <rect id="Rectángulo_4414" data-name="Rectángulo 4414" width="262.335" height="122.551" transform="translate(900.549 1675.468) rotate(90)" fill="#eff3f6"/>
      <path id="Trazado_28139" data-name="Trazado 28139" d="M887.437,1931.688l-1.35,1.45,5.021,4.665H363.822V1638.384l4.663,5.017,1.449-1.35-8.093-8.7-8.091,8.7,1.449,1.35,4.665-5.02v351.876h3.958v-48.5H891.1l-5.016,4.663,1.35,1.449,8.7-8.093Z" transform="translate(48.995)" fill="#00223d"/>
      <g id="Grupo_1101558" data-name="Grupo 1101558">
        <path id="Trazado_1007606" data-name="Trazado 1007606" d="M44.8,7.852H41.6V17H39.069V7.852h-3.18V5.8H44.8Zm2.516-.117a1.442,1.442,0,0,1-1.023-.371,1.2,1.2,0,0,1-.4-.91,1.153,1.153,0,0,1,.4-.906,1.671,1.671,0,0,1,2.051,0,1.158,1.158,0,0,1,.395.906,1.191,1.191,0,0,1-.395.922A1.466,1.466,0,0,1,47.311,7.734ZM48.53,17H46.061V9H48.53ZM57.8,13.7H52.576q.125,1.742,2.2,1.742a4.286,4.286,0,0,0,2.32-.625V16.6a6.1,6.1,0,0,1-2.883.594A4.058,4.058,0,0,1,51.2,16.121a4.058,4.058,0,0,1-1.07-3,4.281,4.281,0,0,1,1.156-3.156A3.852,3.852,0,0,1,54.131,8.8a3.5,3.5,0,0,1,2.707,1.039,4,4,0,0,1,.957,2.82Zm-2.289-1.516q0-1.719-1.391-1.719a1.328,1.328,0,0,0-1.027.492,2.234,2.234,0,0,0-.527,1.227ZM71.967,17H69.506V12.438q0-1.742-1.281-1.742a1.177,1.177,0,0,0-.992.523,2.151,2.151,0,0,0-.383,1.3V17H64.381V12.391q0-1.7-1.258-1.7a1.206,1.206,0,0,0-1.012.5,2.2,2.2,0,0,0-.379,1.359V17H59.264V9h2.469v1.25h.031A3.031,3.031,0,0,1,64.35,8.8,2.3,2.3,0,0,1,66.67,10.3,2.959,2.959,0,0,1,69.358,8.8q2.609,0,2.609,3.219Zm4.453-.93h-.031V20.68H73.92V9h2.469v1.2h.031a3.142,3.142,0,0,1,4.973-.332,4.54,4.54,0,0,1,.848,2.9,4.922,4.922,0,0,1-.988,3.211A3.222,3.222,0,0,1,78.623,17.2,2.491,2.491,0,0,1,76.42,16.07Zm-.07-3.281v.641a2.037,2.037,0,0,0,.438,1.352,1.424,1.424,0,0,0,1.148.523,1.514,1.514,0,0,0,1.309-.652,3.15,3.15,0,0,0,.465-1.848q0-2.109-1.641-2.109a1.541,1.541,0,0,0-1.238.574A2.29,2.29,0,0,0,76.35,12.789Zm11.3,4.406a4.3,4.3,0,0,1-3.145-1.121,4.064,4.064,0,0,1-1.145-3.043,4.065,4.065,0,0,1,1.188-3.105A4.487,4.487,0,0,1,87.764,8.8a4.249,4.249,0,0,1,3.125,1.121,3.985,3.985,0,0,1,1.133,2.965,4.23,4.23,0,0,1-1.168,3.148A4.348,4.348,0,0,1,87.655,17.2Zm.063-6.5a1.647,1.647,0,0,0-1.359.6,2.653,2.653,0,0,0-.484,1.7q0,2.3,1.859,2.3,1.773,0,1.773-2.367Q89.506,10.7,87.717,10.7Z" transform="translate(945.135 1917.962)" fill="#12263f"/>
        <path id="Trazado_1007599" data-name="Trazado 1007599" d="M35.121,17H28.4V5.8h6.461V7.852H30.925v2.492h3.664v2.047H30.925v2.563h4.2Zm9.156,0H41.816V15.781h-.039A2.792,2.792,0,0,1,39.332,17.2q-2.781,0-2.781-3.367V9h2.461v4.609q0,1.7,1.344,1.7a1.329,1.329,0,0,0,1.063-.465,1.874,1.874,0,0,0,.4-1.262V9h2.461Zm7.3-5.773a2.142,2.142,0,0,0-1.039-.242,1.5,1.5,0,0,0-1.258.59,2.573,2.573,0,0,0-.453,1.605V17H46.355V9h2.469v1.484h.031a2.136,2.136,0,0,1,2.109-1.625,1.59,1.59,0,0,1,.609.094Zm4.9,5.969a4.3,4.3,0,0,1-3.145-1.121,4.064,4.064,0,0,1-1.145-3.043,4.065,4.065,0,0,1,1.188-3.105A4.487,4.487,0,0,1,56.582,8.8a4.249,4.249,0,0,1,3.125,1.121,3.985,3.985,0,0,1,1.133,2.965,4.23,4.23,0,0,1-1.168,3.148A4.348,4.348,0,0,1,56.472,17.2Zm.063-6.5a1.647,1.647,0,0,0-1.359.6,2.653,2.653,0,0,0-.484,1.7q0,2.3,1.859,2.3,1.773,0,1.773-2.367Q58.324,10.7,56.535,10.7Zm5.383,6.094v-2a5.256,5.256,0,0,0,1.215.547,4.028,4.028,0,0,0,1.145.18,2.455,2.455,0,0,0,1.035-.18.581.581,0,0,0,.379-.547.506.506,0,0,0-.172-.391,1.6,1.6,0,0,0-.441-.273,5.009,5.009,0,0,0-.59-.211q-.32-.094-.617-.211a5.914,5.914,0,0,1-.84-.387,2.427,2.427,0,0,1-.609-.48,1.889,1.889,0,0,1-.375-.633,2.525,2.525,0,0,1-.129-.852A2.192,2.192,0,0,1,62.21,10.2a2.393,2.393,0,0,1,.781-.793,3.57,3.57,0,0,1,1.117-.453A5.825,5.825,0,0,1,65.417,8.8a7.261,7.261,0,0,1,1.078.082,8.047,8.047,0,0,1,1.078.238v1.906a3.9,3.9,0,0,0-1-.41,4.235,4.235,0,0,0-1.051-.137,2.328,2.328,0,0,0-.457.043,1.505,1.505,0,0,0-.379.125.7.7,0,0,0-.258.211.486.486,0,0,0-.094.293.541.541,0,0,0,.141.375,1.221,1.221,0,0,0,.367.27,3.625,3.625,0,0,0,.5.2q.277.09.551.184a7.161,7.161,0,0,1,.891.375,2.848,2.848,0,0,1,.684.477,1.872,1.872,0,0,1,.438.641,2.563,2.563,0,0,1-.156,2.09,2.471,2.471,0,0,1-.82.82,3.72,3.72,0,0,1-1.18.461,6.54,6.54,0,0,1-1.387.145A7.149,7.149,0,0,1,61.917,16.789Z" transform="translate(303.698 1652.693)" fill="#12263f"/>
        <path id="Trazado_1007600" data-name="Trazado 1007600" d="M2.781,17H1.469V5.8H2.781ZM12.2,17H10.914V12.438q0-2.547-1.859-2.547a2.017,2.017,0,0,0-1.59.723,2.679,2.679,0,0,0-.629,1.824V17H5.555V9H6.836v1.328h.031A2.887,2.887,0,0,1,9.492,8.813,2.448,2.448,0,0,1,11.5,9.66a3.776,3.776,0,0,1,.7,2.449Zm6.125-.078a2.47,2.47,0,0,1-1.2.25q-2.1,0-2.1-2.344V10.094H13.648V9h1.375V7.047L16.3,6.633V9H18.32v1.094H16.3V14.6a1.869,1.869,0,0,0,.273,1.148,1.091,1.091,0,0,0,.906.344,1.347,1.347,0,0,0,.836-.266ZM24.2,10.3a1.567,1.567,0,0,0-.969-.258,1.635,1.635,0,0,0-1.371.773,3.576,3.576,0,0,0-.551,2.109V17H20.031V9h1.281v1.648h.031a2.793,2.793,0,0,1,.836-1.316,1.906,1.906,0,0,1,1.258-.473,2.092,2.092,0,0,1,.766.109Zm4.734,6.891a3.711,3.711,0,0,1-2.832-1.121,4.153,4.153,0,0,1-1.059-2.973,4.326,4.326,0,0,1,1.1-3.148,3.96,3.96,0,0,1,2.977-1.133,3.588,3.588,0,0,1,2.793,1.1,4.368,4.368,0,0,1,1,3.055,4.3,4.3,0,0,1-1.082,3.066A3.791,3.791,0,0,1,28.938,17.188Zm.094-7.3a2.437,2.437,0,0,0-1.953.84,3.449,3.449,0,0,0-.719,2.316,3.262,3.262,0,0,0,.727,2.242,2.469,2.469,0,0,0,1.945.82,2.342,2.342,0,0,0,1.91-.8,3.492,3.492,0,0,0,.668-2.289,3.552,3.552,0,0,0-.668-2.312A2.332,2.332,0,0,0,29.031,9.891ZM41.8,17H40.516V15.641h-.031a2.958,2.958,0,0,1-2.75,1.547,2.988,2.988,0,0,1-2.41-1.074,4.407,4.407,0,0,1-.9-2.926,4.794,4.794,0,0,1,1-3.18,3.3,3.3,0,0,1,2.664-1.2,2.564,2.564,0,0,1,2.4,1.3h.031V5.156H41.8Zm-1.281-3.617V12.2a2.289,2.289,0,0,0-.641-1.641,2.149,2.149,0,0,0-1.625-.672,2.212,2.212,0,0,0-1.844.859,3.766,3.766,0,0,0-.672,2.375,3.387,3.387,0,0,0,.645,2.184,2.107,2.107,0,0,0,1.73.8,2.188,2.188,0,0,0,1.738-.773A2.882,2.882,0,0,0,40.516,13.383ZM50.859,17H49.578V15.734h-.031a2.631,2.631,0,0,1-2.469,1.453q-2.859,0-2.859-3.406V9h1.273v4.578q0,2.531,1.938,2.531a1.96,1.96,0,0,0,1.543-.691,2.645,2.645,0,0,0,.605-1.809V9h1.281Zm8.039-.367a4.163,4.163,0,0,1-2.187.555,3.622,3.622,0,0,1-2.762-1.113A4.035,4.035,0,0,1,52.9,13.188a4.435,4.435,0,0,1,1.133-3.176,3.963,3.963,0,0,1,3.023-1.2,4.209,4.209,0,0,1,1.859.391v1.313a3.258,3.258,0,0,0-1.906-.625A2.576,2.576,0,0,0,55,10.77a3.335,3.335,0,0,0-.785,2.309,3.176,3.176,0,0,0,.738,2.219,2.545,2.545,0,0,0,1.98.813,3.211,3.211,0,0,0,1.969-.7Zm7.391,0a4.163,4.163,0,0,1-2.187.555,3.622,3.622,0,0,1-2.762-1.113,4.035,4.035,0,0,1-1.051-2.887,4.435,4.435,0,0,1,1.133-3.176,3.963,3.963,0,0,1,3.023-1.2A4.209,4.209,0,0,1,66.3,9.2v1.313A3.258,3.258,0,0,0,64.4,9.891a2.576,2.576,0,0,0-2.012.879,3.335,3.335,0,0,0-.785,2.309A3.176,3.176,0,0,0,62.34,15.3a2.545,2.545,0,0,0,1.98.813,3.211,3.211,0,0,0,1.969-.7Zm2.594-9.664a.812.812,0,0,1-.586-.234.791.791,0,0,1-.242-.594.821.821,0,0,1,.828-.836.827.827,0,0,1,.6.238.835.835,0,0,1,0,1.184A.82.82,0,0,1,68.883,6.969ZM69.508,17H68.227V9h1.281Zm5.938.188a3.711,3.711,0,0,1-2.832-1.121,4.153,4.153,0,0,1-1.059-2.973,4.326,4.326,0,0,1,1.1-3.148,3.96,3.96,0,0,1,2.977-1.133,3.588,3.588,0,0,1,2.793,1.1,4.368,4.368,0,0,1,1,3.055,4.3,4.3,0,0,1-1.082,3.066A3.791,3.791,0,0,1,75.445,17.188Zm.094-7.3a2.437,2.437,0,0,0-1.953.84,3.449,3.449,0,0,0-.719,2.316,3.262,3.262,0,0,0,.727,2.242,2.469,2.469,0,0,0,1.945.82,2.342,2.342,0,0,0,1.91-.8,3.492,3.492,0,0,0,.668-2.289,3.552,3.552,0,0,0-.668-2.312A2.332,2.332,0,0,0,75.539,9.891Zm1.875-4.969L75.367,7.484h-.992l1.742-2.562ZM88.117,17H86.836V12.438q0-2.547-1.859-2.547a2.017,2.017,0,0,0-1.59.723,2.679,2.679,0,0,0-.629,1.824V17H81.477V9h1.281v1.328h.031a2.887,2.887,0,0,1,2.625-1.516,2.448,2.448,0,0,1,2.008.848,3.776,3.776,0,0,1,.7,2.449Z" transform="translate(424.756 1694.205)" fill="#12263f"/>
        <path id="Trazado_1007601" data-name="Trazado 1007601" d="M9.094,16.531A6.571,6.571,0,0,1,6,17.188a4.989,4.989,0,0,1-3.828-1.539A5.679,5.679,0,0,1,.734,11.609,5.952,5.952,0,0,1,2.352,7.266a5.489,5.489,0,0,1,4.1-1.656,6.576,6.576,0,0,1,2.641.461v1.4A5.355,5.355,0,0,0,6.438,6.8,4.076,4.076,0,0,0,3.309,8.086a4.856,4.856,0,0,0-1.2,3.445A4.621,4.621,0,0,0,3.23,14.793a3.815,3.815,0,0,0,2.941,1.215,5.518,5.518,0,0,0,2.922-.75ZM15.375,10.3a1.567,1.567,0,0,0-.969-.258,1.635,1.635,0,0,0-1.371.773,3.576,3.576,0,0,0-.551,2.109V17H11.2V9h1.281v1.648h.031a2.793,2.793,0,0,1,.836-1.316,1.906,1.906,0,0,1,1.258-.473,2.092,2.092,0,0,1,.766.109ZM23.2,13.32H17.547a2.992,2.992,0,0,0,.719,2.063,2.478,2.478,0,0,0,1.891.727,3.931,3.931,0,0,0,2.484-.891v1.2a4.643,4.643,0,0,1-2.789.766,3.381,3.381,0,0,1-2.664-1.09,4.461,4.461,0,0,1-.969-3.066,4.375,4.375,0,0,1,1.059-3.043,3.394,3.394,0,0,1,2.629-1.176,3.008,3.008,0,0,1,2.43,1.016,4.234,4.234,0,0,1,.859,2.82Zm-1.312-1.086a2.607,2.607,0,0,0-.535-1.727,1.823,1.823,0,0,0-1.465-.617,2.07,2.07,0,0,0-1.539.648,2.943,2.943,0,0,0-.781,1.7Zm8.7,4.4a4.163,4.163,0,0,1-2.187.555,3.622,3.622,0,0,1-2.762-1.113,4.035,4.035,0,0,1-1.051-2.887,4.435,4.435,0,0,1,1.133-3.176,3.963,3.963,0,0,1,3.023-1.2A4.209,4.209,0,0,1,30.6,9.2v1.313A3.258,3.258,0,0,0,28.7,9.891a2.576,2.576,0,0,0-2.012.879,3.335,3.335,0,0,0-.785,2.309,3.176,3.176,0,0,0,.738,2.219,2.545,2.545,0,0,0,1.98.813,3.211,3.211,0,0,0,1.969-.7ZM33.18,6.969a.812.812,0,0,1-.586-.234.791.791,0,0,1-.242-.594A.821.821,0,0,1,33.18,5.3a.827.827,0,0,1,.6.238.835.835,0,0,1,0,1.184A.82.82,0,0,1,33.18,6.969ZM33.8,17H32.523V9H33.8Zm13.953,0H46.477V12.406a3.466,3.466,0,0,0-.41-1.922,1.555,1.555,0,0,0-1.379-.594,1.708,1.708,0,0,0-1.395.75,2.869,2.869,0,0,0-.574,1.8V17H41.438V12.25q0-2.359-1.82-2.359a1.686,1.686,0,0,0-1.391.707,2.923,2.923,0,0,0-.547,1.84V17H36.4V9H37.68v1.266h.031A2.718,2.718,0,0,1,40.2,8.813a2.311,2.311,0,0,1,2.266,1.656,2.855,2.855,0,0,1,2.656-1.656q2.641,0,2.641,3.258ZM50.836,6.969a.812.812,0,0,1-.586-.234.791.791,0,0,1-.242-.594.821.821,0,0,1,.828-.836.827.827,0,0,1,.6.238.835.835,0,0,1,0,1.184A.82.82,0,0,1,50.836,6.969ZM51.461,17H50.18V9h1.281Zm9.023-3.68H54.836a2.992,2.992,0,0,0,.719,2.063,2.478,2.478,0,0,0,1.891.727,3.931,3.931,0,0,0,2.484-.891v1.2a4.643,4.643,0,0,1-2.789.766,3.381,3.381,0,0,1-2.664-1.09,4.461,4.461,0,0,1-.969-3.066,4.375,4.375,0,0,1,1.059-3.043A3.394,3.394,0,0,1,57.2,8.813a3.008,3.008,0,0,1,2.43,1.016,4.234,4.234,0,0,1,.859,2.82Zm-1.312-1.086a2.607,2.607,0,0,0-.535-1.727,1.823,1.823,0,0,0-1.465-.617,2.07,2.07,0,0,0-1.539.648,2.943,2.943,0,0,0-.781,1.7ZM69.063,17H67.781V12.438q0-2.547-1.859-2.547a2.017,2.017,0,0,0-1.59.723,2.679,2.679,0,0,0-.629,1.824V17H62.422V9H63.7v1.328h.031a2.887,2.887,0,0,1,2.625-1.516,2.448,2.448,0,0,1,2.008.848,3.776,3.776,0,0,1,.7,2.449Zm6.125-.078a2.47,2.47,0,0,1-1.2.25q-2.1,0-2.1-2.344V10.094H70.516V9h1.375V7.047l1.281-.414V9h2.016v1.094H73.172V14.6a1.869,1.869,0,0,0,.273,1.148,1.091,1.091,0,0,0,.906.344,1.347,1.347,0,0,0,.836-.266Zm5.055.266a3.711,3.711,0,0,1-2.832-1.121,4.153,4.153,0,0,1-1.059-2.973,4.326,4.326,0,0,1,1.1-3.148A3.96,3.96,0,0,1,80.43,8.813a3.588,3.588,0,0,1,2.793,1.1,4.368,4.368,0,0,1,1,3.055,4.3,4.3,0,0,1-1.082,3.066A3.791,3.791,0,0,1,80.242,17.188Zm.094-7.3a2.437,2.437,0,0,0-1.953.84,3.449,3.449,0,0,0-.719,2.316,3.262,3.262,0,0,0,.727,2.242,2.469,2.469,0,0,0,1.945.82,2.342,2.342,0,0,0,1.91-.8,3.492,3.492,0,0,0,.668-2.289,3.552,3.552,0,0,0-.668-2.312A2.332,2.332,0,0,0,80.336,9.891Z" transform="translate(553.222 1694.207)" fill="#12263f"/>
        <path id="Trazado_1007602" data-name="Trazado 1007602" d="M12.891,17h-1.3V9.484q0-.891.109-2.18h-.031a6.969,6.969,0,0,1-.336,1.086L7.5,17H6.859L3.039,8.453A6.7,6.7,0,0,1,2.7,7.3H2.672q.062.672.063,2.2V17H1.469V5.8H3.2l3.438,7.813a10,10,0,0,1,.516,1.344H7.2q.336-.922.539-1.375L11.25,5.8h1.641Zm8.5,0H20.109V15.75h-.031a2.682,2.682,0,0,1-2.461,1.438,2.63,2.63,0,0,1-1.871-.633,2.192,2.192,0,0,1-.676-1.68q0-2.242,2.641-2.609l2.4-.336q0-2.039-1.648-2.039a3.938,3.938,0,0,0-2.609.984V9.563a4.958,4.958,0,0,1,2.719-.75q2.82,0,2.82,2.984Zm-1.281-4.047-1.93.266a3.133,3.133,0,0,0-1.344.441,1.273,1.273,0,0,0-.453,1.121,1.221,1.221,0,0,0,.418.957,1.615,1.615,0,0,0,1.113.371,2.056,2.056,0,0,0,1.574-.668,2.387,2.387,0,0,0,.621-1.691ZM30.633,17H29.352V15.641H29.32a2.958,2.958,0,0,1-2.75,1.547,2.988,2.988,0,0,1-2.41-1.074,4.407,4.407,0,0,1-.9-2.926,4.794,4.794,0,0,1,1-3.18,3.3,3.3,0,0,1,2.664-1.2,2.564,2.564,0,0,1,2.4,1.3h.031V5.156h1.281Zm-1.281-3.617V12.2a2.289,2.289,0,0,0-.641-1.641,2.149,2.149,0,0,0-1.625-.672,2.212,2.212,0,0,0-1.844.859,3.766,3.766,0,0,0-.672,2.375,3.387,3.387,0,0,0,.645,2.184,2.107,2.107,0,0,0,1.73.8,2.188,2.188,0,0,0,1.738-.773A2.882,2.882,0,0,0,29.352,13.383ZM39.7,17H38.414V15.734h-.031a2.631,2.631,0,0,1-2.469,1.453q-2.859,0-2.859-3.406V9h1.273v4.578q0,2.531,1.938,2.531a1.96,1.96,0,0,0,1.543-.691,2.645,2.645,0,0,0,.605-1.809V9H39.7Zm6.758-6.7a1.567,1.567,0,0,0-.969-.258,1.635,1.635,0,0,0-1.371.773,3.576,3.576,0,0,0-.551,2.109V17H42.281V9h1.281v1.648h.031a2.794,2.794,0,0,1,.836-1.316,1.906,1.906,0,0,1,1.258-.473,2.092,2.092,0,0,1,.766.109Zm7.82,3.023H48.625a2.992,2.992,0,0,0,.719,2.063,2.478,2.478,0,0,0,1.891.727,3.931,3.931,0,0,0,2.484-.891v1.2a4.643,4.643,0,0,1-2.789.766,3.381,3.381,0,0,1-2.664-1.09,4.461,4.461,0,0,1-.969-3.066,4.375,4.375,0,0,1,1.059-3.043,3.394,3.394,0,0,1,2.629-1.176,3.008,3.008,0,0,1,2.43,1.016,4.234,4.234,0,0,1,.859,2.82Zm-1.312-1.086a2.607,2.607,0,0,0-.535-1.727,1.823,1.823,0,0,0-1.465-.617,2.07,2.07,0,0,0-1.539.648,2.943,2.943,0,0,0-.781,1.7Zm8.828-2.867-4.734,6.539h4.688V17h-6.57v-.4l4.734-6.508H55.617V9h6.172Z" transform="translate(683.103 1694.207)" fill="#12263f"/>
        <path id="Trazado_1007603" data-name="Trazado 1007603" d="M1.469,17V5.8H4.563q5.922,0,5.922,5.461A5.5,5.5,0,0,1,8.84,15.426,6.1,6.1,0,0,1,4.438,17ZM2.781,6.984v8.828H4.453a4.745,4.745,0,0,0,3.43-1.18,4.422,4.422,0,0,0,1.227-3.344q0-4.3-4.578-4.3ZM18.945,13.32H13.3a2.992,2.992,0,0,0,.719,2.063,2.478,2.478,0,0,0,1.891.727,3.931,3.931,0,0,0,2.484-.891v1.2a4.643,4.643,0,0,1-2.789.766,3.381,3.381,0,0,1-2.664-1.09,4.461,4.461,0,0,1-.969-3.066,4.375,4.375,0,0,1,1.059-3.043,3.394,3.394,0,0,1,2.629-1.176,3.008,3.008,0,0,1,2.43,1.016,4.234,4.234,0,0,1,.859,2.82Zm-1.312-1.086a2.607,2.607,0,0,0-.535-1.727,1.823,1.823,0,0,0-1.465-.617,2.07,2.07,0,0,0-1.539.648,2.943,2.943,0,0,0-.781,1.7Zm8.7,4.4a4.163,4.163,0,0,1-2.187.555,3.622,3.622,0,0,1-2.762-1.113,4.035,4.035,0,0,1-1.051-2.887,4.435,4.435,0,0,1,1.133-3.176,3.963,3.963,0,0,1,3.023-1.2,4.209,4.209,0,0,1,1.859.391v1.313a3.258,3.258,0,0,0-1.906-.625,2.576,2.576,0,0,0-2.012.879,3.335,3.335,0,0,0-.785,2.309,3.176,3.176,0,0,0,.738,2.219,2.545,2.545,0,0,0,1.98.813,3.211,3.211,0,0,0,1.969-.7ZM29.555,17H28.273V5.156h1.281ZM32.8,6.969a.812.812,0,0,1-.586-.234.791.791,0,0,1-.242-.594A.821.821,0,0,1,32.8,5.3a.827.827,0,0,1,.6.238.835.835,0,0,1,0,1.184A.82.82,0,0,1,32.8,6.969ZM33.43,17H32.148V9H33.43Zm8.883-8-3.187,8H37.867L34.836,9h1.406l2.031,5.813a5.217,5.217,0,0,1,.281,1.117h.031a5.283,5.283,0,0,1,.25-1.086L40.961,9Zm7.8,4.32H44.469a2.992,2.992,0,0,0,.719,2.063,2.478,2.478,0,0,0,1.891.727,3.931,3.931,0,0,0,2.484-.891v1.2a4.643,4.643,0,0,1-2.789.766,3.381,3.381,0,0,1-2.664-1.09,4.461,4.461,0,0,1-.969-3.066A4.375,4.375,0,0,1,44.2,9.988a3.394,3.394,0,0,1,2.629-1.176,3.008,3.008,0,0,1,2.43,1.016,4.234,4.234,0,0,1,.859,2.82ZM48.8,12.234a2.607,2.607,0,0,0-.535-1.727A1.823,1.823,0,0,0,46.8,9.891a2.07,2.07,0,0,0-1.539.648,2.943,2.943,0,0,0-.781,1.7Z" transform="translate(813.918 1694.207)" fill="#12263f"/>
        <path id="Trazado_1007605" data-name="Trazado 1007605" d="M1.281,17V5.8H5.359a5.093,5.093,0,0,1,2.883.688A2.211,2.211,0,0,1,9.25,8.422a2.293,2.293,0,0,1-.613,1.586,3.222,3.222,0,0,1-1.566.945v.031a3.1,3.1,0,0,1,1.91.883A2.469,2.469,0,0,1,9.7,13.656a2.99,2.99,0,0,1-1.1,2.441,4.61,4.61,0,0,1-3.008.9ZM3.8,7.656v2.656H4.914a1.849,1.849,0,0,0,1.23-.379,1.291,1.291,0,0,0,.449-1.043q0-1.234-1.844-1.234Zm0,4.531v2.953H5.172a2.1,2.1,0,0,0,1.371-.406,1.357,1.357,0,0,0,.5-1.109,1.266,1.266,0,0,0-.488-1.055,2.16,2.16,0,0,0-1.363-.383ZM18.484,13.7H13.266q.125,1.742,2.2,1.742a4.286,4.286,0,0,0,2.32-.625V16.6A6.1,6.1,0,0,1,14.9,17.2a4.058,4.058,0,0,1-3.008-1.074,4.058,4.058,0,0,1-1.07-3,4.281,4.281,0,0,1,1.156-3.156A3.852,3.852,0,0,1,14.82,8.8a3.5,3.5,0,0,1,2.707,1.039,4,4,0,0,1,.957,2.82ZM16.2,12.188q0-1.719-1.391-1.719a1.328,1.328,0,0,0-1.027.492,2.234,2.234,0,0,0-.527,1.227ZM27.68,17H25.219V12.555q0-1.859-1.328-1.859a1.318,1.318,0,0,0-1.055.492,1.875,1.875,0,0,0-.414,1.25V17H19.953V9h2.469v1.266h.031A2.829,2.829,0,0,1,25.023,8.8q2.656,0,2.656,3.3Zm9.141-3.3H31.6q.125,1.742,2.2,1.742a4.286,4.286,0,0,0,2.32-.625V16.6a6.1,6.1,0,0,1-2.883.594,4.058,4.058,0,0,1-3.008-1.074,4.058,4.058,0,0,1-1.07-3,4.281,4.281,0,0,1,1.156-3.156A3.852,3.852,0,0,1,33.156,8.8a3.5,3.5,0,0,1,2.707,1.039,4,4,0,0,1,.957,2.82Zm-2.289-1.516q0-1.719-1.391-1.719a1.328,1.328,0,0,0-1.027.492,2.234,2.234,0,0,0-.527,1.227Zm8.977-5.141a2.494,2.494,0,0,0-.914-.187q-1.188,0-1.187,1.289V9h1.828v1.82H41.406V17H38.945V10.82H37.6V9h1.344V8.008a2.88,2.88,0,0,1,.891-2.2,3.4,3.4,0,0,1,2.422-.836,4.253,4.253,0,0,1,1.25.156Zm2.164.688a1.442,1.442,0,0,1-1.023-.371,1.2,1.2,0,0,1-.4-.91,1.153,1.153,0,0,1,.4-.906,1.671,1.671,0,0,1,2.051,0,1.158,1.158,0,0,1,.395.906,1.191,1.191,0,0,1-.395.922A1.466,1.466,0,0,1,45.672,7.734ZM46.891,17H44.422V9h2.469Zm8.141-.289a4.881,4.881,0,0,1-2.414.484,4.083,4.083,0,0,1-2.984-1.117A3.859,3.859,0,0,1,48.492,13.2,4.251,4.251,0,0,1,49.715,9.98,4.518,4.518,0,0,1,52.984,8.8a4.2,4.2,0,0,1,2.047.375v2.094A2.814,2.814,0,0,0,53.3,10.7a2.275,2.275,0,0,0-1.684.621A2.317,2.317,0,0,0,51,13.031a2.28,2.28,0,0,0,.594,1.668,2.182,2.182,0,0,0,1.633.605,3.258,3.258,0,0,0,1.8-.578ZM57.9,7.734a1.442,1.442,0,0,1-1.023-.371,1.2,1.2,0,0,1-.4-.91,1.153,1.153,0,0,1,.4-.906,1.671,1.671,0,0,1,2.051,0,1.158,1.158,0,0,1,.395.906,1.191,1.191,0,0,1-.395.922A1.466,1.466,0,0,1,57.9,7.734ZM59.117,17H56.648V9h2.469Zm5.891.2a4.3,4.3,0,0,1-3.145-1.121,4.064,4.064,0,0,1-1.145-3.043,4.065,4.065,0,0,1,1.188-3.105A4.487,4.487,0,0,1,65.117,8.8a4.249,4.249,0,0,1,3.125,1.121,3.985,3.985,0,0,1,1.133,2.965,4.23,4.23,0,0,1-1.168,3.148A4.348,4.348,0,0,1,65.008,17.2Zm.063-6.5a1.647,1.647,0,0,0-1.359.6,2.653,2.653,0,0,0-.484,1.7q0,2.3,1.859,2.3,1.773,0,1.773-2.367Q66.859,10.7,65.07,10.7Zm5.383,6.094v-2a5.256,5.256,0,0,0,1.215.547,4.028,4.028,0,0,0,1.145.18,2.455,2.455,0,0,0,1.035-.18.581.581,0,0,0,.379-.547.506.506,0,0,0-.172-.391,1.6,1.6,0,0,0-.441-.273,5.009,5.009,0,0,0-.59-.211q-.32-.094-.617-.211a5.913,5.913,0,0,1-.84-.387,2.427,2.427,0,0,1-.609-.48,1.889,1.889,0,0,1-.375-.633,2.525,2.525,0,0,1-.129-.852,2.192,2.192,0,0,1,.293-1.156,2.393,2.393,0,0,1,.781-.793,3.57,3.57,0,0,1,1.117-.453A5.825,5.825,0,0,1,73.953,8.8a7.261,7.261,0,0,1,1.078.082,8.047,8.047,0,0,1,1.078.238v1.906a3.9,3.9,0,0,0-1-.41,4.235,4.235,0,0,0-1.051-.137,2.328,2.328,0,0,0-.457.043,1.505,1.505,0,0,0-.379.125.7.7,0,0,0-.258.211.486.486,0,0,0-.094.293.541.541,0,0,0,.141.375,1.221,1.221,0,0,0,.367.27,3.625,3.625,0,0,0,.5.2q.277.09.551.184a7.161,7.161,0,0,1,.891.375,2.848,2.848,0,0,1,.684.477,1.872,1.872,0,0,1,.438.641,2.563,2.563,0,0,1-.156,2.09,2.471,2.471,0,0,1-.82.82,3.72,3.72,0,0,1-1.18.461A6.54,6.54,0,0,1,72.9,17.2,7.149,7.149,0,0,1,70.453,16.789Z" transform="translate(804.755 1980.94)" fill="#12263f"/>
        <path id="Trazado_1007604" data-name="Trazado 1007604" d="M10.609,5.8,6.75,17H3.891L.078,5.8H2.8l2.336,7.8a5.584,5.584,0,0,1,.227,1.117h.047a6.314,6.314,0,0,1,.242-1.148L7.969,5.8Zm7.25,7.906H12.641q.125,1.742,2.2,1.742a4.286,4.286,0,0,0,2.32-.625V16.6a6.1,6.1,0,0,1-2.883.594,4.058,4.058,0,0,1-3.008-1.074,4.058,4.058,0,0,1-1.07-3,4.281,4.281,0,0,1,1.156-3.156A3.852,3.852,0,0,1,14.2,8.8,3.5,3.5,0,0,1,16.9,9.844a4,4,0,0,1,.957,2.82ZM15.57,12.188q0-1.719-1.391-1.719a1.328,1.328,0,0,0-1.027.492,2.234,2.234,0,0,0-.527,1.227ZM27.055,17H24.594V12.555q0-1.859-1.328-1.859a1.318,1.318,0,0,0-1.055.492,1.875,1.875,0,0,0-.414,1.25V17H19.328V9H21.8v1.266h.031A2.829,2.829,0,0,1,24.4,8.8q2.656,0,2.656,3.3Zm6.789-.094A3.649,3.649,0,0,1,32.2,17.2q-2.609,0-2.609-2.711V10.82h-1.3V9h1.3V7.273l2.461-.7V9h1.8v1.82h-1.8v3.234q0,1.25.992,1.25a1.673,1.673,0,0,0,.8-.227ZM41.891,17H39.555V15.852h-.031A2.607,2.607,0,0,1,37.141,17.2a2.492,2.492,0,0,1-1.832-.66,2.366,2.366,0,0,1-.668-1.762q0-2.328,2.758-2.687L39.57,11.8q0-1.312-1.422-1.312a4.853,4.853,0,0,0-2.719.852V9.477a6.116,6.116,0,0,1,1.41-.469,7.413,7.413,0,0,1,1.629-.2q3.422,0,3.422,3.414Zm-2.32-3.25v-.539l-1.453.188q-1.2.156-1.2,1.086a.9.9,0,0,0,.293.691,1.126,1.126,0,0,0,.793.27,1.462,1.462,0,0,0,1.133-.48A1.735,1.735,0,0,0,39.57,13.75Zm3.75,3.039v-2a5.256,5.256,0,0,0,1.215.547,4.028,4.028,0,0,0,1.145.18,2.455,2.455,0,0,0,1.035-.18.581.581,0,0,0,.379-.547.506.506,0,0,0-.172-.391,1.6,1.6,0,0,0-.441-.273,5.009,5.009,0,0,0-.59-.211q-.32-.094-.617-.211a5.914,5.914,0,0,1-.84-.387,2.427,2.427,0,0,1-.609-.48,1.889,1.889,0,0,1-.375-.633,2.525,2.525,0,0,1-.129-.852,2.192,2.192,0,0,1,.293-1.156,2.393,2.393,0,0,1,.781-.793,3.57,3.57,0,0,1,1.117-.453A5.825,5.825,0,0,1,46.82,8.8a7.261,7.261,0,0,1,1.078.082,8.047,8.047,0,0,1,1.078.238v1.906a3.9,3.9,0,0,0-1-.41,4.235,4.235,0,0,0-1.051-.137,2.328,2.328,0,0,0-.457.043,1.505,1.505,0,0,0-.379.125.7.7,0,0,0-.258.211.486.486,0,0,0-.094.293.541.541,0,0,0,.141.375,1.221,1.221,0,0,0,.367.27,3.625,3.625,0,0,0,.5.2q.277.09.551.184a7.161,7.161,0,0,1,.891.375,2.848,2.848,0,0,1,.684.477,1.871,1.871,0,0,1,.438.641,2.563,2.563,0,0,1-.156,2.09,2.471,2.471,0,0,1-.82.82,3.72,3.72,0,0,1-1.18.461,6.54,6.54,0,0,1-1.387.145A7.149,7.149,0,0,1,43.32,16.789Z" transform="translate(834.893 1890.072)" fill="#12263f"/>
      </g>
      <path id="Trazado_28140" data-name="Trazado 28140" d="M357.59,1884.927s104.136-17.96,137.381-53.88,61.1-73.371,90.975-118.026c3.507-5.244,6.651-9.625,9.338-13.2a31.366,31.366,0,0,1,25.08-12.461h76.26a31.431,31.431,0,0,1,18.526,6.025c16.785,12.245,53.863,47.373,103,141.507" transform="translate(52.753 52.875)" fill="none" stroke="#00223d" stroke-linecap="round" stroke-linejoin="round" stroke-width="2"/>
      <g id="Grupo_17624" data-name="Grupo 17624" transform="translate(409.353 1842.989)">
        <g id="Grupo_17621" data-name="Grupo 17621" transform="translate(0 145.804)">
          <path id="Trazado_28141" data-name="Trazado 28141" d="M358.078,1815.421a.989.989,0,0,1-.144-1.967s1.025-.155,2.907-.469a.98.98,0,0,1,1.14.813.991.991,0,0,1-.813,1.138c-1.908.319-2.941.474-2.941.474A1.048,1.048,0,0,1,358.078,1815.421Z" transform="translate(-357.089 -1812.967)" fill="#00223d"/>
        </g>
        <g id="Grupo_17622" data-name="Grupo 17622" transform="translate(8.787)">
          <path id="Trazado_28142" data-name="Trazado 28142" d="M362.517,1886.048a.989.989,0,0,1-.174-1.963c1.733-.312,3.693-.679,5.855-1.1a.991.991,0,0,1,.376,1.945c-2.171.419-4.14.784-5.879,1.1A1.083,1.083,0,0,1,362.517,1886.048Zm11.721-2.262a.991.991,0,0,1-.2-1.961c1.848-.374,3.8-.782,5.83-1.219a.991.991,0,0,1,.414,1.938c-2.04.435-4,.843-5.85,1.223A.951.951,0,0,1,374.238,1883.786Zm11.668-2.5a.99.99,0,0,1-.216-1.955q2.82-.633,5.8-1.334a.988.988,0,1,1,.453,1.923q-2.992.706-5.822,1.342A1.048,1.048,0,0,1,385.906,1881.285Zm11.614-2.733a.989.989,0,0,1-.236-1.949q2.835-.7,5.774-1.454a.99.99,0,0,1,.493,1.917q-2.948.757-5.794,1.456A.983.983,0,0,1,397.52,1878.552Zm11.553-2.97a.99.99,0,0,1-.255-1.945q2.838-.76,5.741-1.575a.989.989,0,0,1,.534,1.906q-2.912.816-5.762,1.583A1.125,1.125,0,0,1,409.072,1875.582Zm11.485-3.221a.989.989,0,0,1-.279-1.937q2.832-.834,5.7-1.712a.991.991,0,0,1,.58,1.894q-2.876.878-5.723,1.716A1.049,1.049,0,0,1,420.558,1872.36Zm11.4-3.5a.99.99,0,0,1-.3-1.932q2.817-.908,5.65-1.86a.989.989,0,1,1,.633,1.874q-2.844.961-5.677,1.868A.963.963,0,0,1,431.958,1868.86Zm11.289-3.806a.99.99,0,0,1-.328-1.923q2.8-.989,5.586-2.025a.989.989,0,0,1,.691,1.854q-2.805,1.045-5.618,2.036A.964.964,0,0,1,443.248,1865.054Zm11.179-4.157a.99.99,0,0,1-.36-1.912q2.775-1.086,5.523-2.222a.989.989,0,0,1,.756,1.829q-2.764,1.143-5.559,2.238A1.011,1.011,0,0,1,454.426,1860.9Zm354.509-3.651a.991.991,0,0,1-.837-.461q-1.532-2.414-3.241-4.981a.989.989,0,1,1,1.646-1.1c1.148,1.72,2.238,3.4,3.267,5.018a.993.993,0,0,1-.835,1.52Zm-343.481-.915a.99.99,0,0,1-.4-1.9q2.734-1.2,5.414-2.444a.989.989,0,0,1,.835,1.793q-2.7,1.259-5.454,2.464A1.014,1.014,0,0,1,465.454,1856.331Zm10.809-5.034a.991.991,0,0,1-.441-1.878q2.677-1.327,5.278-2.709a.99.99,0,1,1,.93,1.747q-2.624,1.4-5.327,2.737A1,1,0,0,1,476.263,1851.3Zm326.061-3.986a.988.988,0,0,1-.813-.425q-1.656-2.386-3.429-4.862a.988.988,0,1,1,1.607-1.152q1.781,2.485,3.449,4.886a.989.989,0,0,1-.813,1.553Zm-315.537-1.616a.989.989,0,0,1-.493-1.848q2.6-1.487,5.09-3.036a.989.989,0,0,1,1.045,1.68q-2.52,1.57-5.151,3.071A.986.986,0,0,1,486.787,1845.695Zm10.118-6.3a.99.99,0,0,1-.556-1.809c1.648-1.12,3.269-2.274,4.813-3.431a.989.989,0,1,1,1.187,1.583c-1.569,1.175-3.214,2.349-4.89,3.487A.986.986,0,0,1,496.9,1839.4Zm298.475-1.781a.983.983,0,0,1-.8-.406q-1.736-2.357-3.556-4.773a.989.989,0,0,1,1.581-1.189q1.823,2.417,3.568,4.793a.99.99,0,0,1-.8,1.575Zm-288.955-5.378a.99.99,0,0,1-.635-1.75l.376-.317q2.069-1.757,4.156-3.538a.989.989,0,1,1,1.284,1.5q-2.087,1.783-4.16,3.542l-.39.328A.982.982,0,0,1,506.425,1832.237Zm281.78-4.152a.989.989,0,0,1-.786-.386q-1.8-2.339-3.653-4.7a.99.99,0,1,1,1.558-1.221q1.858,2.368,3.665,4.716a.989.989,0,0,1-.784,1.593Zm-272.719-3.592a.99.99,0,0,1-.645-1.74q2.244-1.935,4.5-3.892a.99.99,0,1,1,1.3,1.494q-2.259,1.959-4.508,3.9A.988.988,0,0,1,515.486,1824.493Zm265.359-5.8a.984.984,0,0,1-.774-.372q-1.849-2.319-3.732-4.638a.99.99,0,1,1,1.536-1.249q1.888,2.33,3.742,4.654a.988.988,0,0,1-.772,1.6Zm-256.363-2.011a.981.981,0,0,1-.744-.336.992.992,0,0,1,.093-1.4q2.244-1.956,4.48-3.924a.988.988,0,1,1,1.306,1.484q-2.238,1.971-4.484,3.932A.993.993,0,0,1,524.482,1816.684Zm248.843-7.263a.989.989,0,0,1-.764-.358q-1.894-2.3-3.805-4.585a.989.989,0,1,1,1.516-1.271q1.918,2.289,3.815,4.6a.987.987,0,0,1-.135,1.393A.974.974,0,0,1,773.326,1809.422Zm-239.889-.609a.99.99,0,0,1-.655-1.731q2.238-1.977,4.462-3.956a.989.989,0,0,1,1.316,1.476q-2.226,1.983-4.466,3.964A.994.994,0,0,1,533.437,1808.812Zm8.915-7.927a.991.991,0,0,1-.661-1.728l4.439-3.975a.989.989,0,0,1,1.322,1.472l-4.44,3.979A.984.984,0,0,1,542.351,1800.885Zm223.322-.609a.978.978,0,0,1-.754-.348q-1.939-2.277-3.875-4.522a.991.991,0,1,1,1.5-1.3q1.941,2.251,3.882,4.537a.989.989,0,0,1-.752,1.629Zm-214.452-7.354a.99.99,0,0,1-.663-1.724l4.419-4a.989.989,0,1,1,1.33,1.464l-4.423,4A.994.994,0,0,1,551.221,1792.922Zm206.66-1.678a1,1,0,0,1-.744-.336q-1.98-2.259-3.944-4.463a.99.99,0,0,1,1.478-1.318q1.965,2.208,3.954,4.474a.989.989,0,0,1-.744,1.643Zm-197.824-6.326a.99.99,0,0,1-.667-1.722l4.4-4.015a.99.99,0,0,1,1.336,1.462l-4.407,4.017A.985.985,0,0,1,560.057,1784.918Zm189.888-2.574a.993.993,0,0,1-.734-.325q-2.027-2.241-4.021-4.393a.991.991,0,0,1,1.454-1.346q2,2.164,4.033,4.409a.99.99,0,0,1-.732,1.655Zm-181.087-5.466a.989.989,0,0,1-.669-1.718l4.391-4.033a.99.99,0,0,1,1.34,1.457l-4.393,4.033A.981.981,0,0,1,568.858,1776.877Zm172.987-3.293a.989.989,0,0,1-.718-.308q-2.09-2.211-4.116-4.3a.989.989,0,0,1,1.423-1.375q2.028,2.1,4.13,4.318a.989.989,0,0,1-.718,1.67Zm-164.215-4.779a.989.989,0,0,1-.671-1.716l4.375-4.049a.989.989,0,0,1,1.344,1.451l-4.377,4.051A.981.981,0,0,1,577.631,1768.805Zm155.911-3.789a.993.993,0,0,1-.7-.289q-2.182-2.184-4.239-4.173a.989.989,0,1,1,1.373-1.423q2.069,2,4.265,4.2a.988.988,0,0,1-.7,1.688ZM586.373,1760.7a.989.989,0,0,1-.673-1.714l4.359-4.065a.99.99,0,1,1,1.351,1.446l-4.363,4.069A.988.988,0,0,1,586.373,1760.7Zm138.573-3.962a.994.994,0,0,1-.669-.257q-2.342-2.15-4.441-3.927a.988.988,0,1,1,1.276-1.51c1.415,1.2,2.919,2.527,4.5,3.974a.989.989,0,0,1-.669,1.719Zm-129.85-4.169a.991.991,0,0,1-.663-1.726,45.093,45.093,0,0,1,4.789-3.756.989.989,0,0,1,1.114,1.634,43.321,43.321,0,0,0-4.579,3.594A.984.984,0,0,1,595.1,1752.569Zm120.685-3.455a.972.972,0,0,1-.564-.177,43.384,43.384,0,0,0-4.995-2.986.989.989,0,0,1,.9-1.761,45.345,45.345,0,0,1,5.224,3.121.989.989,0,0,1-.564,1.8Zm-110.864-3.228a.988.988,0,0,1-.443-1.874,45.461,45.461,0,0,1,5.618-2.339.99.99,0,0,1,.637,1.874,43.755,43.755,0,0,0-5.373,2.234A.977.977,0,0,1,604.917,1745.886Zm100.281-2.162a.97.97,0,0,1-.325-.054,43.694,43.694,0,0,0-5.614-1.54.991.991,0,0,1,.4-1.941,45.557,45.557,0,0,1,5.867,1.611.989.989,0,0,1-.325,1.924Zm-89.035-1.651a.99.99,0,0,1-.188-1.961,45.64,45.64,0,0,1,6.041-.752.976.976,0,0,1,1.043.932.989.989,0,0,1-.932,1.043,42.911,42.911,0,0,0-5.774.722A1.2,1.2,0,0,1,616.163,1742.073Zm77.4-.712c-.024,0-.046,0-.067,0q-1.4-.092-2.822-.093H687.6a.99.99,0,0,1,0-1.979h3.069q1.481,0,2.952.1a.989.989,0,0,1-.063,1.977Zm-11.915-.095h-5.958a.99.99,0,1,1,0-1.979h5.958a.99.99,0,0,1,0,1.979Zm-11.915,0h-5.958a.99.99,0,1,1,0-1.979h5.958a.99.99,0,0,1,0,1.979Zm-11.915,0h-5.958a.99.99,0,1,1,0-1.979h5.958a.99.99,0,0,1,0,1.979Zm-11.915,0h-5.958a.99.99,0,1,1,0-1.979H645.9a.99.99,0,0,1,0,1.979Zm-11.915,0h-5.958a.99.99,0,0,1,0-1.979h5.958a.99.99,0,0,1,0,1.979Z" transform="translate(-361.53 -1739.287)" fill="#00223d"/>
        </g>
        <g id="Grupo_17623" data-name="Grupo 17623" transform="translate(458.145 120.786)">
          <path id="Trazado_28143" data-name="Trazado 28143" d="M591.078,1804.866a.99.99,0,0,1-.863-.5q-.7-1.241-1.47-2.547a.99.99,0,0,1,1.706-1.006c.518.883,1.017,1.744,1.488,2.583a.988.988,0,0,1-.861,1.474Z" transform="translate(-588.608 -1800.325)" fill="#00223d"/>
        </g>
      </g>
    </g>
  </g>
</svg>
