<svg xmlns="http://www.w3.org/2000/svg" xmlns:xlink="http://www.w3.org/1999/xlink" width="333" height="444" viewBox="0 0 333 444">
  <defs>
    <clipPath id="clip-path">
      <rect id="Rectángulo_402018" data-name="Rectángulo 402018" width="333" height="444" rx="5" transform="translate(-10814 -2622.667)" fill="#fff" stroke="#707070" stroke-width="1"/>
    </clipPath>
    <clipPath id="clip-path-2">
      <path id="Trazado_1007498" data-name="Trazado 1007498" d="M160.98,166.466,661.146,18.917,527.437,749.089,27.27,896.638Z" fill="#fff"/>
    </clipPath>
    <clipPath id="clip-path-3">
      <path id="Trazado_1007503" data-name="Trazado 1007503" d="M375.252,41.032C275.011,98.856,171.248,204.486,87,341.272,65.544,376.114,44.992,413.7,31.3,453.754s-19.7,83.132-10.843,110.593c11.426,35.454,43.406,37.612,76.81,39.6-12.494,11.315-21.565,35.687-21.553,53.36.025,37.774,27.587,37.551,52.048,29.216,81.526-27.785,168.44-114.762,247.372-211.936,41.467-51.052,82.279-106.412,116.467-170.008,22.463-41.782,45.241-99.99,29.412-128.3-7.3-13.063-24.5-11.549-39.082,9.208C506,148.247,516.006,96.235,509.106,63s-28.079-49.1-52.885-49.943c-9.314-.318-19.118,1.28-29.2,4.249C410.25,22.239,392.7,30.969,375.252,41.032" fill="#fff"/>
    </clipPath>
    <clipPath id="clip-path-4">
      <path id="Trazado_1007505" data-name="Trazado 1007505" d="M0,0,427.669,96.841,515.427,788.4,87.758,691.557Z" fill="#fff"/>
    </clipPath>
    <clipPath id="clip-path-5">
      <path id="Trazado_1007510" data-name="Trazado 1007510" d="M197.456-3.127C120.011,6.81,53.236,64.641,13.946,164.591c-10,25.462-18.352,54.226-19.519,88.985s5.782,76.5,22.149,109.449c21.129,42.539,51.865,60.772,83.891,79.536-8.451,5.505-9.86,26.284-4.678,44.646,11.075,39.248,36.955,52.8,57.544,56.372,68.616,11.906,124.986-34.977,170.86-96.44,24.1-32.292,46.321-69.386,59.9-118.347,8.921-32.167,13.334-81.236-9.85-118.558-10.695-17.219-26.443-24.247-34.1-9.978,11.758-26.642,5.961-75.662-10.258-113.635s-40.8-65.043-64.4-78.319A96.935,96.935,0,0,0,239.244-1.89C224.9-5.148,210.933-4.857,197.456-3.127" fill="#fff"/>
    </clipPath>
  </defs>
  <g id="Grupo_1101521" data-name="Grupo 1101521" transform="translate(11495 2599)">
    <g id="Enmascarar_grupo_1098808" data-name="Enmascarar grupo 1098808" transform="translate(-681 23.667)" clip-path="url(#clip-path)">
      <path id="Trazado_1007496" data-name="Trazado 1007496" d="M6.117,0H418.884C422.262,0,425,7.655,425,17.1V439.137c0,9.443-2.739,17.1-6.117,17.1H6.117c-3.379,0-6.117-7.655-6.117-17.1V17.1C0,7.655,2.739,0,6.117,0Z" transform="translate(-10853.001 -2635.234)" fill="#f6f6f6"/>
      <g id="Grupo_1101514" data-name="Grupo 1101514" transform="matrix(-0.927, 0.375, -0.375, -0.927, -10023.881, -2058.014)" opacity="0.49" style="isolation: isolate">
        <g id="Grupo_1101511" data-name="Grupo 1101511" transform="translate(0 0)">
          <g id="Grupo_1101510" data-name="Grupo 1101510" transform="translate(0 0)" clip-path="url(#clip-path-2)">
            <path id="Trazado_1007497" data-name="Trazado 1007497" d="M481.935,185.481C506,148.247,516,96.236,509.105,63S481.021,13.9,456.22,13.054s-53.032,11.858-80.968,27.971C275.01,98.855,171.242,204.487,87,341.272,65.544,376.107,44.986,413.7,31.3,453.754S11.61,536.878,20.462,564.34c11.422,35.455,43.4,37.62,76.809,39.6-12.5,11.316-21.564,35.68-21.553,53.359.025,37.774,27.582,37.552,52.044,29.218,81.53-27.786,168.446-114.771,247.372-211.936C416.6,423.534,457.411,368.174,491.6,304.577c22.469-41.791,45.246-99.991,29.419-128.312-7.3-13.056-24.5-11.542-39.083,9.215" transform="translate(79.602 111.034)" fill="#fff"/>
          </g>
        </g>
        <g id="Grupo_1101513" data-name="Grupo 1101513" transform="translate(79.601 111.034)">
          <g id="Grupo_1101512" data-name="Grupo 1101512" transform="translate(0 0)" clip-path="url(#clip-path-3)">
            <path id="Trazado_1007499" data-name="Trazado 1007499" d="M11.862,390.013s236.42,4.369,265.067-382.09" transform="translate(-1.748 67.011)" fill="#fff"/>
            <path id="Trazado_1007500" data-name="Trazado 1007500" d="M18.382,604.406S220.429,658.159,423.666,12.122" transform="translate(-36.682 7.991)" fill="#fff"/>
            <path id="Trazado_1007501" data-name="Trazado 1007501" d="M25.177,827.821s140.5-17.619,281.549-342.2S471.35,13.486,471.35,13.486" transform="translate(8.255 -71.776)" fill="#fff"/>
            <path id="Trazado_1007502" data-name="Trazado 1007502" d="M281.144,8.044S224.6,278.533,15.509,509.918" transform="translate(243.54 109.782)" fill="#fff"/>
          </g>
        </g>
      </g>
      <ellipse id="Elipse_11640" data-name="Elipse 11640" cx="258.41" cy="506.774" rx="258.41" ry="506.774" transform="translate(-10798.615 -2955.16)" fill="#e8e8e8" opacity="0.37" style="mix-blend-mode: multiply;isolation: isolate"/>
      <ellipse id="Elipse_11641" data-name="Elipse 11641" cx="258.581" cy="507.922" rx="258.581" ry="507.922" transform="translate(-10945.162 -2502.685)" fill="#fff" opacity="0.65"/>
      <ellipse id="Elipse_11642" data-name="Elipse 11642" cx="258.581" cy="507.922" rx="258.581" ry="507.922" transform="translate(-10598.896 -2935.032)" fill="#fff" opacity="0.65"/>
      <g id="Grupo_1101519" data-name="Grupo 1101519" transform="translate(-10541.546 -1881.76) rotate(-165)" opacity="0.3" style="isolation: isolate">
        <g id="Grupo_1101516" data-name="Grupo 1101516" transform="translate(0 0)">
          <g id="Grupo_1101515" data-name="Grupo 1101515" clip-path="url(#clip-path-4)">
            <path id="Trazado_1007504" data-name="Trazado 1007504" d="M340.146,200.259C351.9,173.617,346.1,124.6,329.888,86.623s-40.8-65.044-64.4-78.319S219.039-5.9,197.455-3.13C120.011,6.814,53.232,64.645,13.946,164.6,3.943,190.05-4.41,218.821-5.573,253.58S.208,330.072,16.575,363.022C37.7,405.56,68.442,423.8,100.467,442.565c-8.455,5.5-9.861,26.277-4.678,44.646,11.075,39.248,36.951,52.8,57.54,56.371,68.62,11.907,124.989-34.983,170.86-96.44,24.1-32.292,46.321-69.386,59.9-118.347,8.924-32.173,13.338-81.235-9.847-118.565-10.694-17.212-26.442-24.24-34.1-9.971" transform="translate(74.972 135.111)" fill="#fff"/>
          </g>
        </g>
        <g id="Grupo_1101518" data-name="Grupo 1101518" transform="translate(74.972 135.115)">
          <g id="Grupo_1101517" data-name="Grupo 1101517" transform="translate(0 0)" clip-path="url(#clip-path-5)">
            <path id="Trazado_1007506" data-name="Trazado 1007506" d="M-5.764,261.626S218.07,384.381,131.971-2.7" transform="translate(-18.8 -15.251)" fill="#fff"/>
            <path id="Trazado_1007507" data-name="Trazado 1007507" d="M-9,408.463S196.926,565.323,199.234-4.078" transform="translate(3.146 -14.911)" fill="#fff"/>
            <path id="Trazado_1007508" data-name="Trazado 1007508" d="M-13.645,619.293s127.109,51.955,164.921-214.655S168.115-3.441,168.115-3.441" transform="translate(98.517 -50.67)" fill="#fff"/>
            <path id="Trazado_1007509" data-name="Trazado 1007509" d="M94.709-1.939S120.616,250.738-8.516,386.523" transform="translate(265.883 153.295)" fill="#fff"/>
          </g>
        </g>
      </g>
      <g id="Grupo_1101520" data-name="Grupo 1101520" transform="translate(-11207.923 -3139.665)">
        <path id="Trazado_1007511" data-name="Trazado 1007511" d="M749.728,399.44S821.1-219.241,5.075,119.5" transform="translate(697.545 1735.162) rotate(-43)" fill="none" stroke="#e8e8e8" stroke-linecap="round" stroke-linejoin="round" stroke-width="1"/>
        <path id="Trazado_1007512" data-name="Trazado 1007512" d="M213.327,9.006S-95.407,294.962,54.418,384.394" transform="translate(1143.512 986.044) rotate(-43)" fill="none" stroke="#e8e8e8" stroke-linecap="round" stroke-linejoin="round" stroke-width="1"/>
        <path id="Trazado_1007513" data-name="Trazado 1007513" d="M856.26,36.149C759.348,267.291,681.884,314.3,537.12,372.853S369.605,577.446,178.8,542.02,18.658,373.565,18.658,373.565" transform="translate(0 557.53) rotate(-43)" fill="none" stroke="#e8e8e8" stroke-linecap="round" stroke-linejoin="round" stroke-width="1"/>
        <path id="Trazado_1007514" data-name="Trazado 1007514" d="M274.41,11.585s96.01,96.945-18.91,202.8S7.6,178.957,7.6,178.957" transform="translate(243.874 502.619) rotate(-43)" fill="none" stroke="#e8e8e8" stroke-linecap="round" stroke-linejoin="round" stroke-width="1"/>
        <path id="Trazado_1007515" data-name="Trazado 1007515" d="M313.189,196.486C377.253,23.73,237.916-73.884,4.4,103.706" transform="translate(868.39 1672.904) rotate(-43)" fill="none" stroke="#e8e8e8" stroke-linecap="round" stroke-linejoin="round" stroke-width="1"/>
        <path id="Trazado_1007516" data-name="Trazado 1007516" d="M662.587,87.245c-57.661,33.091-117.194,87.982-146.619,143.687s-20.542,107.323,14.14,113.259c-53.546,1.924-107.594,3.921-167.555,18.9s-127.09,44.13-189.935,92.184S52.5,572.2,34.782,631.2C14.217,699.686,48.225,739.886,86.115,769.265c110.593,85.745,263.278,128.759,446.818,118.522,58.307-3.254,126.652-14.865,194.848-64.976,65.178-47.89,114.77-121.732,133.013-182.427s9.554-109.83-8.4-149.96-44.882-72.931-66.629-108.392c32.764-9.908,65.928-19.977,100.418-37.365s70.989-43.13,98.526-75.282c32.867-38.377,48.564-81.161,47.821-113.168s-16.058-54.513-35.674-71.886c-40.485-35.84-100.4-52.295-172.292-47.311A365.21,365.21,0,0,0,734.777,54.8a393.767,393.767,0,0,0-72.19,32.447" transform="translate(326.194 1182.74) rotate(-43)" fill="none"/>
      </g>
    </g>
    <rect id="Rectángulo_4411" data-name="Rectángulo 4411" width="262.335" height="122.551" transform="translate(-11342.136 -2508.628) rotate(90)" fill="#ffede7"/>
    <rect id="Rectángulo_4413" data-name="Rectángulo 4413" width="262.335" height="122.551" transform="translate(-11258.207 -2508.628) rotate(90)" fill="#fff8da"/>
    <rect id="Rectángulo_4414" data-name="Rectángulo 4414" width="262.335" height="122.551" transform="translate(-11242.257 -2508.628) rotate(90)" fill="#eff3f6"/>
    <path id="Trazado_28139" data-name="Trazado 28139" d="M623.959,1931.688l-.683,1.45,2.542,4.665H358.85V1638.384l2.361,5.017.734-1.35-4.1-8.7-4.1,8.7.734,1.35,2.362-5.02v351.876h2v-48.5H625.815l-2.54,4.663.683,1.449,4.406-8.093Z" transform="translate(-11826.036 -4184.096)" fill="#00223d"/>
    <text id="Crecimiento" transform="translate(-11415.377 -2394.416) rotate(-90)" fill="#12263f" font-size="16" font-family="SegoeUI, Segoe UI"><tspan x="0" y="17">Crecimiento</tspan></text>
    <g id="Grupo_1101559" data-name="Grupo 1101559">
      <path id="Trazado_1007608" data-name="Trazado 1007608" d="M0,0H262.335V122.551H0Z" transform="translate(-11302.596 -2508.628) rotate(90)" fill="#eff5d6"/>
      <path id="Trazado_1007614" data-name="Trazado 1007614" d="M44.8,7.852H41.6V17H39.069V7.852h-3.18V5.8H44.8Zm2.516-.117a1.442,1.442,0,0,1-1.023-.371,1.2,1.2,0,0,1-.4-.91,1.153,1.153,0,0,1,.4-.906,1.671,1.671,0,0,1,2.051,0,1.158,1.158,0,0,1,.395.906,1.191,1.191,0,0,1-.395.922A1.466,1.466,0,0,1,47.311,7.734ZM48.53,17H46.061V9H48.53ZM57.8,13.7H52.576q.125,1.742,2.2,1.742a4.286,4.286,0,0,0,2.32-.625V16.6a6.1,6.1,0,0,1-2.883.594A4.058,4.058,0,0,1,51.2,16.121a4.058,4.058,0,0,1-1.07-3,4.281,4.281,0,0,1,1.156-3.156A3.852,3.852,0,0,1,54.131,8.8a3.5,3.5,0,0,1,2.707,1.039,4,4,0,0,1,.957,2.82Zm-2.289-1.516q0-1.719-1.391-1.719a1.328,1.328,0,0,0-1.027.492,2.234,2.234,0,0,0-.527,1.227ZM71.967,17H69.506V12.438q0-1.742-1.281-1.742a1.177,1.177,0,0,0-.992.523,2.151,2.151,0,0,0-.383,1.3V17H64.381V12.391q0-1.7-1.258-1.7a1.206,1.206,0,0,0-1.012.5,2.2,2.2,0,0,0-.379,1.359V17H59.264V9h2.469v1.25h.031A3.031,3.031,0,0,1,64.35,8.8,2.3,2.3,0,0,1,66.67,10.3,2.959,2.959,0,0,1,69.358,8.8q2.609,0,2.609,3.219Zm4.453-.93h-.031V20.68H73.92V9h2.469v1.2h.031a3.142,3.142,0,0,1,4.973-.332,4.54,4.54,0,0,1,.848,2.9,4.922,4.922,0,0,1-.988,3.211A3.222,3.222,0,0,1,78.623,17.2,2.491,2.491,0,0,1,76.42,16.07Zm-.07-3.281v.641a2.037,2.037,0,0,0,.438,1.352,1.424,1.424,0,0,0,1.148.523,1.514,1.514,0,0,0,1.309-.652,3.15,3.15,0,0,0,.465-1.848q0-2.109-1.641-2.109a1.541,1.541,0,0,0-1.238.574A2.29,2.29,0,0,0,76.35,12.789Zm11.3,4.406a4.3,4.3,0,0,1-3.145-1.121,4.064,4.064,0,0,1-1.145-3.043,4.065,4.065,0,0,1,1.188-3.105A4.487,4.487,0,0,1,87.764,8.8a4.249,4.249,0,0,1,3.125,1.121,3.985,3.985,0,0,1,1.133,2.965,4.23,4.23,0,0,1-1.168,3.148A4.348,4.348,0,0,1,87.655,17.2Zm.063-6.5a1.647,1.647,0,0,0-1.359.6,2.653,2.653,0,0,0-.484,1.7q0,2.3,1.859,2.3,1.773,0,1.773-2.367Q89.506,10.7,87.717,10.7Z" transform="translate(-11194.155 -2182.179) rotate(-90)" fill="#12263f"/>
      <path id="Trazado_1007609" data-name="Trazado 1007609" d="M35.121,17H28.4V5.8h6.461V7.852H30.925v2.492h3.664v2.047H30.925v2.563h4.2Zm9.156,0H41.816V15.781h-.039A2.792,2.792,0,0,1,39.332,17.2q-2.781,0-2.781-3.367V9h2.461v4.609q0,1.7,1.344,1.7a1.329,1.329,0,0,0,1.063-.465,1.874,1.874,0,0,0,.4-1.262V9h2.461Zm7.3-5.773a2.142,2.142,0,0,0-1.039-.242,1.5,1.5,0,0,0-1.258.59,2.573,2.573,0,0,0-.453,1.605V17H46.355V9h2.469v1.484h.031a2.136,2.136,0,0,1,2.109-1.625,1.59,1.59,0,0,1,.609.094Zm4.9,5.969a4.3,4.3,0,0,1-3.145-1.121,4.064,4.064,0,0,1-1.145-3.043,4.065,4.065,0,0,1,1.188-3.105A4.487,4.487,0,0,1,56.582,8.8a4.249,4.249,0,0,1,3.125,1.121,3.985,3.985,0,0,1,1.133,2.965,4.23,4.23,0,0,1-1.168,3.148A4.348,4.348,0,0,1,56.472,17.2Zm.063-6.5a1.647,1.647,0,0,0-1.359.6,2.653,2.653,0,0,0-.484,1.7q0,2.3,1.859,2.3,1.773,0,1.773-2.367Q58.324,10.7,56.535,10.7Zm5.383,6.094v-2a5.256,5.256,0,0,0,1.215.547,4.028,4.028,0,0,0,1.145.18,2.455,2.455,0,0,0,1.035-.18.581.581,0,0,0,.379-.547.506.506,0,0,0-.172-.391,1.6,1.6,0,0,0-.441-.273,5.009,5.009,0,0,0-.59-.211q-.32-.094-.617-.211a5.914,5.914,0,0,1-.84-.387,2.427,2.427,0,0,1-.609-.48,1.889,1.889,0,0,1-.375-.633,2.525,2.525,0,0,1-.129-.852A2.192,2.192,0,0,1,62.21,10.2a2.393,2.393,0,0,1,.781-.793,3.57,3.57,0,0,1,1.117-.453A5.825,5.825,0,0,1,65.417,8.8a7.261,7.261,0,0,1,1.078.082,8.047,8.047,0,0,1,1.078.238v1.906a3.9,3.9,0,0,0-1-.41,4.235,4.235,0,0,0-1.051-.137,2.328,2.328,0,0,0-.457.043,1.505,1.505,0,0,0-.379.125.7.7,0,0,0-.258.211.486.486,0,0,0-.094.293.541.541,0,0,0,.141.375,1.221,1.221,0,0,0,.367.27,3.625,3.625,0,0,0,.5.2q.277.09.551.184a7.161,7.161,0,0,1,.891.375,2.848,2.848,0,0,1,.684.477,1.872,1.872,0,0,1,.438.641,2.563,2.563,0,0,1-.156,2.09,2.471,2.471,0,0,1-.82.82,3.72,3.72,0,0,1-1.18.461,6.54,6.54,0,0,1-1.387.145A7.149,7.149,0,0,1,61.917,16.789Z" transform="translate(-11498.973 -2575.107)" fill="#12263f"/>
      <path id="Trazado_1007607" data-name="Trazado 1007607" d="M2.781,17H1.469V5.8H2.781ZM12.2,17H10.914V12.438q0-2.547-1.859-2.547a2.017,2.017,0,0,0-1.59.723,2.679,2.679,0,0,0-.629,1.824V17H5.555V9H6.836v1.328h.031A2.887,2.887,0,0,1,9.492,8.813,2.448,2.448,0,0,1,11.5,9.66a3.776,3.776,0,0,1,.7,2.449Zm6.125-.078a2.47,2.47,0,0,1-1.2.25q-2.1,0-2.1-2.344V10.094H13.648V9h1.375V7.047L16.3,6.633V9H18.32v1.094H16.3V14.6a1.869,1.869,0,0,0,.273,1.148,1.091,1.091,0,0,0,.906.344,1.347,1.347,0,0,0,.836-.266ZM24.2,10.3a1.567,1.567,0,0,0-.969-.258,1.635,1.635,0,0,0-1.371.773,3.576,3.576,0,0,0-.551,2.109V17H20.031V9h1.281v1.648h.031a2.793,2.793,0,0,1,.836-1.316,1.906,1.906,0,0,1,1.258-.473,2.092,2.092,0,0,1,.766.109Zm4.734,6.891a3.711,3.711,0,0,1-2.832-1.121,4.153,4.153,0,0,1-1.059-2.973,4.326,4.326,0,0,1,1.1-3.148,3.96,3.96,0,0,1,2.977-1.133,3.588,3.588,0,0,1,2.793,1.1,4.368,4.368,0,0,1,1,3.055,4.3,4.3,0,0,1-1.082,3.066A3.791,3.791,0,0,1,28.938,17.188Zm.094-7.3a2.437,2.437,0,0,0-1.953.84,3.449,3.449,0,0,0-.719,2.316,3.262,3.262,0,0,0,.727,2.242,2.469,2.469,0,0,0,1.945.82,2.342,2.342,0,0,0,1.91-.8,3.492,3.492,0,0,0,.668-2.289,3.552,3.552,0,0,0-.668-2.312A2.332,2.332,0,0,0,29.031,9.891ZM41.8,17H40.516V15.641h-.031a2.958,2.958,0,0,1-2.75,1.547,2.988,2.988,0,0,1-2.41-1.074,4.407,4.407,0,0,1-.9-2.926,4.794,4.794,0,0,1,1-3.18,3.3,3.3,0,0,1,2.664-1.2,2.564,2.564,0,0,1,2.4,1.3h.031V5.156H41.8Zm-1.281-3.617V12.2a2.289,2.289,0,0,0-.641-1.641,2.149,2.149,0,0,0-1.625-.672,2.212,2.212,0,0,0-1.844.859,3.766,3.766,0,0,0-.672,2.375,3.387,3.387,0,0,0,.645,2.184,2.107,2.107,0,0,0,1.73.8,2.188,2.188,0,0,0,1.738-.773A2.882,2.882,0,0,0,40.516,13.383ZM50.859,17H49.578V15.734h-.031a2.631,2.631,0,0,1-2.469,1.453q-2.859,0-2.859-3.406V9h1.273v4.578q0,2.531,1.938,2.531a1.96,1.96,0,0,0,1.543-.691,2.645,2.645,0,0,0,.605-1.809V9h1.281Zm8.039-.367a4.163,4.163,0,0,1-2.187.555,3.622,3.622,0,0,1-2.762-1.113A4.035,4.035,0,0,1,52.9,13.188a4.435,4.435,0,0,1,1.133-3.176,3.963,3.963,0,0,1,3.023-1.2,4.209,4.209,0,0,1,1.859.391v1.313a3.258,3.258,0,0,0-1.906-.625A2.576,2.576,0,0,0,55,10.77a3.335,3.335,0,0,0-.785,2.309,3.176,3.176,0,0,0,.738,2.219,2.545,2.545,0,0,0,1.98.813,3.211,3.211,0,0,0,1.969-.7Zm7.391,0a4.163,4.163,0,0,1-2.187.555,3.622,3.622,0,0,1-2.762-1.113,4.035,4.035,0,0,1-1.051-2.887,4.435,4.435,0,0,1,1.133-3.176,3.963,3.963,0,0,1,3.023-1.2A4.209,4.209,0,0,1,66.3,9.2v1.313A3.258,3.258,0,0,0,64.4,9.891a2.576,2.576,0,0,0-2.012.879,3.335,3.335,0,0,0-.785,2.309A3.176,3.176,0,0,0,62.34,15.3a2.545,2.545,0,0,0,1.98.813,3.211,3.211,0,0,0,1.969-.7Zm2.594-9.664a.812.812,0,0,1-.586-.234.791.791,0,0,1-.242-.594.821.821,0,0,1,.828-.836.827.827,0,0,1,.6.238.835.835,0,0,1,0,1.184A.82.82,0,0,1,68.883,6.969ZM69.508,17H68.227V9h1.281Zm5.938.188a3.711,3.711,0,0,1-2.832-1.121,4.153,4.153,0,0,1-1.059-2.973,4.326,4.326,0,0,1,1.1-3.148,3.96,3.96,0,0,1,2.977-1.133,3.588,3.588,0,0,1,2.793,1.1,4.368,4.368,0,0,1,1,3.055,4.3,4.3,0,0,1-1.082,3.066A3.791,3.791,0,0,1,75.445,17.188Zm.094-7.3a2.437,2.437,0,0,0-1.953.84,3.449,3.449,0,0,0-.719,2.316,3.262,3.262,0,0,0,.727,2.242,2.469,2.469,0,0,0,1.945.82,2.342,2.342,0,0,0,1.91-.8,3.492,3.492,0,0,0,.668-2.289,3.552,3.552,0,0,0-.668-2.312A2.332,2.332,0,0,0,75.539,9.891Zm1.875-4.969L75.367,7.484h-.992l1.742-2.562ZM88.117,17H86.836V12.438q0-2.547-1.859-2.547a2.017,2.017,0,0,0-1.59.723,2.679,2.679,0,0,0-.629,1.824V17H81.477V9h1.281v1.328h.031a2.887,2.887,0,0,1,2.625-1.516,2.448,2.448,0,0,1,2.008.848,3.776,3.776,0,0,1,.7,2.449Z" transform="translate(-11455.328 -2394.416) rotate(-90)" fill="#12263f"/>
      <path id="Trazado_1007610" data-name="Trazado 1007610" d="M12.891,17h-1.3V9.484q0-.891.109-2.18h-.031a6.969,6.969,0,0,1-.336,1.086L7.5,17H6.859L3.039,8.453A6.7,6.7,0,0,1,2.7,7.3H2.672q.062.672.063,2.2V17H1.469V5.8H3.2l3.438,7.813a10,10,0,0,1,.516,1.344H7.2q.336-.922.539-1.375L11.25,5.8h1.641Zm8.5,0H20.109V15.75h-.031a2.682,2.682,0,0,1-2.461,1.438,2.63,2.63,0,0,1-1.871-.633,2.192,2.192,0,0,1-.676-1.68q0-2.242,2.641-2.609l2.4-.336q0-2.039-1.648-2.039a3.938,3.938,0,0,0-2.609.984V9.563a4.958,4.958,0,0,1,2.719-.75q2.82,0,2.82,2.984Zm-1.281-4.047-1.93.266a3.133,3.133,0,0,0-1.344.441,1.273,1.273,0,0,0-.453,1.121,1.221,1.221,0,0,0,.418.957,1.615,1.615,0,0,0,1.113.371,2.056,2.056,0,0,0,1.574-.668,2.387,2.387,0,0,0,.621-1.691ZM30.633,17H29.352V15.641H29.32a2.958,2.958,0,0,1-2.75,1.547,2.988,2.988,0,0,1-2.41-1.074,4.407,4.407,0,0,1-.9-2.926,4.794,4.794,0,0,1,1-3.18,3.3,3.3,0,0,1,2.664-1.2,2.564,2.564,0,0,1,2.4,1.3h.031V5.156h1.281Zm-1.281-3.617V12.2a2.289,2.289,0,0,0-.641-1.641,2.149,2.149,0,0,0-1.625-.672,2.212,2.212,0,0,0-1.844.859,3.766,3.766,0,0,0-.672,2.375,3.387,3.387,0,0,0,.645,2.184,2.107,2.107,0,0,0,1.73.8,2.188,2.188,0,0,0,1.738-.773A2.882,2.882,0,0,0,29.352,13.383ZM39.7,17H38.414V15.734h-.031a2.631,2.631,0,0,1-2.469,1.453q-2.859,0-2.859-3.406V9h1.273v4.578q0,2.531,1.938,2.531a1.96,1.96,0,0,0,1.543-.691,2.645,2.645,0,0,0,.605-1.809V9H39.7Zm6.758-6.7a1.567,1.567,0,0,0-.969-.258,1.635,1.635,0,0,0-1.371.773,3.576,3.576,0,0,0-.551,2.109V17H42.281V9h1.281v1.648h.031a2.794,2.794,0,0,1,.836-1.316,1.906,1.906,0,0,1,1.258-.473,2.092,2.092,0,0,1,.766.109Zm7.82,3.023H48.625a2.992,2.992,0,0,0,.719,2.063,2.478,2.478,0,0,0,1.891.727,3.931,3.931,0,0,0,2.484-.891v1.2a4.643,4.643,0,0,1-2.789.766,3.381,3.381,0,0,1-2.664-1.09,4.461,4.461,0,0,1-.969-3.066,4.375,4.375,0,0,1,1.059-3.043,3.394,3.394,0,0,1,2.629-1.176,3.008,3.008,0,0,1,2.43,1.016,4.234,4.234,0,0,1,.859,2.82Zm-1.312-1.086a2.607,2.607,0,0,0-.535-1.727,1.823,1.823,0,0,0-1.465-.617,2.07,2.07,0,0,0-1.539.648,2.943,2.943,0,0,0-.781,1.7Zm8.828-2.867-4.734,6.539h4.688V17h-6.57v-.4l4.734-6.508H55.617V9h6.172Z" transform="translate(-11380.758 -2513.722) rotate(-90)" fill="#12263f"/>
      <path id="Trazado_1007611" data-name="Trazado 1007611" d="M1.469,17V5.8H4.563q5.922,0,5.922,5.461A5.5,5.5,0,0,1,8.84,15.426,6.1,6.1,0,0,1,4.438,17ZM2.781,6.984v8.828H4.453a4.745,4.745,0,0,0,3.43-1.18,4.422,4.422,0,0,0,1.227-3.344q0-4.3-4.578-4.3ZM18.945,13.32H13.3a2.992,2.992,0,0,0,.719,2.063,2.478,2.478,0,0,0,1.891.727,3.931,3.931,0,0,0,2.484-.891v1.2a4.643,4.643,0,0,1-2.789.766,3.381,3.381,0,0,1-2.664-1.09,4.461,4.461,0,0,1-.969-3.066,4.375,4.375,0,0,1,1.059-3.043,3.394,3.394,0,0,1,2.629-1.176,3.008,3.008,0,0,1,2.43,1.016,4.234,4.234,0,0,1,.859,2.82Zm-1.312-1.086a2.607,2.607,0,0,0-.535-1.727,1.823,1.823,0,0,0-1.465-.617,2.07,2.07,0,0,0-1.539.648,2.943,2.943,0,0,0-.781,1.7Zm8.7,4.4a4.163,4.163,0,0,1-2.187.555,3.622,3.622,0,0,1-2.762-1.113,4.035,4.035,0,0,1-1.051-2.887,4.435,4.435,0,0,1,1.133-3.176,3.963,3.963,0,0,1,3.023-1.2,4.209,4.209,0,0,1,1.859.391v1.313a3.258,3.258,0,0,0-1.906-.625,2.576,2.576,0,0,0-2.012.879,3.335,3.335,0,0,0-.785,2.309,3.176,3.176,0,0,0,.738,2.219,2.545,2.545,0,0,0,1.98.813,3.211,3.211,0,0,0,1.969-.7ZM29.555,17H28.273V5.156h1.281ZM32.8,6.969a.812.812,0,0,1-.586-.234.791.791,0,0,1-.242-.594A.821.821,0,0,1,32.8,5.3a.827.827,0,0,1,.6.238.835.835,0,0,1,0,1.184A.82.82,0,0,1,32.8,6.969ZM33.43,17H32.148V9H33.43Zm8.883-8-3.187,8H37.867L34.836,9h1.406l2.031,5.813a5.217,5.217,0,0,1,.281,1.117h.031a5.283,5.283,0,0,1,.25-1.086L40.961,9Zm7.8,4.32H44.469a2.992,2.992,0,0,0,.719,2.063,2.478,2.478,0,0,0,1.891.727,3.931,3.931,0,0,0,2.484-.891v1.2a4.643,4.643,0,0,1-2.789.766,3.381,3.381,0,0,1-2.664-1.09,4.461,4.461,0,0,1-.969-3.066A4.375,4.375,0,0,1,44.2,9.988a3.394,3.394,0,0,1,2.629-1.176,3.008,3.008,0,0,1,2.43,1.016,4.234,4.234,0,0,1,.859,2.82ZM48.8,12.234a2.607,2.607,0,0,0-.535-1.727A1.823,1.823,0,0,0,46.8,9.891a2.07,2.07,0,0,0-1.539.648,2.943,2.943,0,0,0-.781,1.7Z" transform="translate(-11270.194 -2519.318) rotate(-90)" fill="#12263f"/>
      <path id="Trazado_1007613" data-name="Trazado 1007613" d="M1.281,17V5.8H5.359a5.093,5.093,0,0,1,2.883.688A2.211,2.211,0,0,1,9.25,8.422a2.293,2.293,0,0,1-.613,1.586,3.222,3.222,0,0,1-1.566.945v.031a3.1,3.1,0,0,1,1.91.883A2.469,2.469,0,0,1,9.7,13.656a2.99,2.99,0,0,1-1.1,2.441,4.61,4.61,0,0,1-3.008.9ZM3.8,7.656v2.656H4.914a1.849,1.849,0,0,0,1.23-.379,1.291,1.291,0,0,0,.449-1.043q0-1.234-1.844-1.234Zm0,4.531v2.953H5.172a2.1,2.1,0,0,0,1.371-.406,1.357,1.357,0,0,0,.5-1.109,1.266,1.266,0,0,0-.488-1.055,2.16,2.16,0,0,0-1.363-.383ZM18.484,13.7H13.266q.125,1.742,2.2,1.742a4.286,4.286,0,0,0,2.32-.625V16.6A6.1,6.1,0,0,1,14.9,17.2a4.058,4.058,0,0,1-3.008-1.074,4.058,4.058,0,0,1-1.07-3,4.281,4.281,0,0,1,1.156-3.156A3.852,3.852,0,0,1,14.82,8.8a3.5,3.5,0,0,1,2.707,1.039,4,4,0,0,1,.957,2.82ZM16.2,12.188q0-1.719-1.391-1.719a1.328,1.328,0,0,0-1.027.492,2.234,2.234,0,0,0-.527,1.227ZM27.68,17H25.219V12.555q0-1.859-1.328-1.859a1.318,1.318,0,0,0-1.055.492,1.875,1.875,0,0,0-.414,1.25V17H19.953V9h2.469v1.266h.031A2.829,2.829,0,0,1,25.023,8.8q2.656,0,2.656,3.3Zm9.141-3.3H31.6q.125,1.742,2.2,1.742a4.286,4.286,0,0,0,2.32-.625V16.6a6.1,6.1,0,0,1-2.883.594,4.058,4.058,0,0,1-3.008-1.074,4.058,4.058,0,0,1-1.07-3,4.281,4.281,0,0,1,1.156-3.156A3.852,3.852,0,0,1,33.156,8.8a3.5,3.5,0,0,1,2.707,1.039,4,4,0,0,1,.957,2.82Zm-2.289-1.516q0-1.719-1.391-1.719a1.328,1.328,0,0,0-1.027.492,2.234,2.234,0,0,0-.527,1.227Zm8.977-5.141a2.494,2.494,0,0,0-.914-.187q-1.188,0-1.187,1.289V9h1.828v1.82H41.406V17H38.945V10.82H37.6V9h1.344V8.008a2.88,2.88,0,0,1,.891-2.2,3.4,3.4,0,0,1,2.422-.836,4.253,4.253,0,0,1,1.25.156Zm2.164.688a1.442,1.442,0,0,1-1.023-.371,1.2,1.2,0,0,1-.4-.91,1.153,1.153,0,0,1,.4-.906,1.671,1.671,0,0,1,2.051,0,1.158,1.158,0,0,1,.395.906,1.191,1.191,0,0,1-.395.922A1.466,1.466,0,0,1,45.672,7.734ZM46.891,17H44.422V9h2.469Zm8.141-.289a4.881,4.881,0,0,1-2.414.484,4.083,4.083,0,0,1-2.984-1.117A3.859,3.859,0,0,1,48.492,13.2,4.251,4.251,0,0,1,49.715,9.98,4.518,4.518,0,0,1,52.984,8.8a4.2,4.2,0,0,1,2.047.375v2.094A2.814,2.814,0,0,0,53.3,10.7a2.275,2.275,0,0,0-1.684.621A2.317,2.317,0,0,0,51,13.031a2.28,2.28,0,0,0,.594,1.668,2.182,2.182,0,0,0,1.633.605,3.258,3.258,0,0,0,1.8-.578ZM57.9,7.734a1.442,1.442,0,0,1-1.023-.371,1.2,1.2,0,0,1-.4-.91,1.153,1.153,0,0,1,.4-.906,1.671,1.671,0,0,1,2.051,0,1.158,1.158,0,0,1,.395.906,1.191,1.191,0,0,1-.395.922A1.466,1.466,0,0,1,57.9,7.734ZM59.117,17H56.648V9h2.469Zm5.891.2a4.3,4.3,0,0,1-3.145-1.121,4.064,4.064,0,0,1-1.145-3.043,4.065,4.065,0,0,1,1.188-3.105A4.487,4.487,0,0,1,65.117,8.8a4.249,4.249,0,0,1,3.125,1.121,3.985,3.985,0,0,1,1.133,2.965,4.23,4.23,0,0,1-1.168,3.148A4.348,4.348,0,0,1,65.008,17.2Zm.063-6.5a1.647,1.647,0,0,0-1.359.6,2.653,2.653,0,0,0-.484,1.7q0,2.3,1.859,2.3,1.773,0,1.773-2.367Q66.859,10.7,65.07,10.7Zm5.383,6.094v-2a5.256,5.256,0,0,0,1.215.547,4.028,4.028,0,0,0,1.145.18,2.455,2.455,0,0,0,1.035-.18.581.581,0,0,0,.379-.547.506.506,0,0,0-.172-.391,1.6,1.6,0,0,0-.441-.273,5.009,5.009,0,0,0-.59-.211q-.32-.094-.617-.211a5.913,5.913,0,0,1-.84-.387,2.427,2.427,0,0,1-.609-.48,1.889,1.889,0,0,1-.375-.633,2.525,2.525,0,0,1-.129-.852,2.192,2.192,0,0,1,.293-1.156,2.393,2.393,0,0,1,.781-.793,3.57,3.57,0,0,1,1.117-.453A5.825,5.825,0,0,1,73.953,8.8a7.261,7.261,0,0,1,1.078.082,8.047,8.047,0,0,1,1.078.238v1.906a3.9,3.9,0,0,0-1-.41,4.235,4.235,0,0,0-1.051-.137,2.328,2.328,0,0,0-.457.043,1.505,1.505,0,0,0-.379.125.7.7,0,0,0-.258.211.486.486,0,0,0-.094.293.541.541,0,0,0,.141.375,1.221,1.221,0,0,0,.367.27,3.625,3.625,0,0,0,.5.2q.277.09.551.184a7.161,7.161,0,0,1,.891.375,2.848,2.848,0,0,1,.684.477,1.872,1.872,0,0,1,.438.641,2.563,2.563,0,0,1-.156,2.09,2.471,2.471,0,0,1-.82.82,3.72,3.72,0,0,1-1.18.461A6.54,6.54,0,0,1,72.9,17.2,7.149,7.149,0,0,1,70.453,16.789Z" transform="translate(-11273.174 -2210.298)" fill="#12263f"/>
      <path id="Trazado_1007612" data-name="Trazado 1007612" d="M10.609,5.8,6.75,17H3.891L.078,5.8H2.8l2.336,7.8a5.584,5.584,0,0,1,.227,1.117h.047a6.314,6.314,0,0,1,.242-1.148L7.969,5.8Zm7.25,7.906H12.641q.125,1.742,2.2,1.742a4.286,4.286,0,0,0,2.32-.625V16.6a6.1,6.1,0,0,1-2.883.594,4.058,4.058,0,0,1-3.008-1.074,4.058,4.058,0,0,1-1.07-3,4.281,4.281,0,0,1,1.156-3.156A3.852,3.852,0,0,1,14.2,8.8,3.5,3.5,0,0,1,16.9,9.844a4,4,0,0,1,.957,2.82ZM15.57,12.188q0-1.719-1.391-1.719a1.328,1.328,0,0,0-1.027.492,2.234,2.234,0,0,0-.527,1.227ZM27.055,17H24.594V12.555q0-1.859-1.328-1.859a1.318,1.318,0,0,0-1.055.492,1.875,1.875,0,0,0-.414,1.25V17H19.328V9H21.8v1.266h.031A2.829,2.829,0,0,1,24.4,8.8q2.656,0,2.656,3.3Zm6.789-.094A3.649,3.649,0,0,1,32.2,17.2q-2.609,0-2.609-2.711V10.82h-1.3V9h1.3V7.273l2.461-.7V9h1.8v1.82h-1.8v3.234q0,1.25.992,1.25a1.673,1.673,0,0,0,.8-.227ZM41.891,17H39.555V15.852h-.031A2.607,2.607,0,0,1,37.141,17.2a2.492,2.492,0,0,1-1.832-.66,2.366,2.366,0,0,1-.668-1.762q0-2.328,2.758-2.687L39.57,11.8q0-1.312-1.422-1.312a4.853,4.853,0,0,0-2.719.852V9.477a6.116,6.116,0,0,1,1.41-.469,7.413,7.413,0,0,1,1.629-.2q3.422,0,3.422,3.414Zm-2.32-3.25v-.539l-1.453.188q-1.2.156-1.2,1.086a.9.9,0,0,0,.293.691,1.126,1.126,0,0,0,.793.27,1.462,1.462,0,0,0,1.133-.48A1.735,1.735,0,0,0,39.57,13.75Zm3.75,3.039v-2a5.256,5.256,0,0,0,1.215.547,4.028,4.028,0,0,0,1.145.18,2.455,2.455,0,0,0,1.035-.18.581.581,0,0,0,.379-.547.506.506,0,0,0-.172-.391,1.6,1.6,0,0,0-.441-.273,5.009,5.009,0,0,0-.59-.211q-.32-.094-.617-.211a5.914,5.914,0,0,1-.84-.387,2.427,2.427,0,0,1-.609-.48,1.889,1.889,0,0,1-.375-.633,2.525,2.525,0,0,1-.129-.852,2.192,2.192,0,0,1,.293-1.156,2.393,2.393,0,0,1,.781-.793,3.57,3.57,0,0,1,1.117-.453A5.825,5.825,0,0,1,46.82,8.8a7.261,7.261,0,0,1,1.078.082,8.047,8.047,0,0,1,1.078.238v1.906a3.9,3.9,0,0,0-1-.41,4.235,4.235,0,0,0-1.051-.137,2.328,2.328,0,0,0-.457.043,1.505,1.505,0,0,0-.379.125.7.7,0,0,0-.258.211.486.486,0,0,0-.094.293.541.541,0,0,0,.141.375,1.221,1.221,0,0,0,.367.27,3.625,3.625,0,0,0,.5.2q.277.09.551.184a7.161,7.161,0,0,1,.891.375,2.848,2.848,0,0,1,.684.477,1.871,1.871,0,0,1,.438.641,2.563,2.563,0,0,1-.156,2.09,2.471,2.471,0,0,1-.82.82,3.72,3.72,0,0,1-1.18.461,6.54,6.54,0,0,1-1.387.145A7.149,7.149,0,0,1,43.32,16.789Z" transform="translate(-11254.277 -2293.193)" fill="#12263f"/>
    </g>
    <path id="Trazado_28140" data-name="Trazado 28140" d="M357.59,1884.927s50-17.96,65.959-53.88,29.334-73.371,43.679-118.026c1.684-5.244,3.193-9.625,4.483-13.2,2.844-7.872,7.312-12.461,12.042-12.461h36.614c3.2,0,6.311,2.1,8.895,6.025,8.059,12.245,25.861,47.373,49.451,141.507" transform="translate(-11822.278 -4131.222)" fill="none" stroke="#00223d" stroke-linecap="round" stroke-linejoin="round" stroke-width="2"/>
    <g id="Grupo_17624" data-name="Grupo 17624" transform="translate(-11465.679 -2341.107)">
      <g id="Grupo_17621" data-name="Grupo 17621" transform="translate(0 145.804)">
        <path id="Trazado_28141" data-name="Trazado 28141" d="M358.078,1815.421a.989.989,0,0,1-.144-1.967s1.025-.155,2.907-.469a.98.98,0,0,1,1.14.813.991.991,0,0,1-.813,1.138c-1.908.319-2.941.474-2.941.474A1.048,1.048,0,0,1,358.078,1815.421Z" transform="translate(-357.089 -1812.967)" fill="#00223d"/>
      </g>
      <g id="Grupo_17622" data-name="Grupo 17622" transform="translate(8.787)">
        <path id="Trazado_28142" data-name="Trazado 28142" d="M361.99,1886.048c-.219,0-.412-.335-.453-.813-.045-.536.121-1.051.372-1.15.808-.312,1.721-.679,2.729-1.1.251-.1.492.248.539.786s-.114,1.054-.364,1.159c-1.012.419-1.929.784-2.74,1.1A.247.247,0,0,1,361.99,1886.048Zm5.462-2.262c-.215,0-.408-.322-.451-.794-.052-.534.11-1.057.36-1.167q1.292-.56,2.717-1.219c.249-.111.494.225.548.762s-.106,1.059-.355,1.176c-.951.435-1.862.843-2.726,1.223A.22.22,0,0,1,367.452,1883.786Zm5.437-2.5c-.21,0-.4-.312-.449-.774-.056-.532.1-1.063.349-1.181.876-.422,1.779-.869,2.7-1.334.249-.137.5.2.555.736s-.1,1.065-.344,1.187q-1.394.706-2.713,1.342A.244.244,0,0,1,372.889,1881.285Zm5.412-2.733c-.208,0-.4-.3-.447-.754-.061-.528.09-1.067.337-1.2q1.321-.7,2.691-1.454c.248-.132.5.182.562.714a1.328,1.328,0,0,1-.332,1.2q-1.374.757-2.7,1.456A.234.234,0,0,1,378.3,1878.552Zm5.384-2.97c-.2,0-.389-.291-.445-.732a1.348,1.348,0,0,1,.326-1.213q1.322-.76,2.675-1.575c.247-.142.5.16.568.685a1.368,1.368,0,0,1-.319,1.221q-1.357.816-2.685,1.583A.267.267,0,0,1,383.685,1875.582Zm5.352-3.221c-.2,0-.385-.279-.443-.711a1.382,1.382,0,0,1,.313-1.227q1.32-.834,2.656-1.712c.243-.161.5.137.576.657a1.408,1.408,0,0,1-.306,1.237q-1.34.878-2.667,1.716A.256.256,0,0,1,389.038,1872.36Zm5.313-3.5c-.2,0-.376-.267-.439-.687a1.425,1.425,0,0,1,.3-1.245q1.313-.908,2.633-1.86c.242-.168.5.1.585.619a1.456,1.456,0,0,1-.29,1.255q-1.325.961-2.646,1.868A.243.243,0,0,1,394.35,1868.86Zm5.261-3.806c-.19,0-.368-.253-.434-.659a1.482,1.482,0,0,1,.281-1.265q1.3-.989,2.6-2.025c.239-.19.5.069.593.582a1.508,1.508,0,0,1-.271,1.273q-1.307,1.045-2.618,2.036A.247.247,0,0,1,399.612,1865.054Zm5.209-4.157c-.185,0-.359-.238-.43-.628a1.529,1.529,0,0,1,.262-1.284q1.293-1.086,2.574-2.222c.235-.21.505.032.6.536a1.558,1.558,0,0,1-.25,1.292q-1.288,1.143-2.59,2.238A.266.266,0,0,1,404.821,1860.9Zm165.206-3.651c-.153,0-.3-.165-.39-.461q-.714-2.414-1.511-4.981a1.791,1.791,0,0,1,.128-1.371c.211-.305.5-.18.639.275.535,1.72,1.043,3.4,1.522,5.018a1.767,1.767,0,0,1-.143,1.364A.319.319,0,0,1,570.027,1857.245Zm-160.067-.915c-.177,0-.347-.221-.422-.594a1.583,1.583,0,0,1,.237-1.3q1.274-1.2,2.523-2.444c.232-.233.505-.018.612.479a1.614,1.614,0,0,1-.223,1.314q-1.259,1.259-2.542,2.464A.277.277,0,0,1,409.96,1856.331ZM415,1851.3c-.17,0-.333-.2-.413-.552a1.654,1.654,0,0,1,.208-1.326q1.248-1.327,2.459-2.709c.224-.261.5-.073.624.41a1.691,1.691,0,0,1-.191,1.337q-1.223,1.4-2.483,2.737A.286.286,0,0,1,415,1851.3Zm151.949-3.986c-.146,0-.29-.148-.379-.425q-.772-2.386-1.6-4.862a1.813,1.813,0,0,1,.106-1.38c.208-.32.5-.219.643.228q.83,2.485,1.607,4.886a1.811,1.811,0,0,1-.116,1.377A.331.331,0,0,1,566.946,1847.311ZM419.9,1845.695c-.16,0-.316-.178-.4-.5a1.722,1.722,0,0,1,.172-1.349q1.21-1.487,2.372-3.036c.214-.285.5-.144.634.317a1.768,1.768,0,0,1-.148,1.363q-1.174,1.57-2.4,3.071A.3.3,0,0,1,419.9,1845.695Zm4.715-6.3c-.148,0-.292-.152-.382-.433a1.8,1.8,0,0,1,.123-1.375c.768-1.12,1.523-2.274,2.243-3.431.2-.328.492-.239.646.2a1.834,1.834,0,0,1-.092,1.385c-.731,1.175-1.5,2.349-2.279,3.487A.328.328,0,0,1,424.617,1839.4Zm139.094-1.781c-.142,0-.281-.14-.372-.406q-.809-2.357-1.657-4.773a1.834,1.834,0,0,1,.091-1.385c.2-.327.493-.241.646.2q.849,2.417,1.663,4.793a1.823,1.823,0,0,1-.1,1.381A.343.343,0,0,1,563.71,1837.615Zm-134.657-5.378c-.133,0-.264-.123-.355-.356a1.86,1.86,0,0,1,.059-1.393l.175-.317q.964-1.757,1.937-3.538c.193-.358.484-.307.649.107a1.869,1.869,0,0,1-.051,1.4q-.972,1.783-1.938,3.542l-.182.328C429.262,1832.161,429.156,1832.237,429.053,1832.237Zm131.313-4.152c-.138,0-.276-.133-.366-.386q-.838-2.339-1.7-4.7a1.851,1.851,0,0,1,.078-1.39c.2-.336.49-.263.647.169q.866,2.368,1.708,4.716a1.848,1.848,0,0,1-.085,1.389A.354.354,0,0,1,560.367,1828.085Zm-127.091-3.592c-.129,0-.258-.117-.349-.344a1.864,1.864,0,0,1,.049-1.4q1.046-1.935,2.1-3.892c.193-.362.483-.315.651.1a1.875,1.875,0,0,1-.045,1.4q-1.053,1.959-2.1,3.9C433.49,1824.414,433.382,1824.493,433.276,1824.493Zm123.661-5.8c-.136,0-.27-.127-.361-.372q-.862-2.319-1.739-4.638a1.853,1.853,0,0,1,.067-1.394c.2-.344.489-.277.648.145q.88,2.33,1.744,4.654a1.85,1.85,0,0,1-.073,1.39A.36.36,0,0,1,556.937,1818.695Zm-119.469-2.011c-.128,0-.256-.113-.347-.336a1.876,1.876,0,0,1,.043-1.4q1.046-1.956,2.088-3.924c.19-.362.482-.323.651.089a1.865,1.865,0,0,1-.042,1.395q-1.043,1.971-2.09,3.932C437.684,1816.6,437.576,1816.684,437.468,1816.684Zm115.965-7.263c-.133,0-.266-.123-.356-.358q-.883-2.3-1.773-4.585a1.861,1.861,0,0,1,.057-1.4c.2-.349.487-.293.649.125q.894,2.289,1.778,4.6a1.852,1.852,0,0,1-.063,1.393C553.639,1809.349,553.536,1809.422,553.433,1809.422Zm-111.792-.609c-.127,0-.254-.113-.345-.334a1.871,1.871,0,0,1,.04-1.4q1.043-1.977,2.079-3.956c.189-.366.48-.328.651.081a1.872,1.872,0,0,1-.038,1.4q-1.037,1.983-2.081,3.964C441.859,1808.731,441.75,1808.812,441.641,1808.812Zm4.154-7.927c-.126,0-.253-.113-.344-.331a1.878,1.878,0,0,1,.036-1.4l2.069-3.975c.188-.366.48-.334.651.075a1.868,1.868,0,0,1-.035,1.4l-2.069,3.979C446.015,1800.8,445.905,1800.885,445.8,1800.885Zm104.071-.609c-.131,0-.261-.117-.351-.348q-.9-2.277-1.806-4.522a1.875,1.875,0,0,1,.048-1.4c.192-.352.483-.311.65.1q.9,2.251,1.809,4.537a1.857,1.857,0,0,1-.053,1.393C550.078,1800.2,549.972,1800.276,549.866,1800.276Zm-99.938-7.354c-.125,0-.252-.111-.342-.327a1.873,1.873,0,0,1,.033-1.4l2.059-4c.189-.368.48-.334.652.068a1.871,1.871,0,0,1-.032,1.4l-2.061,4C450.149,1792.837,450.038,1792.922,449.929,1792.922Zm96.306-1.678c-.127,0-.255-.115-.347-.336q-.923-2.259-1.838-4.463a1.871,1.871,0,0,1,.038-1.4c.189-.362.48-.329.651.079q.916,2.208,1.843,4.474a1.868,1.868,0,0,1-.042,1.4C546.452,1791.163,546.344,1791.244,546.235,1791.244Zm-92.189-6.326c-.125,0-.25-.109-.341-.322a1.879,1.879,0,0,1,.03-1.4l2.052-4.015c.188-.368.48-.342.652.064a1.877,1.877,0,0,1-.029,1.4l-2.054,4.017C454.267,1784.833,454.157,1784.918,454.046,1784.918Zm88.491-2.574c-.126,0-.251-.111-.342-.325q-.945-2.241-1.874-4.393a1.884,1.884,0,0,1,.026-1.4c.186-.37.478-.35.652.053q.931,2.164,1.879,4.409a1.875,1.875,0,0,1-.032,1.4C542.757,1782.258,542.647,1782.343,542.537,1782.343Zm-84.389-5.466c-.125,0-.249-.107-.339-.321a1.874,1.874,0,0,1,.028-1.4l2.046-4.033c.186-.368.479-.34.651.057a1.881,1.881,0,0,1-.027,1.4l-2.047,4.033C458.372,1776.791,458.26,1776.877,458.148,1776.877Zm80.614-3.293c-.123,0-.244-.1-.335-.308q-.974-2.211-1.918-4.3a1.877,1.877,0,0,1,.011-1.4c.183-.376.475-.368.652.024q.945,2.1,1.925,4.318a1.88,1.88,0,0,1-.018,1.4C538.99,1773.5,538.876,1773.584,538.762,1773.584Zm-76.526-4.779c-.125,0-.248-.106-.339-.318a1.871,1.871,0,0,1,.026-1.4l2.039-4.049c.186-.37.478-.348.651.054a1.871,1.871,0,0,1-.025,1.4l-2.04,4.051C462.46,1768.719,462.349,1768.805,462.236,1768.805Zm72.657-3.789c-.118,0-.236-.1-.326-.289q-1.017-2.184-1.975-4.173a1.876,1.876,0,0,1-.012-1.4c.177-.392.47-.4.652-.024q.964,2,1.987,4.2a1.881,1.881,0,0,1,0,1.4C535.128,1764.919,535.011,1765.016,534.893,1765.016ZM466.31,1760.7c-.123,0-.246-.1-.337-.315a1.875,1.875,0,0,1,.024-1.4l2.032-4.065c.185-.372.479-.349.652.047a1.879,1.879,0,0,1-.022,1.4l-2.033,4.069C466.536,1760.613,466.424,1760.7,466.31,1760.7Zm64.577-3.962c-.112,0-.223-.085-.312-.257q-1.091-2.15-2.069-3.927a1.866,1.866,0,0,1-.054-1.395c.164-.414.455-.467.649-.115.659,1.2,1.36,2.527,2.1,3.974a1.883,1.883,0,0,1,.029,1.4C531.136,1756.632,531.011,1756.738,530.887,1756.738Zm-60.512-4.169c-.126,0-.252-.111-.343-.329a1.873,1.873,0,0,1,.034-1.4,35.761,35.761,0,0,1,2.232-3.756c.21-.309.5-.194.64.259a1.8,1.8,0,0,1-.121,1.375,34.379,34.379,0,0,0-2.134,3.594C470.595,1752.486,470.485,1752.569,470.375,1752.569Zm56.241-3.455a.328.328,0,0,1-.263-.177,25.625,25.625,0,0,0-2.328-2.986,1.665,1.665,0,0,1-.2-1.329c.115-.489.391-.683.62-.432a26.762,26.762,0,0,1,2.434,3.121,1.809,1.809,0,0,1,.116,1.377C526.906,1748.965,526.762,1749.114,526.616,1749.114Zm-51.664-3.228c-.171,0-.333-.2-.414-.548a1.654,1.654,0,0,1,.207-1.326,18.738,18.738,0,0,1,2.618-2.339c.242-.168.5.1.586.621a1.455,1.455,0,0,1-.289,1.252,18.013,18.013,0,0,0-2.5,2.234A.283.283,0,0,1,474.952,1745.886Zm46.733-2.162a.246.246,0,0,1-.151-.054,13.314,13.314,0,0,0-2.616-1.54c-.249-.111-.41-.633-.36-1.168s.294-.875.544-.774a13.892,13.892,0,0,1,2.734,1.611,1.464,1.464,0,0,1,.284,1.259C522.053,1743.468,521.875,1743.724,521.685,1743.724Zm-41.492-1.651c-.217,0-.409-.328-.452-.8-.049-.536.114-1.057.364-1.162a10.775,10.775,0,0,1,2.815-.752c.253-.057.471.39.486.932s-.181,1.013-.434,1.043a10.14,10.14,0,0,0-2.691.722A.272.272,0,0,1,480.193,1742.073Zm36.068-.712a.187.187,0,0,1-.031,0,9.393,9.393,0,0,0-1.315-.093h-1.43c-.255,0-.461-.443-.461-.99s.207-.989.461-.989h1.43a9.689,9.689,0,0,1,1.376.1c.255.036.446.509.43,1.053C516.7,1740.961,516.5,1741.361,516.26,1741.361Zm-5.552-.095h-2.777c-.255,0-.461-.443-.461-.99s.207-.989.461-.989h2.777c.254,0,.461.443.461.989S510.962,1741.266,510.708,1741.266Zm-5.552,0h-2.777c-.255,0-.461-.443-.461-.99s.207-.989.461-.989h2.777c.255,0,.461.443.461.989S505.41,1741.266,505.155,1741.266Zm-5.552,0h-2.777c-.254,0-.461-.443-.461-.99s.207-.989.461-.989H499.6c.255,0,.461.443.461.989S499.857,1741.266,499.6,1741.266Zm-5.552,0h-2.777c-.255,0-.461-.443-.461-.99s.207-.989.461-.989h2.777c.255,0,.461.443.461.989S494.305,1741.266,494.051,1741.266Zm-5.553,0h-2.777c-.254,0-.461-.443-.461-.99s.207-.989.461-.989H488.5c.255,0,.461.443.461.989S488.753,1741.266,488.5,1741.266Z" transform="translate(-361.53 -1739.287)" fill="#00223d"/>
      </g>
      <g id="Grupo_17623" data-name="Grupo 17623" transform="translate(218.709 120.786)">
        <path id="Trazado_28143" data-name="Trazado 28143" d="M591.078,1804.866a.99.99,0,0,1-.863-.5q-.7-1.241-1.47-2.547a.99.99,0,0,1,1.706-1.006c.518.883,1.017,1.744,1.488,2.583a.988.988,0,0,1-.861,1.474Z" transform="translate(-588.608 -1800.325)" fill="#00223d"/>
      </g>
    </g>
  </g>
</svg>
